<svg width="104" height="104" xmlns="http://www.w3.org/2000/svg"><g fill="none" fill-rule="evenodd"><path d="M15.275 88.78l36.69-36.746-36.685-36.74C-4.983 35.588-4.985 68.489 15.275 88.78z" fill="#2E81CC"/><path d="M51.967 103.996C23.31 103.996.08 80.733.08 52.036h51.886v51.96z" fill="#B2CD6F"/><path d="M15.28 15.294l36.69 36.745L88.652 15.3C68.391-4.995 35.54-4.997 15.28 15.294z" fill="#E0DDD5"/><path d="M51.967.078c28.656 0 51.886 23.263 51.886 51.959s-23.23 51.959-51.886 51.959V.078z" fill="#F97126"/><ellipse stroke="#FFCCB7" stroke-width="4.884" fill="#FFF" cx="51.967" cy="52.037" rx="40.607" ry="40.664"/><path d="M44.9 22.864c4.893 3.352 9.77 2.417 13.278 0 3.12-2.774 7.334-1.32 7.334-1.32s3.984 1.025 5.819 4.394c.862 1.583 4.457 10.96 4.631 15.453.174 4.492.318 5.093-3.716 8.183-4.034 3.091-3.523 7.076-3.523 7.076l.077 18.672s.3 7.731-8.743 9.095c-.294 0-.294-14.174-.294-21.744 0-.81-1.08-8.444-8.749-8.444-6.516 0-7.596 7.635-7.596 8.444 0 7.57 0 21.744-.294 21.744-9.043-1.364-8.743-9.095-8.743-9.095l.078-18.672s.51-3.985-3.523-7.076c-4.034-3.09-3.89-3.691-3.717-8.183.174-4.492 3.77-13.87 4.632-15.453 1.834-3.369 5.818-4.395 5.818-4.395s4.215-1.453 8.228 1.993" stroke="#FDA8B6" stroke-width="1.613" fill="#FDA8B6"/></g></svg>