<svg width="247" height="57" xmlns="http://www.w3.org/2000/svg"><g fill="none" fill-rule="evenodd"><path d="M.35 25.08h10.725c4.641 0 9.945 1.014 9.945 8.658v.78c0 2.574-1.014 4.212-2.535 5.265 1.95 1.053 3.315 2.886 3.315 5.967v.78c0 7.917-5.694 8.97-10.53 8.97H.35V25.08zm11.115 18.096H7.76v5.928h3.705c1.209 0 2.847-.429 2.847-2.808v-.312c0-2.379-1.638-2.808-2.847-2.808zm-.507-11.7H7.76v5.304h3.198c1.092 0 2.574-.312 2.574-2.418v-.468c0-2.106-1.482-2.418-2.574-2.418zM43.64 55.5v-6.396H32.915V25.08h-7.41V55.5H43.64zm8.19-30.42h10.14l7.254 30.42h-7.917l-1.248-6.162h-6.318L52.532 55.5h-7.956l7.254-30.42zm5.07 8.58l-1.872 9.282h3.744L56.9 33.66zm37.635-8.58h-7.02V36l.195 5.85-8.385-16.77h-7.8V55.5h7.02V44.58l-.195-5.85 8.385 16.77h7.8V25.08zm10.764 15.99v-1.56c0-5.265.546-8.58 4.251-8.58h.39c2.925 0 3.51 2.34 3.51 5.85h7.41v-1.521c0-7.839-3.861-10.725-11.31-10.725-8.19 0-11.778 4.446-11.778 14.976v1.56c0 10.53 3.588 14.976 11.778 14.976 7.449 0 11.31-2.886 11.31-10.725v-.351h-7.41c0 2.73-.897 4.68-3.51 4.68h-.39c-3.705 0-4.251-3.315-4.251-8.58zm30.186 14.976c-8.19 0-11.973-4.446-11.973-14.976v-1.56c0-10.53 3.783-14.976 11.973-14.976 8.19 0 11.973 4.446 11.973 14.976v1.56c0 10.53-3.783 14.976-11.973 14.976zm-.195-6.396h.39c3.51 0 4.251-3.315 4.251-8.58v-1.56c0-5.265-.741-8.58-4.251-8.58h-.39c-3.51 0-4.251 3.315-4.251 8.58v1.56c0 5.265.741 8.58 4.251 8.58zm38.298-8.58c0 10.53-3.588 14.43-13.143 14.43h-9.75V25.08h9.75c9.555 0 13.143 3.9 13.143 14.43v1.56zm-15.483 8.034h1.95c5.07 0 6.006-2.769 6.006-8.034v-1.56c0-5.265-.936-8.034-6.006-8.034h-1.95v17.628zm18.72-24.024V55.5h19.11v-6.396h-11.7v-5.928h9.75V36.78h-9.75v-5.304h11.7V25.08h-19.11zm45.63 0h-7.02V36l.195 5.85-8.385-16.77h-7.8V55.5h7.02V44.58l-.195-5.85 8.385 16.77h7.8V25.08zm16.77 6.396h6.825V25.08h-21.06v6.396h6.825V55.5h7.41V31.476z" stroke="#000" stroke-width=".4" fill="#FFF"/><path d="M13.717 10.49c0 6.21-2.116 8.51-7.751 8.51H.216V1.06h5.75c5.635 0 7.751 2.3 7.751 8.51v.92zm-9.131 4.738h1.15c2.99 0 3.542-1.633 3.542-4.738v-.92c0-3.105-.552-4.738-3.542-4.738h-1.15v10.396zm22.195-.828h-7.498c.138 1.38.828 1.748 1.886 1.748.92 0 1.633-.483 1.633-1.058h3.979v.092c0 2.438-2.093 4.14-5.635 4.14-4.163 0-6.095-2.507-6.095-6.072v-.69c0-3.565 2.024-6.072 5.957-6.072s5.773 2.507 5.773 6.072v1.84zm-5.865-4.738c-.989 0-1.518.46-1.633 1.748h3.266c-.115-1.288-.644-1.748-1.633-1.748zM40.029 19v-8.165c0-2.185-.92-4.347-3.795-4.347-1.817 0-3.059.759-3.864 1.84l-.276-1.518h-3.818l.23 3.45V19h4.232v-7.935c.23-.345.851-.943 1.771-.943 1.15 0 1.288.828 1.288 1.403V19h4.232zm7.153-12.19V3.36H42.95v3.45h-1.84v3.68h1.84v4.025c0 3.565 1.955 4.807 4.876 4.807 1.15 0 1.84-.207 2.047-.322v-3.45c-.115.046-.69.138-1.058.138-.966 0-1.633-.253-1.633-1.633V10.49h2.921V6.81h-2.921zM59.165 19l-.23-1.15c-.851.897-2.07 1.472-3.68 1.472-2.875 0-3.795-1.817-3.795-3.772v-.23c0-2.645 1.771-3.542 4.485-3.956l2.576-.414c-.046-.874-.391-1.288-1.311-1.288-1.035 0-1.311.598-1.311 1.173H51.92v-.207c0-2.208 1.265-4.14 5.405-4.14 4.163 0 5.428 1.679 5.428 4.692v4.37l.23 3.45h-3.818zm-2.3-3.082c.713 0 1.311-.345 1.656-.667v-1.863l-1.656.253c-.989.161-1.196.598-1.196 1.15v.138c0 .483.322.989 1.196.989zM64.869 19h4.232V.6h-4.232V19zm15.134-8.51v-.92c0-3.105.322-5.06 2.507-5.06h.23c1.725 0 2.07 1.38 2.07 3.45h4.37v-.897c0-4.623-2.277-6.325-6.67-6.325-4.83 0-6.946 2.622-6.946 8.832v.92c0 6.21 2.116 8.832 6.946 8.832 4.393 0 6.67-1.702 6.67-6.325v-.207h-4.37c0 1.61-.529 2.76-2.07 2.76h-.23c-2.185 0-2.507-1.955-2.507-5.06zM91.089 19h4.232V.6h-4.232V19zm6.44 0h4.232V6.81h-4.232V19zm4.301-17.94h-4.37v4.37h4.37V1.06zM115.538 19v-8.165c0-2.185-.92-4.347-3.795-4.347-1.817 0-3.059.759-3.864 1.84l-.276-1.518h-3.818l.23 3.45V19h4.232v-7.935c.23-.345.851-.943 1.771-.943 1.15 0 1.288.828 1.288 1.403V19h4.232zm2.116 0h4.232V6.81h-4.232V19zm4.301-17.94h-4.37v4.37h4.37V1.06zm5.819 12.305v-.92c0-1.495.391-2.323 1.518-2.323.828 0 1.334.46 1.334 1.518h3.979v-.552c0-2.898-1.863-4.6-5.405-4.6-3.933 0-5.635 2.392-5.635 5.957v.92c0 3.565 1.702 5.957 5.635 5.957 3.542 0 5.405-1.702 5.405-4.37V14.4h-3.979c0 .805-.506 1.288-1.334 1.288-1.127 0-1.518-.828-1.518-2.323z" fill="#464646"/></g></svg>