<svg width="248" height="57" xmlns="http://www.w3.org/2000/svg"><g fill="none" fill-rule="evenodd"><path d="M5.175 10.527v-.916c0-3.091.321-5.038 2.496-5.038h.23c1.717 0 2.06 1.374 2.06 3.435h4.351v-.893c0-4.603-2.267-6.298-6.64-6.298C2.861.817.755 3.428.755 9.611v.916c0 6.183 2.106 8.794 6.915 8.794 4.374 0 6.641-1.695 6.641-6.298v-.206h-4.35c0 1.603-.527 2.748-2.062 2.748h-.229c-2.175 0-2.496-1.946-2.496-5.038zM16.213 19h4.214V.68h-4.214V19zm6.412 0h4.214V6.863h-4.214V19zm2.107-17.862l-2.084 4.351h4.168l2.542-4.351h-4.626zM40.556 19v-8.13c0-2.175-.916-4.328-3.779-4.328-1.809 0-3.045.756-3.847 1.832l-.275-1.511h-3.801l.229 3.435V19h4.214v-7.9c.229-.344.847-.94 1.763-.94 1.145 0 1.282.825 1.282 1.398V19h4.214zm2.107 0h4.213V6.863h-4.213V19zm4.282-17.862h-4.351v4.351h4.351V1.138zm5.794 12.252v-.916c0-1.489.389-2.313 1.511-2.313.824 0 1.328.458 1.328 1.511h3.962v-.55c0-2.885-1.855-4.58-5.382-4.58-3.915 0-5.61 2.382-5.61 5.932v.916c0 3.549 1.695 5.93 5.61 5.93 3.527 0 5.382-1.694 5.382-4.35v-.55h-3.962c0 .802-.504 1.282-1.328 1.282-1.122 0-1.511-.824-1.511-2.312zM68.31 19l-.23-1.145c-.847.893-2.06 1.466-3.663 1.466-2.863 0-3.779-1.81-3.779-3.756v-.229c0-2.633 1.763-3.527 4.466-3.939l2.564-.412c-.045-.87-.389-1.282-1.305-1.282-1.03 0-1.305.595-1.305 1.168h-3.962v-.207c0-2.198 1.26-4.122 5.382-4.122 4.145 0 5.404 1.672 5.404 4.672v4.351l.23 3.435H68.31zm-2.29-3.069c.71 0 1.305-.343 1.648-.664v-1.855l-1.648.252c-.985.16-1.191.596-1.191 1.145v.138c0 .48.32.984 1.19.984zm26.037-5.404c0 6.183-2.107 8.473-7.717 8.473h-5.725V1.138h5.725c5.61 0 7.717 2.29 7.717 8.473v.916zm-9.091 4.717h1.145c2.977 0 3.526-1.625 3.526-4.717v-.916c0-3.091-.55-4.717-3.526-4.717h-1.145v10.35zm22.098-.824H97.6c.137 1.374.824 1.74 1.878 1.74.916 0 1.625-.48 1.625-1.053h3.962v.092c0 2.427-2.084 4.122-5.61 4.122-4.145 0-6.069-2.497-6.069-6.046v-.687c0-3.55 2.015-6.046 5.931-6.046s5.748 2.497 5.748 6.046v1.832zm-5.84-4.717c-.984 0-1.51.458-1.625 1.74h3.252c-.115-1.282-.642-1.74-1.626-1.74zM118.256 19v-8.13c0-2.175-.915-4.328-3.778-4.328-1.809 0-3.046.756-3.847 1.832l-.275-1.511h-3.801l.229 3.435V19h4.213v-7.9c.23-.344.848-.94 1.764-.94 1.145 0 1.282.825 1.282 1.398V19h4.214zm7.122-12.137V3.428h-4.213v3.435h-1.832v3.664h1.832v4.008c0 3.549 1.946 4.786 4.855 4.786 1.145 0 1.832-.207 2.038-.321v-3.435c-.115.046-.687.137-1.054.137-.961 0-1.626-.251-1.626-1.625v-3.55h2.909V6.863h-2.909zM137.308 19l-.229-1.145c-.847.893-2.06 1.466-3.664 1.466-2.862 0-3.778-1.81-3.778-3.756v-.229c0-2.633 1.763-3.527 4.465-3.939l2.565-.412c-.046-.87-.39-1.282-1.305-1.282-1.03 0-1.305.595-1.305 1.168h-3.962v-.207c0-2.198 1.26-4.122 5.381-4.122 4.145 0 5.405 1.672 5.405 4.672v4.351L141.11 19h-3.802zm-2.29-3.069c.71 0 1.306-.343 1.65-.664v-1.855l-1.65.252c-.984.16-1.19.596-1.19 1.145v.138c0 .48.32.984 1.19.984zm7.97 3.069h4.213V.68h-4.213V19z" fill="#464646"/><path d="M1.35 25.08h10.725c4.641 0 9.945 1.014 9.945 8.658v.78c0 2.574-1.014 4.212-2.535 5.265 1.95 1.053 3.315 2.886 3.315 5.967v.78c0 7.917-5.694 8.97-10.53 8.97H1.35V25.08zm11.115 18.096H8.76v5.928h3.705c1.209 0 2.847-.429 2.847-2.808v-.312c0-2.379-1.638-2.808-2.847-2.808zm-.507-11.7H8.76v5.304h3.198c1.092 0 2.574-.312 2.574-2.418v-.468c0-2.106-1.482-2.418-2.574-2.418zM44.64 55.5v-6.396H33.915V25.08h-7.41V55.5H44.64zm8.19-30.42h10.14l7.254 30.42h-7.917l-1.248-6.162h-6.318L53.532 55.5h-7.956l7.254-30.42zm5.07 8.58l-1.872 9.282h3.744L57.9 33.66zm37.635-8.58h-7.02V36l.195 5.85-8.385-16.77h-7.8V55.5h7.02V44.58l-.195-5.85 8.385 16.77h7.8V25.08zm10.764 15.99v-1.56c0-5.265.546-8.58 4.251-8.58h.39c2.925 0 3.51 2.34 3.51 5.85h7.41v-1.521c0-7.839-3.861-10.725-11.31-10.725-8.19 0-11.778 4.446-11.778 14.976v1.56c0 10.53 3.588 14.976 11.778 14.976 7.449 0 11.31-2.886 11.31-10.725v-.351h-7.41c0 2.73-.897 4.68-3.51 4.68h-.39c-3.705 0-4.251-3.315-4.251-8.58zm30.186 14.976c-8.19 0-11.973-4.446-11.973-14.976v-1.56c0-10.53 3.783-14.976 11.973-14.976 8.19 0 11.973 4.446 11.973 14.976v1.56c0 10.53-3.783 14.976-11.973 14.976zm-.195-6.396h.39c3.51 0 4.251-3.315 4.251-8.58v-1.56c0-5.265-.741-8.58-4.251-8.58h-.39c-3.51 0-4.251 3.315-4.251 8.58v1.56c0 5.265.741 8.58 4.251 8.58zm38.298-8.58c0 10.53-3.588 14.43-13.143 14.43h-9.75V25.08h9.75c9.555 0 13.143 3.9 13.143 14.43v1.56zm-15.483 8.034h1.95c5.07 0 6.006-2.769 6.006-8.034v-1.56c0-5.265-.936-8.034-6.006-8.034h-1.95v17.628zm18.72-24.024V55.5h19.11v-6.396h-11.7v-5.928h9.75V36.78h-9.75v-5.304h11.7V25.08h-19.11zm45.63 0h-7.02V36l.195 5.85-8.385-16.77h-7.8V55.5h7.02V44.58l-.195-5.85 8.385 16.77h7.8V25.08zm16.77 6.396h6.825V25.08h-21.06v6.396h6.825V55.5h7.41V31.476z" stroke="#000" stroke-width=".4" fill="#FFF"/></g></svg>