<?xml version="1.0" encoding="UTF-8"?>
<svg width="248px" height="72px" viewBox="0 0 248 72" version="1.1" xmlns="http://www.w3.org/2000/svg" xmlns:xlink="http://www.w3.org/1999/xlink">
    <!-- Generator: Sketch 43.2 (39069) - http://www.bohemiancoding.com/sketch -->
    <title>Texto Blancodent</title>
    <desc>Created with Sketch.</desc>
    <defs></defs>
    <g id="Welcome" stroke="none" stroke-width="1" fill="none" fill-rule="evenodd">
        <g id="Tablet-Portrait" transform="translate(-29.000000, -19.000000)">
            <g id="Texto-Blancodent" transform="translate(29.000000, 19.000000)">
                <path d="M5.17539991,10.5270001 L5.17539991,9.61100016 C5.17539991,6.51950021 5.49599991,4.57300024 7.67149987,4.57300024 L7.90049987,4.57300024 C9.61799984,4.57300024 9.96149983,5.94700022 9.96149983,8.00800018 L14.3124998,8.00800018 L14.3124998,7.1149002 C14.3124998,2.51200027 12.0453998,0.817400303 7.67149987,0.817400303 C2.86249995,0.817400303 0.755699987,3.42800026 0.755699987,9.61100016 L0.755699987,10.5270001 C0.755699987,16.71 2.86249995,19.3206 7.67149987,19.3206 C12.0453998,19.3206 14.3124998,17.626 14.3124998,13.0231001 L14.3124998,12.8170001 L9.96149983,12.8170001 C9.96149983,14.4200001 9.43479984,15.5650001 7.90049987,15.5650001 L7.67149987,15.5650001 C5.49599991,15.5650001 5.17539991,13.6185001 5.17539991,10.5270001 Z M16.2131997,19 L20.4267997,19 L20.4267997,0.680000305 L16.2131997,0.680000305 L16.2131997,19 Z M22.6251996,19 L26.8387996,19 L26.8387996,6.8630002 L22.6251996,6.8630002 L22.6251996,19 Z M24.7319996,1.1380003 L22.6480996,5.48900023 L26.8158996,5.48900023 L29.3577995,1.1380003 L24.7319996,1.1380003 Z M40.5558993,19 L40.5558993,10.8705001 C40.5558993,8.69500017 39.6398993,6.54240021 36.7773994,6.54240021 C34.9682994,6.54240021 33.7316994,7.29810019 32.9301995,8.37440018 L32.6553995,6.8630002 L28.8539995,6.8630002 L29.0829995,10.2980001 L29.0829995,19 L33.2965994,19 L33.2965994,11.0995001 C33.5255994,10.7560001 34.1438994,10.1606001 35.0598994,10.1606001 C36.2048994,10.1606001 36.3422994,10.9850001 36.3422994,11.5575001 L36.3422994,19 L40.5558993,19 Z M42.6626993,19 L46.8762992,19 L46.8762992,6.8630002 L42.6626993,6.8630002 L42.6626993,19 Z M46.9449992,1.1380003 L42.5939993,1.1380003 L42.5939993,5.48900023 L46.9449992,5.48900023 L46.9449992,1.1380003 Z M52.7386991,13.3895001 L52.7386991,12.4735001 C52.7386991,10.9850001 53.1279991,10.1606001 54.2500991,10.1606001 C55.0744991,10.1606001 55.5782991,10.6186001 55.5782991,11.6720001 L59.539999,11.6720001 L59.539999,11.1224001 C59.539999,8.23700018 57.685099,6.54240021 54.1584991,6.54240021 C50.2425992,6.54240021 48.5479992,8.92400017 48.5479992,12.4735001 L48.5479992,13.3895001 C48.5479992,16.939 50.2425992,19.3206 54.1584991,19.3206 C57.685099,19.3206 59.539999,17.626 59.539999,14.9696001 L59.539999,14.4200001 L55.5782991,14.4200001 C55.5782991,15.2215001 55.0744991,15.7024001 54.2500991,15.7024001 C53.1279991,15.7024001 52.7386991,14.8780001 52.7386991,13.3895001 Z M68.3106989,19 L68.0816989,17.855 C67.2343989,18.7481 66.0206989,19.3206 64.4176989,19.3206 C61.555199,19.3206 60.639199,17.5115 60.639199,15.5650001 L60.639199,15.3360001 C60.639199,12.7025001 62.402499,11.8094001 65.1046989,11.3972001 L67.6694989,10.9850001 C67.6236989,10.1148001 67.2801989,9.70260015 66.3641989,9.70260015 C65.3336989,9.70260015 65.0588989,10.2980001 65.0588989,10.8705001 L61.097199,10.8705001 L61.097199,10.6644001 C61.097199,8.46600018 62.356699,6.54240021 66.4786989,6.54240021 C70.6235988,6.54240021 71.8830988,8.21410018 71.8830988,11.2140001 L71.8830988,15.5650001 L72.1120988,19 L68.3106989,19 Z M66.0206989,15.9314001 C66.7305989,15.9314001 67.3259989,15.5879001 67.6694989,15.2673001 L67.6694989,13.4124001 L66.0206989,13.6643001 C65.0359989,13.8246001 64.8298989,14.2597001 64.8298989,14.8093001 L64.8298989,14.9467001 C64.8298989,15.4276001 65.1504989,15.9314001 66.0206989,15.9314001 Z M92.0579985,10.5270001 C92.0579985,16.71 89.9511985,19 84.3406986,19 L78.6156987,19 L78.6156987,1.1380003 L84.3406986,1.1380003 C89.9511985,1.1380003 92.0579985,3.42800026 92.0579985,9.61100016 L92.0579985,10.5270001 Z M82.9666986,15.2444001 L84.1116986,15.2444001 C87.0886985,15.2444001 87.6382985,13.6185001 87.6382985,10.5270001 L87.6382985,9.61100016 C87.6382985,6.51950021 87.0886985,4.89360023 84.1116986,4.89360023 L82.9666986,4.89360023 L82.9666986,15.2444001 Z M105.065198,14.4200001 L97.5997984,14.4200001 C97.7371984,15.7940001 98.4241984,16.1604 99.4775983,16.1604 C100.393598,16.1604 101.103498,15.6795001 101.103498,15.1070001 L105.065198,15.1070001 L105.065198,15.1986001 C105.065198,17.626 102.981298,19.3206 99.4546983,19.3206 C95.3097984,19.3206 93.3861984,16.8245 93.3861984,13.2750001 L93.3861984,12.5880001 C93.3861984,9.03850017 95.4013984,6.54240021 99.3172983,6.54240021 C103.233198,6.54240021 105.065198,9.03850017 105.065198,12.5880001 L105.065198,14.4200001 Z M99.2256983,9.70260015 C98.2409984,9.70260015 97.7142984,10.1606001 97.5997984,11.4430001 L100.851598,11.4430001 C100.737098,10.1606001 100.210398,9.70260015 99.2256983,9.70260015 Z M118.255598,19 L118.255598,10.8705001 C118.255598,8.69500017 117.339598,6.54240021 114.477098,6.54240021 C112.667998,6.54240021 111.431398,7.29810019 110.629898,8.37440018 L110.355098,6.8630002 L106.553698,6.8630002 L106.782698,10.2980001 L106.782698,19 L110.996298,19 L110.996298,11.0995001 C111.225298,10.7560001 111.843598,10.1606001 112.759598,10.1606001 C113.904598,10.1606001 114.041998,10.9850001 114.041998,11.5575001 L114.041998,19 L118.255598,19 Z M125.377498,6.8630002 L125.377498,3.42800026 L121.163898,3.42800026 L121.163898,6.8630002 L119.331898,6.8630002 L119.331898,10.5270001 L121.163898,10.5270001 L121.163898,14.5345001 C121.163898,18.084 123.110398,19.3206 126.018698,19.3206 C127.163698,19.3206 127.850698,19.1145 128.056798,19 L128.056798,15.5650001 C127.942298,15.6108001 127.369798,15.7024001 127.003398,15.7024001 C126.041598,15.7024001 125.377498,15.4505001 125.377498,14.0765001 L125.377498,10.5270001 L128.285798,10.5270001 L128.285798,6.8630002 L125.377498,6.8630002 Z M137.308398,19 L137.079398,17.855 C136.232098,18.7481 135.018398,19.3206 133.415398,19.3206 C130.552898,19.3206 129.636898,17.5115 129.636898,15.5650001 L129.636898,15.3360001 C129.636898,12.7025001 131.400198,11.8094001 134.102398,11.3972001 L136.667198,10.9850001 C136.621398,10.1148001 136.277898,9.70260015 135.361898,9.70260015 C134.331398,9.70260015 134.056598,10.2980001 134.056598,10.8705001 L130.094898,10.8705001 L130.094898,10.6644001 C130.094898,8.46600018 131.354398,6.54240021 135.476398,6.54240021 C139.621298,6.54240021 140.880798,8.21410018 140.880798,11.2140001 L140.880798,15.5650001 L141.109798,19 L137.308398,19 Z M135.018398,15.9314001 C135.728298,15.9314001 136.323698,15.5879001 136.667198,15.2673001 L136.667198,13.4124001 L135.018398,13.6643001 C134.033698,13.8246001 133.827598,14.2597001 133.827598,14.8093001 L133.827598,14.9467001 C133.827598,15.4276001 134.148198,15.9314001 135.018398,15.9314001 Z M142.987598,19 L147.201198,19 L147.201198,0.680000305 L142.987598,0.680000305 L142.987598,19 Z" id="Clínica-Dental" fill="#464646"></path>
                <path d="M1.34999962,25.08 L12.0749996,25.08 C16.7159996,25.08 22.0199996,26.094 22.0199996,33.738 L22.0199996,34.518 C22.0199996,37.092 21.0059996,38.73 19.4849996,39.783 C21.4349996,40.836 22.7999996,42.669 22.7999996,45.75 L22.7999996,46.53 C22.7999996,54.447 17.1059996,55.5 12.2699996,55.5 L1.34999962,55.5 L1.34999962,25.08 Z M12.4649996,43.176 L8.75999962,43.176 L8.75999962,49.104 L12.4649996,49.104 C13.6739996,49.104 15.3119996,48.675 15.3119996,46.296 L15.3119996,45.984 C15.3119996,43.605 13.6739996,43.176 12.4649996,43.176 Z M11.9579996,31.476 L8.75999962,31.476 L8.75999962,36.78 L11.9579996,36.78 C13.0499996,36.78 14.5319996,36.468 14.5319996,34.362 L14.5319996,33.894 C14.5319996,31.788 13.0499996,31.476 11.9579996,31.476 Z M44.6399996,55.5 L44.6399996,49.104 L33.9149996,49.104 L33.9149996,25.08 L26.5049996,25.08 L26.5049996,55.5 L44.6399996,55.5 Z M52.8299996,25.08 L62.9699996,25.08 L70.2239996,55.5 L62.3069996,55.5 L61.0589996,49.338 L54.7409996,49.338 L53.5319996,55.5 L45.5759996,55.5 L52.8299996,25.08 Z M57.8999996,33.66 L56.0279996,42.942 L59.7719996,42.942 L57.8999996,33.66 Z M95.5349996,25.08 L88.5149996,25.08 L88.5149996,36 L88.7099996,41.85 L80.3249996,25.08 L72.5249996,25.08 L72.5249996,55.5 L79.5449996,55.5 L79.5449996,44.58 L79.3499996,38.73 L87.7349996,55.5 L95.5349996,55.5 L95.5349996,25.08 Z M106.299,41.07 L106.299,39.51 C106.299,34.245 106.845,30.93 110.55,30.93 L110.94,30.93 C113.865,30.93 114.45,33.27 114.45,36.78 L121.86,36.78 L121.86,35.259 C121.86,27.42 117.999,24.534 110.55,24.534 C102.36,24.534 98.7719996,28.98 98.7719996,39.51 L98.7719996,41.07 C98.7719996,51.6 102.36,56.046 110.55,56.046 C117.999,56.046 121.86,53.16 121.86,45.321 L121.86,44.97 L114.45,44.97 C114.45,47.7 113.553,49.65 110.94,49.65 L110.55,49.65 C106.845,49.65 106.299,46.335 106.299,41.07 Z M136.485,56.046 C128.295,56.046 124.512,51.6 124.512,41.07 L124.512,39.51 C124.512,28.98 128.295,24.534 136.485,24.534 C144.675,24.534 148.458,28.98 148.458,39.51 L148.458,41.07 C148.458,51.6 144.675,56.046 136.485,56.046 Z M136.29,49.65 L136.68,49.65 C140.19,49.65 140.931,46.335 140.931,41.07 L140.931,39.51 C140.931,34.245 140.19,30.93 136.68,30.93 L136.29,30.93 C132.78,30.93 132.039,34.245 132.039,39.51 L132.039,41.07 C132.039,46.335 132.78,49.65 136.29,49.65 Z M174.588,41.07 C174.588,51.6 171,55.5 161.445,55.5 L151.695,55.5 L151.695,25.08 L161.445,25.08 C171,25.08 174.588,28.98 174.588,39.51 L174.588,41.07 Z M159.105,49.104 L161.055,49.104 C166.125,49.104 167.061,46.335 167.061,41.07 L167.061,39.51 C167.061,34.245 166.125,31.476 161.055,31.476 L159.105,31.476 L159.105,49.104 Z M177.825,25.08 L177.825,55.5 L196.935,55.5 L196.935,49.104 L185.235,49.104 L185.235,43.176 L194.985,43.176 L194.985,36.78 L185.235,36.78 L185.235,31.476 L196.935,31.476 L196.935,25.08 L177.825,25.08 Z M223.455,25.08 L216.435,25.08 L216.435,36 L216.63,41.85 L208.245,25.08 L200.445,25.08 L200.445,55.5 L207.465,55.5 L207.465,44.58 L207.27,38.73 L215.655,55.5 L223.455,55.5 L223.455,25.08 Z M240.225,31.476 L247.05,31.476 L247.05,25.08 L225.99,25.08 L225.99,31.476 L232.815,31.476 L232.815,55.5 L240.225,55.5 L240.225,31.476 Z" id="BLANCODENT" stroke="#000000" stroke-width="0.4" fill="#FFFFFF"></path>
                <path d="M3.7685999,60.4108003 L4.89129986,60.4108003 L7.34379978,69 L6.49359981,69 L5.88319983,66.8200001 L2.77669994,66.8200001 L2.16629996,69 L1.31609999,69 L3.7685999,60.4108003 Z M4.32449988,61.2719003 L2.97289993,66.1115001 L5.67609984,66.1115001 L4.32449988,61.2719003 Z M8.8331361,69 L6.81663617,63.2230002 L7.63413614,63.2230002 L9.33453608,68.2806 L11.045836,63.2230002 L11.863336,63.2230002 L9.83593606,69 L8.8331361,69 Z M14.4971723,63.1031002 C15.3037722,63.1031002 15.8160722,63.4519002 16.1321722,63.8879002 L16.1321722,60.2800003 L16.8951722,60.2800003 L16.8951722,67.3650001 L16.9605722,69 L16.3174722,69 L16.2084722,68.2261 C15.9141722,68.7166 15.3691722,69.1199 14.4971723,69.1199 C12.9166723,69.1199 12.2844723,67.8446 12.2844723,66.2423001 L12.2844723,65.9807001 C12.2844723,64.3784002 12.9166723,63.1031002 14.4971723,63.1031002 Z M14.6606723,68.4332 C15.4454722,68.4332 15.8923722,67.9209 16.1321722,67.5394001 L16.1321722,64.6836002 C15.8923722,64.3021002 15.4454722,63.7898002 14.6606723,63.7898002 C13.5706723,63.7898002 13.0583723,64.6400002 13.0583723,65.9807001 L13.0583723,66.2423001 C13.0583723,67.583 13.5706723,68.4332 14.6606723,68.4332 Z M21.5346084,69 L21.4147084,68.1934 C21.0332084,68.6948 20.3792084,69.1199 19.3764085,69.1199 C18.3191085,69.1199 17.7087085,68.4659 17.7087085,67.5394001 L17.7087085,67.4304001 C17.7087085,66.1769001 18.6570085,65.8172001 19.5944085,65.6755001 L21.3384084,65.4030001 L21.3384084,65.2504001 C21.3384084,64.2585002 21.0223084,63.7462002 19.9977084,63.7462002 C18.9077085,63.7462002 18.6570085,64.3784002 18.6570085,65.1305001 L17.9267085,65.1305001 L17.9267085,65.0324001 C17.9267085,64.1604002 18.3082085,63.1031002 20.0086084,63.1031002 C21.6109084,63.1031002 22.1014084,63.9751002 22.1014084,65.2504001 L22.1014084,67.3650001 L22.1668084,69 L21.5346084,69 Z M19.5726085,68.455 C20.6408084,68.455 21.1313084,67.8773 21.3384084,67.5394001 L21.3384084,65.9589001 L19.6598085,66.2314001 C18.9186085,66.3622001 18.4717085,66.7219001 18.4717085,67.3759001 L18.4717085,67.4740001 C18.4717085,67.9863 18.7987085,68.455 19.5726085,68.455 Z M24.0703447,68.019 L23.0893447,68.019 L23.0893447,69 L24.0703447,69 L24.0703447,68.019 Z M33.3492171,61.8605002 L33.3165171,63.7571002 L33.3165171,69 L34.1013171,69 L34.1013171,60.4980003 L33.0004171,60.4980003 L30.5261172,67.6484 L28.0518173,60.4980003 L26.9509173,60.4980003 L26.9509173,69 L27.7357173,69 L27.7357173,63.7571002 L27.6921173,61.8605002 L30.1664172,69 L30.8749172,69 L33.3492171,61.8605002 Z M39.8961532,66.4276001 L35.8086534,66.4276001 C35.8413534,67.692 36.3754534,68.4768 37.5308533,68.4768 C38.6862533,68.4768 39.1658533,67.7683 39.1658533,67.1470001 L39.8961532,67.1470001 L39.8961532,67.1906001 C39.8961532,68.0844 39.1549533,69.1199 37.5308533,69.1199 C35.7868534,69.1199 35.0347534,67.8337 35.0347534,66.2314001 L35.0347534,65.9916001 C35.0347534,64.3893002 35.7868534,63.1031002 37.4763533,63.1031002 C39.1658533,63.1031002 39.8961532,64.3893002 39.8961532,65.9916001 L39.8961532,66.4276001 Z M37.4654533,63.7462002 C36.3754534,63.7462002 35.8413534,64.5419002 35.8086534,65.7954001 L39.1222533,65.7954001 C39.0786533,64.5419002 38.5663533,63.7462002 37.4654533,63.7462002 Z M42.8787895,68.4768 C41.7342895,68.4768 41.4181895,67.8664 41.4181895,67.2342001 L40.6551896,67.2342001 L40.6551896,67.2778001 C40.6551896,68.1607 41.2437896,69.1199 42.8787895,69.1199 C44.3066894,69.1199 45.1023894,68.4223 45.1023894,67.4195001 L45.1023894,67.3650001 C45.1023894,66.3077001 44.4810894,65.8935001 43.0313895,65.7736001 C41.7778895,65.6755001 41.4944895,65.3485001 41.4944895,64.7490001 C41.4944895,64.1059002 42.0067895,63.7462002 42.8787895,63.7462002 C43.9578895,63.7462002 44.2848894,64.2585002 44.2848894,65.0869001 L45.0369894,65.0869001 L45.0369894,65.0433001 C45.0369894,63.9097002 44.4592894,63.1031002 42.8787895,63.1031002 C41.5271895,63.1031002 40.7314896,63.7462002 40.7314896,64.7490001 L40.7314896,64.8144001 C40.7314896,65.6755001 41.1783896,66.2205001 42.7370895,66.3513001 C43.8597895,66.4494001 44.3175894,66.6347001 44.3175894,67.4195001 C44.3175894,68.0626 43.8161895,68.4768 42.8787895,68.4768 Z M49.6437256,69 L49.5238256,68.1934 C49.1423256,68.6948 48.4883257,69.1199 47.4855257,69.1199 C46.4282257,69.1199 45.8178258,68.4659 45.8178258,67.5394001 L45.8178258,67.4304001 C45.8178258,66.1769001 46.7661257,65.8172001 47.7035257,65.6755001 L49.4475256,65.4030001 L49.4475256,65.2504001 C49.4475256,64.2585002 49.1314256,63.7462002 48.1068257,63.7462002 C47.0168257,63.7462002 46.7661257,64.3784002 46.7661257,65.1305001 L46.0358258,65.1305001 L46.0358258,65.0324001 C46.0358258,64.1604002 46.4173257,63.1031002 48.1177257,63.1031002 C49.7200256,63.1031002 50.2105256,63.9751002 50.2105256,65.2504001 L50.2105256,67.3650001 L50.2759256,69 L49.6437256,69 Z M47.6817257,68.455 C48.7499257,68.455 49.2404256,67.8773 49.4475256,67.5394001 L49.4475256,65.9589001 L47.7689257,66.2314001 C47.0277257,66.3622001 46.5808257,66.7219001 46.5808257,67.3759001 L46.5808257,67.4740001 C46.5808257,67.9863 46.9078257,68.455 47.6817257,68.455 Z M54.8786982,67.9427 L53.2327982,63.2230002 L52.4152983,63.2230002 L54.4862982,68.782 L53.5815982,71.1799999 L54.4644982,71.1799999 L55.2819982,68.782 L57.3529981,63.2230002 L56.5354981,63.2230002 L54.8786982,67.9427 Z M64.0158706,69 L64.0158706,68.2915 L60.4188707,68.2915 L60.4188707,60.4980003 L59.6340708,60.4980003 L59.6340708,69 L64.0158706,69 Z M66.7478069,69.1199 C65.0474069,69.1199 64.317107,67.8446 64.317107,66.2423001 L64.317107,65.9807001 C64.317107,64.3784002 65.0474069,63.1031002 66.7478069,63.1031002 C68.4482068,63.1031002 69.1785068,64.3784002 69.1785068,65.9807001 L69.1785068,66.2423001 C69.1785068,67.8446 68.4482068,69.1199 66.7478069,69.1199 Z M66.7478069,68.4332 C67.8923068,68.4332 68.4046068,67.5612001 68.4046068,66.2423001 L68.4046068,65.9807001 C68.4046068,64.6618002 67.8923068,63.7898002 66.7478069,63.7898002 C65.6033069,63.7898002 65.0910069,64.6618002 65.0910069,65.9807001 L65.0910069,66.2423001 C65.0910069,67.5612001 65.6033069,68.4332 66.7478069,68.4332 Z M67.3364069,60.4980003 L66.3554069,62.3074002 L67.1402069,62.3074002 L68.1648068,60.4980003 L67.3364069,60.4980003 Z M72.4336431,69.1199 C71.6270431,69.1199 71.1038431,68.782 70.7986431,68.346 L70.7986431,71.1799999 L70.0356431,71.1799999 L70.0356431,64.8580001 L69.9702431,63.2230002 L70.6024431,63.2230002 L70.7114431,64.0078002 C71.0166431,63.5173002 71.5507431,63.1031002 72.4336431,63.1031002 C74.014143,63.1031002 74.646343,64.3784002 74.646343,65.9807001 L74.646343,66.2423001 C74.646343,67.8446 74.014143,69.1199 72.4336431,69.1199 Z M70.7986431,64.6836002 L70.7986431,67.5394001 C71.0275431,67.9209 71.4744431,68.4332 72.2592431,68.4332 C73.349243,68.4332 73.861543,67.583 73.861543,66.2423001 L73.861543,65.9807001 C73.861543,64.6400002 73.349243,63.7898002 72.2592431,63.7898002 C71.4744431,63.7898002 71.0275431,64.3021002 70.7986431,64.6836002 Z M80.1686792,66.4276001 L76.0811793,66.4276001 C76.1138793,67.692 76.6479793,68.4768 77.8033792,68.4768 C78.9587792,68.4768 79.4383792,67.7683 79.4383792,67.1470001 L80.1686792,67.1470001 L80.1686792,67.1906001 C80.1686792,68.0844 79.4274792,69.1199 77.8033792,69.1199 C76.0593793,69.1199 75.3072793,67.8337 75.3072793,66.2314001 L75.3072793,65.9916001 C75.3072793,64.3893002 76.0593793,63.1031002 77.7488792,63.1031002 C79.4383792,63.1031002 80.1686792,64.3893002 80.1686792,65.9916001 L80.1686792,66.4276001 Z M77.7379792,63.7462002 C76.6479793,63.7462002 76.1138793,64.5419002 76.0811793,65.7954001 L79.3947792,65.7954001 C79.3511792,64.5419002 78.8388792,63.7462002 77.7379792,63.7462002 Z M80.6988155,68.4768 L80.6988155,69 L84.9607154,69 L84.9607154,68.3133 L82.9551154,68.3133 L81.6689155,68.3242 L84.8517154,63.7462002 L84.8517154,63.2230002 L80.8078155,63.2230002 L80.8078155,63.9097002 L82.5845154,63.9097002 L83.8707154,63.8988002 L80.6988155,68.4768 Z M86.6244517,68.019 L85.6434517,68.019 L85.6434517,69 L86.1557517,69 C86.1121517,69.6213 85.8396517,69.8284 85.3927517,69.8284 L85.3927517,70.2862 C86.1993517,70.2862 86.6244517,69.7957 86.6244517,68.8038 L86.6244517,68.019 Z M94.6825241,69 L94.6825241,68.2915 L92.4698242,68.2915 L92.4698242,60.4544003 L91.9684242,60.4544003 L89.2979243,62.2638002 L89.6903243,62.8633002 L91.6959242,61.5008003 L91.6959242,68.2915 L89.4723243,68.2915 L89.4723243,69 L94.6825241,69 Z M97.0616968,65.5338001 L99.7757967,65.5338001 L99.7757967,64.8362001 L97.0616968,64.8362001 L97.0616968,65.5338001 Z M107.583169,69 L107.583169,68.2915 L105.370469,68.2915 L105.370469,60.4544003 L104.869069,60.4544003 L102.198569,62.2638002 L102.590969,62.8633002 L104.596569,61.5008003 L104.596569,68.2915 L102.372969,68.2915 L102.372969,69 L107.583169,69 Z M111.001805,64.7708001 L110.903705,64.1931002 C110.620305,64.5637002 110.151605,64.8689001 109.421305,64.8689001 C108.603805,64.8689001 108.156906,64.3675002 108.156906,63.6699002 L108.156906,63.5936002 C108.156906,62.6562002 108.854505,62.3837002 109.595705,62.2638002 L110.838305,62.0785002 L110.838305,61.9804002 C110.838305,61.3046003 110.620305,60.9449003 109.911805,60.9449003 C109.159705,60.9449003 108.985305,61.3809003 108.985305,61.8932002 L108.320405,61.8932002 L108.320405,61.8169003 C108.320405,61.1520003 108.636505,60.3781003 109.922705,60.3781003 C111.154405,60.3781003 111.525005,61.0212003 111.525005,61.9804002 L111.525005,63.5609002 L111.579505,64.7708001 L111.001805,64.7708001 Z M109.617505,64.2803002 C110.315105,64.2803002 110.674805,63.9097002 110.838305,63.6808002 L110.838305,62.5472002 L109.682905,62.7325002 C109.170605,62.8197002 108.854505,63.0813002 108.854505,63.5391002 L108.854505,63.6045002 C108.854505,63.9533002 109.072505,64.2803002 109.617505,64.2803002 Z M111.579505,66.6892001 L111.579505,66.0679001 L108.255005,66.0679001 L108.255005,66.6892001 L111.579505,66.6892001 Z M114.176678,69 L114.939678,69 L114.939678,63.2230002 L114.176678,63.2230002 L114.176678,69 Z M115.048678,60.8795003 L114.067678,60.8795003 L114.067678,61.8605002 L115.048678,61.8605002 L115.048678,60.8795003 Z M115.731414,68.4768 L115.731414,69 L119.993314,69 L119.993314,68.3133 L117.987714,68.3133 L116.701514,68.3242 L119.884314,63.7462002 L119.884314,63.2230002 L115.840414,63.2230002 L115.840414,63.9097002 L117.617114,63.9097002 L118.903314,63.8988002 L115.731414,68.4768 Z M124.25125,71.1799999 L124.25125,68.3242 C123.93515,68.7711 123.41195,69.1199 122.60535,69.1199 C121.024851,69.1199 120.392651,67.8446 120.392651,66.2423001 L120.392651,65.9807001 C120.392651,64.3784002 121.024851,63.1031002 122.60535,63.1031002 C123.48825,63.1031002 124.02235,63.5173002 124.32755,64.0187002 L124.43655,63.2230002 L125.07965,63.2230002 L125.00335,64.8580001 L125.00335,71.1799999 L124.25125,71.1799999 Z M124.25125,64.6836002 C124.01145,64.3021002 123.56455,63.7898002 122.77975,63.7898002 C121.689751,63.7898002 121.177451,64.6400002 121.177451,65.9807001 L121.177451,66.2423001 C121.177451,67.583 121.689751,68.4332 122.77975,68.4332 C123.56455,68.4332 124.01145,67.9209 124.25125,67.5394001 L124.25125,64.6836002 Z M126.002187,63.2230002 L126.002187,67.2669001 C126.002187,68.346 126.601687,69.1199 127.757087,69.1199 C128.738087,69.1199 129.359387,68.7057 129.686387,68.1934 L129.806287,69 L130.438487,69 L130.373087,67.3650001 L130.373087,63.2230002 L129.610087,63.2230002 L129.610087,67.5394001 C129.370287,67.9209 128.923387,68.4332 128.007787,68.4332 C127.244787,68.4332 126.754287,68.0299 126.754287,67.1579001 L126.754287,63.2230002 L126.002187,63.2230002 Z M131.491823,69 L132.254823,69 L132.254823,63.2230002 L131.491823,63.2230002 L131.491823,69 Z M132.363823,60.8795003 L131.382823,60.8795003 L131.382823,61.8605002 L132.363823,61.8605002 L132.363823,60.8795003 Z M138.049659,66.4276001 L133.962159,66.4276001 C133.994859,67.692 134.528959,68.4768 135.684359,68.4768 C136.839759,68.4768 137.319359,67.7683 137.319359,67.1470001 L138.049659,67.1470001 L138.049659,67.1906001 C138.049659,68.0844 137.308459,69.1199 135.684359,69.1199 C133.940359,69.1199 133.188259,67.8337 133.188259,66.2314001 L133.188259,65.9916001 C133.188259,64.3893002 133.940359,63.1031002 135.629859,63.1031002 C137.319359,63.1031002 138.049659,64.3893002 138.049659,65.9916001 L138.049659,66.4276001 Z M135.618959,63.7462002 C134.528959,63.7462002 133.994859,64.5419002 133.962159,65.7954001 L137.275759,65.7954001 C137.232159,64.5419002 136.719859,63.7462002 135.618959,63.7462002 Z M141.195795,63.1031002 C140.421895,63.1031002 139.887795,63.5064002 139.582595,63.9860002 L139.473595,63.2230002 L138.841395,63.2230002 L138.906795,64.8580001 L138.906795,69 L139.669795,69 L139.669795,64.7163001 C139.909595,64.3348002 140.334695,63.8443002 141.206695,63.8443002 L141.359295,63.8443002 L141.359295,63.1140002 C141.348395,63.1140002 141.272095,63.1031002 141.195795,63.1031002 Z M144.189332,63.1031002 C144.995932,63.1031002 145.508232,63.4519002 145.824332,63.8879002 L145.824332,60.2800003 L146.587331,60.2800003 L146.587331,67.3650001 L146.652731,69 L146.009632,69 L145.900632,68.2261 C145.606332,68.7166 145.061332,69.1199 144.189332,69.1199 C142.608832,69.1199 141.976632,67.8446 141.976632,66.2423001 L141.976632,65.9807001 C141.976632,64.3784002 142.608832,63.1031002 144.189332,63.1031002 Z M144.352832,68.4332 C145.137632,68.4332 145.584532,67.9209 145.824332,67.5394001 L145.824332,64.6836002 C145.584532,64.3021002 145.137632,63.7898002 144.352832,63.7898002 C143.262832,63.7898002 142.750532,64.6400002 142.750532,65.9807001 L142.750532,66.2423001 C142.750532,67.583 143.262832,68.4332 144.352832,68.4332 Z M151.226768,69 L151.106868,68.1934 C150.725368,68.6948 150.071368,69.1199 149.068568,69.1199 C148.011268,69.1199 147.400868,68.4659 147.400868,67.5394001 L147.400868,67.4304001 C147.400868,66.1769001 148.349168,65.8172001 149.286568,65.6755001 L151.030568,65.4030001 L151.030568,65.2504001 C151.030568,64.2585002 150.714468,63.7462002 149.689868,63.7462002 C148.599868,63.7462002 148.349168,64.3784002 148.349168,65.1305001 L147.618868,65.1305001 L147.618868,65.0324001 C147.618868,64.1604002 148.000368,63.1031002 149.700768,63.1031002 C151.303068,63.1031002 151.793568,63.9751002 151.793568,65.2504001 L151.793568,67.3650001 L151.858968,69 L151.226768,69 Z M149.264768,68.455 C150.332968,68.455 150.823468,67.8773 151.030568,67.5394001 L151.030568,65.9589001 L149.351968,66.2314001 C148.610768,66.3622001 148.163868,66.7219001 148.163868,67.3759001 L148.163868,67.4740001 C148.163868,67.9863 148.490868,68.455 149.264768,68.455 Z M153.762504,68.019 L152.781504,68.019 L152.781504,69 L153.762504,69 L153.762504,68.019 Z M156.272477,65.5338001 L158.986577,65.5338001 L158.986577,64.8362001 L156.272477,64.8362001 L156.272477,65.5338001 Z M167.781885,69 L167.781885,68.2915 L164.184885,68.2915 L164.184885,60.4980003 L163.400085,60.4980003 L163.400085,69 L167.781885,69 Z M171.865422,69 L171.745522,68.1934 C171.364022,68.6948 170.710022,69.1199 169.707222,69.1199 C168.649922,69.1199 168.039522,68.4659 168.039522,67.5394001 L168.039522,67.4304001 C168.039522,66.1769001 168.987822,65.8172001 169.925222,65.6755001 L171.669222,65.4030001 L171.669222,65.2504001 C171.669222,64.2585002 171.353122,63.7462002 170.328522,63.7462002 C169.238522,63.7462002 168.987822,64.3784002 168.987822,65.1305001 L168.257522,65.1305001 L168.257522,65.0324001 C168.257522,64.1604002 168.639022,63.1031002 170.339422,63.1031002 C171.941722,63.1031002 172.432222,63.9751002 172.432222,65.2504001 L172.432222,67.3650001 L172.497622,69 L171.865422,69 Z M169.903422,68.455 C170.971622,68.455 171.462122,67.8773 171.669222,67.5394001 L171.669222,65.9589001 L169.990622,66.2314001 C169.249422,66.3622001 168.802522,66.7219001 168.802522,67.3759001 L168.802522,67.4740001 C168.802522,67.9863 169.129522,68.455 169.903422,68.455 Z M175.578358,68.4768 C174.433858,68.4768 174.117758,67.8664 174.117758,67.2342001 L173.354758,67.2342001 L173.354758,67.2778001 C173.354758,68.1607 173.943358,69.1199 175.578358,69.1199 C177.006258,69.1199 177.801958,68.4223 177.801958,67.4195001 L177.801958,67.3650001 C177.801958,66.3077001 177.180658,65.8935001 175.730958,65.7736001 C174.477458,65.6755001 174.194058,65.3485001 174.194058,64.7490001 C174.194058,64.1059002 174.706358,63.7462002 175.578358,63.7462002 C176.657458,63.7462002 176.984458,64.2585002 176.984458,65.0869001 L177.736558,65.0869001 L177.736558,65.0433001 C177.736558,63.9097002 177.158858,63.1031002 175.578358,63.1031002 C174.226758,63.1031002 173.431058,63.7462002 173.431058,64.7490001 L173.431058,64.8144001 C173.431058,65.6755001 173.877958,66.2205001 175.436658,66.3513001 C176.559358,66.4494001 177.017158,66.6347001 177.017158,67.4195001 C177.017158,68.0626 176.515758,68.4768 175.578358,68.4768 Z M181.40193,65.5447001 L181.40193,69 L180.61713,69 L180.61713,60.4980003 L182.97153,60.4980003 C184.18143,60.4980003 185.57663,60.9558003 185.57663,62.9178002 L185.57663,63.1358002 C185.57663,65.0869001 184.18143,65.5447001 182.97153,65.5447001 L181.40193,65.5447001 Z M181.40193,64.8362001 L182.99333,64.8362001 C183.72363,64.8362001 184.77003,64.5637002 184.77003,63.1031002 L184.77003,62.9396002 C184.77003,61.4790003 183.72363,61.2065003 182.99333,61.2065003 L181.40193,61.2065003 L181.40193,64.8362001 Z M189.583866,69 L189.463966,68.1934 C189.082466,68.6948 188.428466,69.1199 187.425667,69.1199 C186.368367,69.1199 185.757967,68.4659 185.757967,67.5394001 L185.757967,67.4304001 C185.757967,66.1769001 186.706267,65.8172001 187.643666,65.6755001 L189.387666,65.4030001 L189.387666,65.2504001 C189.387666,64.2585002 189.071566,63.7462002 188.046966,63.7462002 C186.956967,63.7462002 186.706267,64.3784002 186.706267,65.1305001 L185.975967,65.1305001 L185.975967,65.0324001 C185.975967,64.1604002 186.357467,63.1031002 188.057866,63.1031002 C189.660166,63.1031002 190.150666,63.9751002 190.150666,65.2504001 L190.150666,67.3650001 L190.216066,69 L189.583866,69 Z M187.621866,68.455 C188.690066,68.455 189.180566,67.8773 189.387666,67.5394001 L189.387666,65.9589001 L187.709066,66.2314001 C186.967867,66.3622001 186.520967,66.7219001 186.520967,67.3759001 L186.520967,67.4740001 C186.520967,67.9863 186.847967,68.455 187.621866,68.455 Z M191.247603,69 L192.010603,69 L192.010603,60.2800003 L191.247603,60.2800003 L191.247603,69 Z M200.519539,69 L200.519539,64.8144001 C200.519539,63.7244002 199.941839,63.1031002 198.906339,63.1031002 C197.968939,63.1031002 197.391239,63.5391002 197.086039,64.0623002 C196.868039,63.4410002 196.355739,63.1031002 195.592739,63.1031002 C194.688039,63.1031002 194.121239,63.5173002 193.805139,64.0078002 L193.696139,63.2230002 L193.063939,63.2230002 L193.129339,64.8580001 L193.129339,69 L193.892339,69 L193.892339,64.6618002 C194.132139,64.2912002 194.524539,63.7898002 195.331139,63.7898002 C195.985139,63.7898002 196.442939,64.0405002 196.442939,64.9234001 L196.442939,69 L197.205939,69 L197.205939,64.6618002 C197.445739,64.2912002 197.838139,63.7898002 198.644739,63.7898002 C199.298739,63.7898002 199.756539,64.0405002 199.756539,64.9234001 L199.756539,69 L200.519539,69 Z M205.104475,69 L204.984575,68.1934 C204.603075,68.6948 203.949075,69.1199 202.946275,69.1199 C201.888975,69.1199 201.278575,68.4659 201.278575,67.5394001 L201.278575,67.4304001 C201.278575,66.1769001 202.226875,65.8172001 203.164275,65.6755001 L204.908275,65.4030001 L204.908275,65.2504001 C204.908275,64.2585002 204.592175,63.7462002 203.567575,63.7462002 C202.477575,63.7462002 202.226875,64.3784002 202.226875,65.1305001 L201.496575,65.1305001 L201.496575,65.0324001 C201.496575,64.1604002 201.878075,63.1031002 203.578475,63.1031002 C205.180775,63.1031002 205.671275,63.9751002 205.671275,65.2504001 L205.671275,67.3650001 L205.736675,69 L205.104475,69 Z M203.142475,68.455 C204.210675,68.455 204.701175,67.8773 204.908275,67.5394001 L204.908275,65.9589001 L203.229675,66.2314001 C202.488475,66.3622001 202.041575,66.7219001 202.041575,67.3759001 L202.041575,67.4740001 C202.041575,67.9863 202.368575,68.455 203.142475,68.455 Z M208.817411,68.4768 C207.672911,68.4768 207.356811,67.8664 207.356811,67.2342001 L206.593811,67.2342001 L206.593811,67.2778001 C206.593811,68.1607 207.182411,69.1199 208.817411,69.1199 C210.245311,69.1199 211.041011,68.4223 211.041011,67.4195001 L211.041011,67.3650001 C211.041011,66.3077001 210.419711,65.8935001 208.970011,65.7736001 C207.716511,65.6755001 207.433111,65.3485001 207.433111,64.7490001 C207.433111,64.1059002 207.945411,63.7462002 208.817411,63.7462002 C209.896511,63.7462002 210.223511,64.2585002 210.223511,65.0869001 L210.975611,65.0869001 L210.975611,65.0433001 C210.975611,63.9097002 210.397911,63.1031002 208.817411,63.1031002 C207.465811,63.1031002 206.670111,63.7462002 206.670111,64.7490001 L206.670111,64.8144001 C206.670111,65.6755001 207.117011,66.2205001 208.675711,66.3513001 C209.798411,66.4494001 210.256211,66.6347001 210.256211,67.4195001 C210.256211,68.0626 209.754811,68.4768 208.817411,68.4768 Z M215.818184,63.1031002 C216.624784,63.1031002 217.137084,63.4519002 217.453184,63.8879002 L217.453184,60.2800003 L218.216184,60.2800003 L218.216184,67.3650001 L218.281584,69 L217.638484,69 L217.529484,68.2261 C217.235184,68.7166 216.690184,69.1199 215.818184,69.1199 C214.237684,69.1199 213.605484,67.8446 213.605484,66.2423001 L213.605484,65.9807001 C213.605484,64.3784002 214.237684,63.1031002 215.818184,63.1031002 Z M215.981684,68.4332 C216.766484,68.4332 217.213384,67.9209 217.453184,67.5394001 L217.453184,64.6836002 C217.213384,64.3021002 216.766484,63.7898002 215.981684,63.7898002 C214.891684,63.7898002 214.379384,64.6400002 214.379384,65.9807001 L214.379384,66.2423001 C214.379384,67.583 214.891684,68.4332 215.981684,68.4332 Z M223.93472,66.4276001 L219.84722,66.4276001 C219.87992,67.692 220.41402,68.4768 221.56942,68.4768 C222.72482,68.4768 223.20442,67.7683 223.20442,67.1470001 L223.93472,67.1470001 L223.93472,67.1906001 C223.93472,68.0844 223.19352,69.1199 221.56942,69.1199 C219.82542,69.1199 219.07332,67.8337 219.07332,66.2314001 L219.07332,65.9916001 C219.07332,64.3893002 219.82542,63.1031002 221.51492,63.1031002 C223.20442,63.1031002 223.93472,64.3893002 223.93472,65.9916001 L223.93472,66.4276001 Z M221.50402,63.7462002 C220.41402,63.7462002 219.87992,64.5419002 219.84722,65.7954001 L223.16082,65.7954001 C223.11722,64.5419002 222.60492,63.7462002 221.50402,63.7462002 Z M229.572992,69.1199 C230.924592,69.1199 231.709392,68.6185 232.167192,68.1389 L232.167192,64.8144001 L229.921792,64.8144001 L229.921792,65.5120001 L231.382392,65.5120001 L231.382392,67.7574 C231.077192,68.0844 230.488592,68.4114 229.627492,68.4114 L229.551192,68.4114 C227.992492,68.4114 227.294892,67.3868001 227.294892,64.9670001 L227.294892,64.5310002 C227.294892,62.1112002 228.025192,61.0866003 229.463992,61.0866003 L229.529392,61.0866003 C230.837392,61.0866003 231.371492,61.8387003 231.371492,63.5936002 L232.167192,63.5936002 L232.167192,63.2884002 C232.167192,61.3700003 231.284292,60.3781003 229.463992,60.3781003 C227.523792,60.3781003 226.477392,61.5880003 226.477392,64.5310002 L226.477392,64.9670001 C226.477392,67.91 227.523792,69.1199 229.572992,69.1199 Z M234.190629,68.019 L233.209629,68.019 L233.209629,69 L234.190629,69 L234.190629,68.019 Z M235.908865,64.9670001 L235.908865,64.5310002 C235.908865,62.1112002 236.562865,61.0866003 237.979865,61.0866003 L238.056165,61.0866003 C239.331465,61.0866003 239.865565,61.8387003 239.865565,63.5936002 L240.672165,63.5936002 L240.672165,63.2884002 C240.672165,61.3700003 239.800165,60.3781003 237.990765,60.3781003 C236.039665,60.3781003 235.102265,61.5880003 235.102265,64.5310002 L235.102265,64.9670001 C235.102265,67.91 236.039665,69.1199 237.990765,69.1199 C239.800165,69.1199 240.672165,68.128 240.672165,66.3404001 L240.672165,66.2314001 L239.865565,66.2314001 C239.865565,67.6375 239.331465,68.4114 238.056165,68.4114 L237.979865,68.4114 C236.551965,68.4114 235.908865,67.3868001 235.908865,64.9670001 Z M242.488501,68.019 L241.507501,68.019 L241.507501,69 L242.488501,69 L242.488501,68.019 Z" id="Avda.-Mesa-y-López," fill="#464646"></path>
            </g>
        </g>
    </g>
</svg>