<svg width="99" height="381" xmlns="http://www.w3.org/2000/svg" xmlns:xlink="http://www.w3.org/1999/xlink"><defs><path id="a" d="M0 0h424.53v399.362H0z"/><path d="M26.167.029c-1.944 0-3.82.06-5.575.154 1.583.8 3.217 3.028 3.02 4.672-1.453-2.65-4.946-3.84-8.343-3.84-2.023 0-4.011.421-5.516 1.21 1.722 1.854 3.53 4.865 3.937 7.33-.5-3.032-4.441-6.46-8.97-6.46-1.498 0-3.06.375-4.584 1.263 10.726 2.366.932 39.712 12.048 53.821-2.852-3.621-4.32-8.778-5.12-14.474 2.383 5.486 8.778 10.064 16.002 11.705 1.011-.33 2.052-.672 3.103-1.023-4.926-1.736-9.494-3.89-11.101-7.646-3.162-7.386-3.262-21.281 4.069-29.235 3.094-3.359 8.865-8.02 11.482-8.041h.017c.342 0 .957.068 1.767.203.312-2.562.457-5.49.21-8.345l.004.003c-.03-.355-.068-.71-.111-1.06A80.927 80.927 0 0 0 26.167.03m17.644 2.298c-.735 3.253-1.057 6.867-1.02 10.227 3.366 1.31 6.558 3.017 8.3 5.088.65.772 1.23 2.192 1.71 3.996-.693-6.582-2.755-13.537-6.446-18.392a33.314 33.314 0 0 0-2.544-.919M19.457 56.574c-.767.04-1.324.239-1.714.546l1.714-.546m-7.269 1.61l.011.015-.01-.014m.019.025a.143.143 0 0 1 .007.008l-.007-.008m.02.025l.001.002-.002-.002" id="c"/><linearGradient x1="81.368%" y1="91.905%" x2="90.511%" y2="79.442%" id="e"><stop stop-color="#401F1A" offset="0%"/><stop stop-color="#281514" offset="100%"/></linearGradient><path id="f" d="M0 0h424.53v399.362H0z"/><path d="M.505.61c.248 2.854.103 5.783-.21 8.344h.003C.61 6.394.756 3.467.509.612L.505.61" id="h"/><linearGradient x1="81.368%" y1="91.905%" x2="90.511%" y2="79.442%" id="j"><stop stop-color="#3C1A16" offset="0%"/><stop stop-color="#261413" offset="100%"/></linearGradient><path id="k" d="M0 0h424.53v399.362H0z"/><path d="M8.436.393A8.019 8.019 0 0 0 .522 9.754c.665 3.907 4.062 6.666 7.896 6.666a8 8 0 0 0 1.346-.113 7.989 7.989 0 0 0 2.047-.636c1.755-3.777 2.638-8.497 2.408-12.808A8.023 8.023 0 0 0 8.436.393" id="m"/><radialGradient cx="90.051%" cy="85.855%" fx="90.051%" fy="85.855%" r=".168%" gradientTransform="matrix(.94072 0 0 1 .053 0)" id="o"><stop stop-color="#F68C61" offset="0%"/><stop stop-color="#F89C6C" offset="100%"/></radialGradient><path d="M2.803.01c.23 4.312-.653 9.031-2.408 12.808a8.015 8.015 0 0 0 3.137-2.607c.28-.982.5-2.012.657-3.096.194-1.338.313-2.79.351-4.312A7.935 7.935 0 0 0 2.803.01" id="p"/><radialGradient cx="90.051%" cy="85.855%" fx="90.051%" fy="85.855%" r=".168%" gradientTransform="matrix(.94072 0 0 1 .053 0)" id="r"><stop stop-color="#F57850" offset="0%"/><stop stop-color="#F6885A" offset="100%"/></radialGradient><path d="M5.326.519a8.04 8.04 0 0 0-1.35.114 7.55 7.55 0 0 0-.9.218C.963 5.082.123 10.02.19 14.638l.006.003a34 34 0 0 1 .561-6.704c-.074 2.332-.028 4.9.205 7.28a7.897 7.897 0 0 0 5.688 1.218c4.368-.743 7.307-4.877 6.559-9.24C12.555 3.281 9.164.518 5.326.518" id="s"/><radialGradient cx="83.741%" cy="85.687%" fx="83.741%" fy="85.687%" r=".168%" gradientTransform="matrix(.94072 0 0 1 .05 0)" id="u"><stop stop-color="#F68C61" offset="0%"/><stop stop-color="#F89C6C" offset="100%"/></radialGradient><path d="M.758.092a34 34 0 0 0-.562 6.704c.245.208.501.4.767.577C.73 4.993.684 2.423.758.092" id="v"/><radialGradient cx="83.741%" cy="85.687%" fx="83.741%" fy="85.687%" r=".168%" gradientTransform="matrix(.94072 0 0 1 .05 0)" id="x"><stop stop-color="#F57850" offset="0%"/><stop stop-color="#F6885A" offset="100%"/></radialGradient><path id="y" d="M0 0h424.53v399.362H0z"/><path d="M28.312.375c1.368.658 2.615 1.538 3.744 2.594.778.727 1.5 1.537 2.17 2.417 3.69 4.854 5.753 11.81 6.447 18.391.222 2.108.305 4.175.256 6.125a36.553 36.553 0 0 1-.352 4.313 23.677 23.677 0 0 1-.657 3.096c-1.498 5.246-4.732 9.147-9.527 12.819-1.775 1.358-9.289 4.046-16.353 6.397-1.051.35-2.092.692-3.103 1.022 1.35.306 2.73.51 4.116.6.304.019.603.027.895.027 4.056 0 6.964-1.801 9.794-3.601 2.83-1.802 5.582-3.603 9.325-3.603.178 0 .358.004.542.013.694 4.012 2.99 5.32 5.517 5.32 2.829 0 5.946-1.64 7.43-2.955 0 0 1.176 4.273 3.249 4.273.801 0 1.737-.638 2.79-2.408-1.257 2.709-2.936 5.42-5.23 8.159 8.675-10.353 8.73-20.289 9.29-31.33.78-15.326.71-26.446-7.21-27.839.827 1.567 1.045 5.808.977 9.475-.135-5.145-1.673-9.344-2.931-10.217-1.672-1.161-6.665-1.973-11.938-1.973 0 0 4.61 2.932 5.054 8.07-2.262-4.784-5.177-7.371-9.933-8.534-1.308-.319-2.753-.531-4.362-.65m4.299 57.777c-3.613 0-7.612 3.203-11.48 4.434 0 0-7.443-3.876-13.497-3.881h-.006c-.103 0-.203.002-.3.008l-1.714.545c-2.143 1.688.726 6.672.85 6.925C3.598 64.02 1.3 61.894.512 60.872c1.844 2.394 11.942 10.818 18.317 11.705a25.8 25.8 0 0 0 3.515.223c9.134 0 22.01-3.836 26.726-9.083-1.48 1.646-3.767 3.153-6.485 4.447 1.878-3.284 2.533-8.704-.64-8.705-.997 0-2.371.536-4.206 1.842-1.564-2.324-3.295-3.148-5.127-3.148m16.752 5.223l-.022.026a.6.6 0 0 1 .022-.026m-.028.032a.188.188 0 0 1-.018.02l.018-.02m-.027.033l-.026.031-.016.019a.126.126 0 0 1 .016-.019l.026-.031m-.047.056l-.01.011.01-.01m-.016.018a.11.11 0 0 0-.011.013l.01-.013m-.016.018c-.004.007-.01.012-.015.017.006-.005.011-.01.015-.017M49.19 63.58l-.008.01.008-.01m-.015.018l-.015.016.015-.016m-.02.023l-.011.012a.118.118 0 0 0 .01-.012m-.017.02a.137.137 0 0 1-.01.011l.01-.012m-.015.019l-.034.037.034-.037m-.036.04l-.016.017a.396.396 0 0 1 .016-.017" id="A"/><linearGradient x1="82.304%" y1="86.84%" x2="96.076%" y2="86.84%" id="C"><stop stop-color="#401F1A" offset="0%"/><stop stop-color="#281514" offset="100%"/></linearGradient><path id="D" d="M0 0h424.53v399.362H0z"/><path d="M.643.203c.8 5.696 2.267 10.853 5.12 14.474l.004.006.01.014.01.011a.026.026 0 0 0 .007.009.17.17 0 0 0 .012.016l.002.002c.132.166.268.33.406.49.483-.157 2.423-.756 5.107-1.607.39-.307.947-.505 1.715-.545 1.129-.36 2.345-.752 3.609-1.165C9.42 10.268 3.025 5.69.643.203" id="F"/><linearGradient x1="81.368%" y1="91.905%" x2="90.511%" y2="79.442%" id="H"><stop stop-color="#532A21" offset="0%"/><stop stop-color="#3B1D18" offset="100%"/></linearGradient><path id="I" d="M0 0h424.53v399.362H0z"/><path d="M35.067.338c-3.743 0-6.495 1.802-9.325 3.603-2.83 1.8-5.738 3.602-9.794 3.602-.292 0-.59-.009-.895-.028a26.265 26.265 0 0 1-4.116-.6c-1.264.413-2.48.805-3.61 1.165.098-.005.197-.007.3-.007h.007c6.054.005 13.497 3.88 13.497 3.88 3.867-1.23 7.867-4.434 11.48-4.434 1.831 0 3.563.825 5.127 3.148 1.834-1.305 3.21-1.841 4.206-1.841 3.172 0 2.518 5.42.64 8.704 2.718-1.293 5.005-2.8 6.484-4.447l.001-.001a.396.396 0 0 1 .016-.018l.003-.003.033-.037.005-.006.01-.012.007-.008.01-.012.006-.006.016-.017.006-.008.009-.01.007-.009a.072.072 0 0 0 .009-.01l.006-.008.016-.018.005-.005.011-.013a.043.043 0 0 0 .006-.008l.01-.01c.001-.003.004-.005.006-.007l.016-.019.026-.031.01-.012a.162.162 0 0 0 .017-.02l.006-.007.022-.026s0-.002.002-.002c2.294-2.74 3.973-5.45 5.23-8.159-1.053 1.77-1.989 2.408-2.79 2.408-2.073 0-3.249-4.272-3.249-4.272-1.484 1.315-4.601 2.954-7.43 2.954-2.526 0-4.823-1.308-5.517-5.32a11.43 11.43 0 0 0-.542-.013M5.614 8.626c-2.684.85-4.625 1.45-5.108 1.606.002.002.004.004.004.006.789 1.023 3.087 3.147 5.955 5.312-.125-.252-2.994-5.237-.852-6.924" id="K"/><linearGradient x1="82.304%" y1="86.84%" x2="96.076%" y2="86.84%" id="M"><stop stop-color="#532A21" offset="0%"/><stop stop-color="#3B1D18" offset="100%"/></linearGradient></defs><g fill="none" fill-rule="evenodd"><g transform="matrix(1 0 0 -1 -325.737 383.728)"><mask id="b" fill="#fff"><use xlink:href="#a"/></mask><g mask="url(#b)" fill-rule="nonzero"><path d="M400.716 3.257c-6.553 0-14.13.699-22.264 2.544-3.332.755-7.892.946-12.74.946-2.462 0-4.997-.049-7.485-.099-2.487-.049-4.927-.098-7.194-.098-7.064 0-12.462.477-12.479 2.915-.016 2.523 13.377 3.63 39.317 3.662a9.47 9.47 0 0 0 .52-.166c.003.055.005.112.006.167h.617c26.685 0 45.189-1.64 45.189-4.608 0-2.02-9.372-5.263-23.487-5.263" fill="#CBC9C7"/><path d="M373.475 25.991l-5.775-1.65a345.317 345.317 0 0 1-7.225-9.485c-4.887-1.921-13.193-3.918-16.832-5.361 11.964-1.416 27.518.542 35.3 1.587-2.76 4.132-5.902 10.463-5.468 14.91" fill="#1B1919"/><path d="M358.227 9.53c-3.874.365-7.284 4.46-14.08 1.934-1.972-.507-2.718-2.465-2.718-2.465 11.523-.663 20.813-.994 37.876 1.384.004 3.773-6.204-.853-21.078-.853M363.467 14.584c1.336-.713 1.64-1.08 1.298-1.298-1.123-.71-3.182 1.845-5.213 1.22-.097.406 1.76 1.224 3.915.078" fill="#F6CDA1"/><path d="M359.052 14.096c1.112-.094 3.406-1.638 2.33-2.093-1.221-.518-1.927 2.024-5.36 1.324.144.397 1.355.913 3.03.769M357.808 11.519c.264-.51-.669-.74-1.21-.479-.602.284-1.638 1.681-4.68 1.052 2.003 1.367 5.054 1.074 5.89-.573" fill="#F6CDA1"/><path d="M414.283 15.872c-2.745 1.132-10.842 1.87-11.107 1.624.676-7.966-13.767-5.258-16.048-12.124 8.589-.275 21.786-.019 30.313 2.817-1.218 3.805-3.158 7.683-3.158 7.683" fill="#1B1919"/><path d="M403.176 6.663c-2.55.363-6.983 5.895-14.414 2.336-1.634-.793-2.583-3.828-2.583-3.828 10.612 0 22.867-1.505 31.74 2.711 0 3.772-5.704-1.868-14.743-1.219M403.808 12.272c1.43-.463 2.7-1.172 2.433-1.654-.703-.733-2.138.547-3.357.996-1.32.484-2.787.685-4.139.255.051.225 1.043 1.702 5.063.403M406.048 13.675c1.43-.465 2.443-1.09 2.174-1.57-.703-.734-1.88.459-3.1.91-1.318.488-3.17.56-3.948.117.049.227.851 1.842 4.874.543" fill="#F6CDA1"/><path d="M400.251 11.15c1.159-.364 2.647-1.146 2.428-1.536-.792-.634-2.507.648-3.493 1.015-1.067.39-2.455.44-3.688.161.043.183 1.505 1.413 4.753.36" fill="#F6CDA1"/><path d="M416.982 16.13c-.442.777-1.392.094-1.698 1.436-.165.717.36 1.046.233 1.9-.164 1.065-1.433 3.262-1.775 4.474-5.477 19.385-3.825 41.643-8.532 62.608-1.453 6.469-15.363 27.565-15.617 30.602-2.322 27.733 14.529 55.332 12.408 79.632-.608 6.981-4.91 22.032-9.226 27.54-.837-.113-30.317-1.309-43.816-2.107-1.98-3.545-4.448-15.771-5.214-19.674-2.69-13.711 1.656-39.483 9.608-76.272 1.185-5.475 4.244-18.08 4.508-19.665 2.316-13.895 2.192-21.769 3.418-37.078.608-7.595 3.577-22.956 3.483-41.498-.012-1.94-4.23-5.108-3.1-6.254 1.754-1.777-.11-3.63-1.295-4.714.758-.946 14.635-2.9 18.024-4.1.135 3.144-.573 5.797-.563 5.812-.068.151-.283.122-.538.092-.394-.044-.884-.09-1.083.525-.268.827 1.019 1.82.772 2.853-.36 1.5-2.126 2.304-2.162 3.75-.234 9.735 1.391 42.385 1.492 51.489.06 5.299-.348 13.134-1.728 17.98-1.769 6.212-6.31 17.645-6.906 24.228-1.53 16.97.538 69.145 1.082 73.45.622.047 5.39-1.22 5.673-1.294 2.426-1.294-1.78-61.458 1.379-75.78.551-2.499 2.255-7.026 4.156-11.662 4.815-11.742 20.71-58.487 23.211-78.412.14-1.119-.8-1.267-.702-2.206.144-1.373 1.055-1.25 1.237-1.697.539-1.31-2.03-2.854-2.03-2.854-.167-1.055 1.173-1.668.547-3.103 2.947-1.718 10.883-2.498 14.16-2.756.548 1.165.594 2.756.594 2.756" fill="#222328"/><path d="M358.155 113.566c-4.57 17.96-13.7 53.555-13.7 83.272 4.258 3.976 8.255 7.413 11.724 13.87 3.796-1.135 5.711-1.918 9.024-3.179.01-.116.023-.232.034-.348.133-1.185.33-2.364.596-3.528.532-2.322 1.34-3.477 2.39-5.526l.803-1.565.122 1.836c.071 1.142.178 1.193.274 2.336l.373 3.415.21 1.603c.726-.26 1.51-.54 2.364-.837.125-.045.295-.064.504-.064 2.083 0 7.86 1.98 7.86 1.98 4.543-5.243 9.879-7.458 13.793-8.73-.832-.297-2.263-.412-3.9-.412-3.353 0-7.567.486-9.243.896 1.128-3.674 16.385-1.714 16.228-6.162-.489-13.625-14.365-56.737-14.758-61.975-.098-1.285-2.274-6.182-4.025-6.182-.658 0-1.256.69-1.662 2.524-4.46 20.132.158 64.448 2.946 66.23-3.581.47-11.114 2.323-13.66 3.404-.782.335-7.196.97-9.43 2.435 3.493-3.78 7.262-7.592 7.322-8.867.672-14.69 1.35-46.45 0-70.072.648-3.894-6.189-6.354-6.189-6.354m10.167 85.73a38.41 38.41 0 0 0-1.705 4.663 50.81 50.81 0 0 0-.87 3.35l-.004.015c1.045-.396 2.233-.839 3.652-1.352-.122-.548-.236-1.1-.339-1.65a63.298 63.298 0 0 1-.553-3.438 43.884 43.884 0 0 1-.181-1.587" fill="#2C2F37"/><path d="M370.005 205.752c-.208.074-.411.147-.61.22.128.575.265 1.15.408 1.717.284 1.034.56 2.063.9 3.065l.04-.001c-.162-1.072-.348-2.132-.491-3.197-.085-.601-.167-1.204-.247-1.805m-4.261 1.573l-.541.205a41.6 41.6 0 0 0-.195 3.22c.257-1.146.459-2.298.736-3.425" fill="#494B52"/><path d="M369.026 196.562l-.802 1.565c-1.051 2.049-1.86 3.204-2.391 5.526a31.853 31.853 0 0 0-.596 3.528l-.034.348.54-.205.004-.014a50.81 50.81 0 0 1 .87-3.351 38.41 38.41 0 0 1 1.706-4.662c.053.534.11 1.063.181 1.587.156 1.153.334 2.302.553 3.437.103.552.217 1.103.338 1.65l.61-.22-.21-1.602-.372-3.415c-.097-1.143-.203-1.194-.275-2.336l-.122-1.836" fill="#51565F"/></g></g><g transform="matrix(1 0 0 -1 11.033 71.37)"><mask id="d" fill="#fff"><use xlink:href="#c"/></mask><g mask="url(#d)"><path d="M0 0h424.53v399.362H0z" fill-rule="nonzero" fill="url(#e)" transform="translate(-336.77 -312.358)"/></g></g><g transform="matrix(1 0 0 -1 -325.737 383.728)"><mask id="g" fill="#fff"><use xlink:href="#f"/></mask><g mask="url(#g)" fill-rule="nonzero"><path d="M380.032 330.76c-1.648-10.063.83-28.288 10.093-26.44-3.504-14.107-25.25-15.609-29.264-3.456 12.357 2.848 8.33 24.673 6.727 28.346l12.444 1.55" fill="#F89C6D"/><path d="M363.002 301.617c-.002.004-.003.01-.006.014.133.065.262.133.39.204l.002-.017a9.235 9.235 0 0 0-.386-.201" fill="#F6B899"/><path d="M371.6 296.094c-1.113 0-2.178.123-3.165.392a11.885 11.885 0 0 1 2.577-.265c3.595 0 8.192 1.345 13.206 4.304.593.35 2.827 1.584 4.899 3.05-3.441-3.533-11.22-7.48-17.518-7.48m-7.566 3.44a8.759 8.759 0 0 0-1.03 2.082c.13.064.259.131.385.2.071-.85.292-1.612.645-2.282" fill="#F46D41"/></g></g><g transform="matrix(1 0 0 -1 43.14 70.657)"><mask id="i" fill="#fff"><use xlink:href="#h"/></mask><g mask="url(#i)"><path d="M0 0h424.53v399.362H0z" fill-rule="nonzero" fill="url(#j)" transform="translate(-368.877 -313.071)"/></g></g><g transform="matrix(1 0 0 -1 -325.737 383.728)"><mask id="l" fill="#fff"><use xlink:href="#k"/></mask><g mask="url(#l)" fill-rule="nonzero"><path d="M369.386 313.683c.247 2.855.101 5.781-.211 8.342 2.397.4 6.507 1.38 10.385 2.887a48.439 48.439 0 0 1 .237-5.317c-2.67-1.643-6.267-3.667-10.41-5.912" fill="#F46D41"/><path d="M351.837 359.099c2.399 5.606 11.394 7.644 18.327 10.05 5.82-2.155 13-4.913 18.933-12.062 3.443-4.154 1.932-23.32-1.235-27.087-4.442-5.279-18.291-8.193-20.473-8.177-2.617.02-8.388 4.682-11.482 8.041-7.331 7.954-7.231 21.849-4.07 29.235" fill="#F89C6D"/><path d="M383.448 326.693c2.947 2.077 4.402 6.135 4.643 10.635a7.935 7.935 0 0 1 1.737 2.792 47.373 47.373 0 0 0-.256-6.124c-.481-1.804-1.061-3.224-1.71-3.996-1.036-1.23-2.587-2.331-4.376-3.296l-.038-.011m5.371 20.836a8.015 8.015 0 0 1-3.136 2.607c-.06.13-.122.26-.185.387-2.988 4.388-10.005 11.15-21.04 15.077a1.3 1.3 0 0 1-.429.063c-2.184 0-8.387-3.52-11.827-9.932-.852-1.587-1.36-4.052-1.626-6.762a8.21 8.21 0 0 1-.767-.576c.057 4.059.813 7.864 2.028 10.706 1.607 3.756 6.176 5.91 11.102 7.646 7.064-2.35 14.579-5.038 16.353-6.397 4.796-3.671 8.029-7.573 9.527-12.819" fill="#F68859"/></g></g><g transform="matrix(1 0 0 -1 48.134 49.262)"><mask id="n" fill="#fff"><use xlink:href="#m"/></mask><g mask="url(#n)"><path d="M0 0h424.53v399.362H0z" fill-rule="nonzero" fill="url(#o)" transform="translate(-373.872 -334.465)"/></g></g><g transform="matrix(1 0 0 -1 59.55 46.41)"><mask id="q" fill="#fff"><use xlink:href="#p"/></mask><g mask="url(#q)"><path d="M0 0h424.53v399.362H0z" fill-rule="nonzero" fill="url(#r)" transform="translate(-385.287 -337.318)"/></g></g><g transform="matrix(1 0 0 -1 23.876 49.975)"><mask id="t" fill="#fff"><use xlink:href="#s"/></mask><g mask="url(#t)"><path d="M0 0h424.53v399.362H0z" fill-rule="nonzero" fill="url(#u)" transform="translate(-349.613 -333.752)"/></g></g><g transform="matrix(1 0 0 -1 23.876 42.13)"><mask id="w" fill="#fff"><use xlink:href="#v"/></mask><g mask="url(#w)"><path d="M0 0h424.53v399.362H0z" fill-rule="nonzero" fill="url(#x)" transform="translate(-349.613 -341.597)"/></g></g><g transform="matrix(1 0 0 -1 -325.737 383.728)"><mask id="z" fill="#fff"><use xlink:href="#y"/></mask><g mask="url(#z)" fill-rule="nonzero"><path d="M368.772 327.713c-4.292 0-5.156 2.387-5.845 3.657.886-1.228 1.288-2.549 4.273-2.917.352-.042.75-.068 1.173-.068 1.837 0 4.134.491 5.118 2.22.284.608.53 1.057.742 1.39-.236-.467-1.07-4.133-5.04-4.274a10.627 10.627 0 0 0-.421-.008M361.367 332.134c-1.872 0-2.328 1.528-.762 2.726-.212-.626.432-1.442 1.189-1.855-.538.096-.984.311-1.289.706.026-.641.594-1.165 1.498-1.569-.269-.001-.436-.002-.474-.004a4.175 4.175 0 0 0-.162-.004m13.226.075c.841.411 1.365.942 1.393 1.596-.313-.302-.698-.478-1.15-.57.357.244 1.112.734.876 1.763 2.027-1.76.381-2.676-1.048-2.785l-.071-.004" fill="#F68958"/><path d="M361.574 332.65c2.299-1.39 1.528-3.692 5.626-4.197 1.885-.229 5.08.025 6.29 2.152.494 1.054.87 1.63 1.16 1.95l-13.076.096" fill="#F04138"/><path d="M367.91 333.553c-2.555-.045-6.155-1.459-7.405.158.14-3.382 15.335-3.499 15.48.095-.933-.902-2.503-.678-4.607-.452-1.032.11-2.191.22-3.468.199" fill="#E7322A"/><path d="M368.047 331.494c-2.556-.041-6.95.34-7.542 2.217.14-3.382 15.335-3.499 15.48.095-.539-1.808-4.068-2.242-7.938-2.312" fill="#CE2524"/><path d="M370.73 329.506a.414.414 0 0 0-.34.146c-.136.161-.415.815.083 1.102.222.123 1.813.408 2.397.408.148 0 .23-.018.21-.063-.128-.26-1.58-1.593-2.35-1.593" fill="#F25141"/><path d="M370.58 331.878l-.062.002c-.33.034-.479.598-.172.8.08.048.263.07.493.07.685 0 1.797-.19 1.927-.41.094-.17-1.686-.462-2.186-.462" fill="#EB4134"/><path d="M367.733 336.752c-.517 0-1.041.056-1.568.174-.603.14-1.22.378-1.8.819-.56.436-1.054 1.235-1.04 2.047l.007.286s2.217 1.631 3.099 4.844c.397-2.48-1.492-4.632-1.969-5.368.057-.252 1.315-2.098 5.263-2.524a7.382 7.382 0 0 0-1.992-.278" fill="#F1532C"/><path d="M355.674 352.161c4.223.556 6.731-4.634 6.731-4.634-2.15-1.15-6.244-.853-8.024.37-1.474 1.02-2.498 2.498 1.293 4.264" fill="#F8E8C6"/><path d="M355.374 350.046a2.697 2.697 0 0 0 .617 1.916c1.882.198 3.588-.752 4.77-1.696a2.689 2.689 0 0 0-2.488-2.713 2.706 2.706 0 0 0-2.9 2.493" fill="#7C7F24"/><path d="M356.32 350.115a1.757 1.757 0 0 1 3.502.262 1.757 1.757 0 0 1-3.503-.262" fill="#3D1D15"/><path d="M354.702 349.043a.93.93 0 1 1 .858.996.93.93 0 0 1-.858-.996" fill="#F8E8C6"/><path d="M353.747 351.558c.402.377.887.653 1.395.843 1.016.372 2.137.491 3.272.152a6.18 6.18 0 0 0 2.673-1.79c.703-.803 1.182-1.811 1.268-2.842-.592.85-1.23 1.549-1.953 2.13-.735.569-1.538 1.032-2.377 1.317-.775.261-1.725.248-2.624.105-.865-.188-1.847-.425-2.302-1.357-.06.526.255 1.074.648 1.442" fill="#3D1D15"/><path d="M353.925 357.505c.99.396 2.062.52 3.118.442 1.052-.102 2.108-.413 3.003-1.004.89-.577 1.617-1.452 1.872-2.444-1.414 1.455-3.163 2.042-4.98 2.2a9.855 9.855 0 0 1-2.73-.133c-.906-.182-1.787-.479-2.631-1.048.451.929 1.378 1.602 2.348 1.987" fill="#522016"/><path d="M378.546 352.31c2.931.62 6.282-.56 6.641-3.002-2.664-3.206-6.34-3.37-11.382-1.655-.067 2.494 2.621 4.215 4.74 4.658" fill="#F8E8C6"/><path d="M379.685 347.99a2.7 2.7 0 0 0-1.85 3.343c.178.62.565 1.116 1.058 1.46 1.6-.078 3.146-.635 4.148-1.55.11-.446.125-.926-.009-1.401a2.704 2.704 0 0 0-3.347-1.853" fill="#7C7F24"/><path d="M378.747 351.07a1.75 1.75 0 0 1 1.197-2.171 1.762 1.762 0 0 1 2.177 1.203 1.756 1.756 0 0 1-3.374.967" fill="#3D1D15"/><path d="M376.851 350.624a.93.93 0 1 1 1.153.64.937.937 0 0 1-1.153-.64" fill="#F8E8C6"/><path d="M375.196 351.625c1.083.92 2.486 1.348 3.847 1.45 1.376.074 2.769-.155 4.007-.784.614-.313 1.19-.734 1.624-1.291.43-.553.672-1.29.511-1.94-.275 1.317-1.428 1.942-2.52 2.33a9.404 9.404 0 0 1-3.54.434c-1.18-.069-2.351-.373-3.35-.985-.996-.612-1.769-1.59-2.254-2.805-.038 1.305.582 2.693 1.675 3.59" fill="#3D1D15"/><path d="M375.01 357.304c1.022.615 2.217.921 3.4.978 1.19.029 2.395-.187 3.466-.723 1.054-.516 2.007-1.395 2.365-2.493-.803.804-1.747 1.28-2.734 1.588a9.284 9.284 0 0 1-3.055.373c-2.06-.07-4.057-.756-5.704-2.319.394 1.071 1.242 1.994 2.262 2.596" fill="#522016"/><path d="M378.256 344.571c-4.44.492-7.453 3.052-7.439 7.062 2.834 2.265 15.458 2.748 15.965-3.646-1.982-1.942-4.924-3.813-8.526-3.416zm-21.224-.142c-3.599-.446-6.567 1.383-8.582 3.302.404 6.4 13.036 6.086 15.907 3.857.076-4.009-2.893-6.609-7.325-7.16zm30.381 8.765c-6.81 4.014-14.361 1.52-17.176.864a2.247 2.247 0 0 1-.123-.544c-1.02.56-3.081 1.165-5.08-.054-.032.214-.074.42-.132.562-2.83.617-10.418 3.01-17.164-1.095l-1.867-1.745c.497-1.394 1.084-2.614 2.174-3.409 1.487-3.058 6.157-4.538 9.404-4.063 3.35.493 7.712 2.683 7.66 8.197 1.311 1.555 3.799 1.13 4.95.249-.082-5.676 4.39-7.856 7.79-8.308 3.254-.432 7.898 1.11 9.338 4.19 1.076.808 1.644 2.035 2.118 3.437l-1.892 1.72z" fill="#8C2758"/></g></g><g transform="matrix(1 0 0 -1 23.162 73.51)"><mask id="B" fill="#fff"><use xlink:href="#A"/></mask><g mask="url(#B)"><path d="M0 0h424.53v399.362H0z" fill-rule="nonzero" fill="url(#C)" transform="translate(-348.9 -310.218)"/></g></g><g transform="matrix(1 0 0 -1 -325.737 383.728)"><mask id="E" fill="#fff"><use xlink:href="#D"/></mask><g mask="url(#E)" fill-rule="nonzero" fill="#FEF6F1"><path d="M348.954 370.537l.004.006c-.002 0-.004-.004-.004-.006m.015.02l.009.01a.066.066 0 0 1-.01-.01m.017.02l.012.015c-.004-.005-.009-.01-.012-.016m.014.019"/></g></g><g transform="matrix(1 0 0 -1 17.454 27.868)"><mask id="G" fill="#fff"><use xlink:href="#F"/></mask><g mask="url(#G)"><path d="M0 0h424.53v399.362H0z" fill-rule="nonzero" fill="url(#H)" transform="translate(-343.191 -355.86)"/></g></g><g transform="matrix(1 0 0 -1 -325.737 383.728)"><mask id="J" fill="#fff"><use xlink:href="#I"/></mask><g mask="url(#J)" fill-rule="nonzero" fill="#FEF6F1"><path d="M349.405 371.084a.017.017 0 0 1 .005.006l-.005-.006m48.86 2.508c-.002 0-.003.001-.003.002 0 0 0-.002.002-.002m-.024.028l-.006.007.006-.007m-.024.027l-.01.012c.004-.003.007-.007.01-.012m-.05.062c-.003.002-.005.004-.006.007 0-.003.003-.005.005-.007m-.016.018a.043.043 0 0 0 0 0m-.016.02l-.006.006.006-.006m-.02.023a.02.02 0 0 1-.007.008l.006-.008m-.015.018a.062.062 0 0 0-.008.01.052.052 0 0 0 .008-.01m-.016.019l-.007.009.007-.01m-.022.026l-.006.006.006-.006m-.016.018l-.007.008c.002-.002.005-.004.007-.008m-.018.02c0 .002-.003.004-.004.006.001-.002.004-.004.004-.006m-.038.043l-.002.004.002-.004m-.018.02v.002-.001"/></g></g><g transform="matrix(1 0 0 -1 23.162 22.876)"><mask id="L" fill="#fff"><use xlink:href="#K"/></mask><g mask="url(#L)"><path d="M0 0h424.53v399.362H0z" fill-rule="nonzero" fill="url(#M)" transform="translate(-348.9 -360.852)"/></g></g><path d="M75.31 80.823c-2.455.058-9.074-.54-11.17-.54-4.613 5.899-23.418 14.075-26.99 2.471-2.4 1.008-6.773 1.213-10.067 2.228h-.002s-5.523-.552-11.598 17.112c0 0 3.779 3.84 6.685 6.008a52.208 52.208 0 0 0-2.193 4.981c-.415 1.832.5 8.12 7.09 12.209 1.616 4.179.908 13.474 1.08 18.7.156 4.682-7.648 22.807-8.412 28.125 7.542.913 17.975 2.623 53.128 1.639-2.342-10.365-11.835-27.167-10.691-30.436 4.77-13.668 9.704-26.018 13.722-33.418.328 1.221.658 2.006 1.296 4.13 4.07-2.12 9.2-3.95 14.954-6.817-4.168-11.326-8.926-25.675-16.831-26.392" fill="#7A7B7C" fill-rule="nonzero"/><path d="M28.156 136.172c.005-2.98-.067-6.02-.463-8.41.394 2.38.468 5.402.464 8.37l-.001.04m-.463-8.414c0-.004 0-.007-.002-.01l.002.01m-.625-2.454c0-.004-.003-.009-.004-.012a18.093 18.093 0 0 1-1.601-1.119v-.001c.493.387 1.026.762 1.601 1.12.001.003.004.007.004.012m7.934-41.914c0-.002.002-.004.003-.005a17.39 17.39 0 0 0 1.313-.341v.006c-.407.125-.848.237-1.316.34m39.933-2.564h-.168.168m-.174 0h-.006.006m-.017 0h-.008.008m-.019-.002h-.004.004" fill="#CDCCCA" fill-rule="nonzero"/><path d="M53.514 174.052c-7.221-.002-12.843-.16-17.36-.394 12.76-.63 31.292-8.68 28.234-10.815-3.676 1.948-10.575 5.117-22.794 6.142 6.304-1.117 16.189-4.16 18.226-8.235 0 0-1.881-9.774-2.704-17.43-.254-2.359.178-8.119.851-12.95-3.69-2.779-12.465-3.903-20.013-3.903-3.574 0-6.872.253-9.224.701 0 0-.429 4.235-.573 8.964.004-2.968-.07-5.99-.464-8.37v-.005c0-.004 0-.006-.002-.01-.153-.92-.354-1.743-.617-2.431l-.006-.012c0-.004-.003-.01-.004-.012a18.095 18.095 0 0 1-1.601-1.12 39.6 39.6 0 0 1-.498-.413l-.223-.192-.026-.023a16.768 16.768 0 0 1-.533-.494v.006c-.231-.224-.452-.45-.66-.678-.088-.1-.177-.203-.268-.312a14.9 14.9 0 0 1-1.415-1.915l-.011-.016c-1.471-2.39-1.94-4.708-1.94-6.137 0-.37.032-.68.086-.916a52.208 52.208 0 0 1 2.193-4.98l-.004-.004c2.208-5.433 3.855-7.272 5.146-9.612.287-1.309 2.09-5.301 2.407-6.356.085-.281.179-.557.28-.827l-.028.097s1.295-.74 3.037-1.803c1.063-1.085 2.014-3.73 2.118-4.04 0 0 .187-.5.187-1.007 0-.365-.097-.732-.43-.92l.02-.097.101-.143c.468-.103.909-.215 1.316-.34-.265 3.834-1.194 8.208-1.194 8.208-6.103.872-11.456 15.396-9.95 16.105.215 3.047 12.002 4.11 22.213 4.11 6.52-.001 12.399-.434 14.21-1.061 5.255-1.818 10.82-8.056 10.517-19.287 1.679 7.089 4.507 16.238 5.818 20.408 2.21-.778 9.316-4.17 9.316-4.17-.95-6.764-4.183-19.378-9.608-24.2-3.256-2.893-8.793-1.703-11.073-2.69a.723.723 0 0 0 .248-.074c2.556.153 5.966.408 7.906.425h.004a.033.033 0 0 0 .011.001h.199c.134 0 .26-.001.376-.003 7.905.717 12.663 15.066 16.831 26.392-2.592 1.292-5.056 2.371-7.355 3.363-2.421 1.027-4.758 1.996-5.983 2.65-.555.265-1.095.531-1.616.803-.638-2.123-.969-2.908-1.296-4.129-4.018 7.4-8.953 19.75-13.722 33.417a2.082 2.082 0 0 0-.096.683c.004 3.274 4.606 12.475 7.936 21.005-.814 1.136-1.633 2.158-2.436 3.008-3.737.585-11.008 2.346-12.616 3.167-.222.953-.78 1.942-1.444 2.87m19.341-.295c0-.002.003-.004.004-.006l.002.005-.006.001M22.153 108.09c-1.401-1.047-3.005-2.481-4.29-3.685.39-2.496.768-4.774 1.112-6.6.367 1.91 1.04 2.87 2.021 2.87.958 0 2.212-.917 3.764-2.76-1.168 3.668-2.066 7.232-2.607 10.175" fill="#5E6061" fill-rule="nonzero"/><path d="M18.008 182.18c.384-1.957 1.197-6.01 2.16-10.01-.143-.017-.293-.037-.435-.053.473-3.29 3.638-11.476 5.947-18.353-.87-7.648-.842-18.706-.217-29.592a39.53 39.53 0 0 1-.498-.412l-.223-.193c-.527-.456-.985-.9-1.488-1.5a14.9 14.9 0 0 1-1.414-1.916l-.011-.016c-.096 1.45-.185 2.67-.305 3.608-1.108 8.687-4.377 28.625-7.513 38.718-6.704 12.764-17.056 44.266 3.892 41.528-.919-9.102-.956-16.4.105-21.809M27.31 98.487c.287-1.309 2.09-5.301 2.407-6.356.97-3.22 3.072-5.613 5.407-8.912l-4.178.229c-4.2 7.095-7.522 17.688-8.803 24.705 2.218-5.475 3.871-7.319 5.167-9.666" fill="#C02F80" fill-rule="nonzero"/><path d="M15.463 204.157c-2.904-.001-5.066-.797-6.623-2.184 1.557 1.387 3.719 2.183 6.624 2.183a18.836 18.836 0 0 0 0 .001" fill="#D3A5BE" fill-rule="nonzero"/><path d="M15.464 204.156c-2.905 0-5.067-.796-6.624-2.183l-.006-.007a.009.009 0 0 1-.004-.003l-.01-.009h-.001c-6.04-5.42-2.912-19.76 1.295-30.756l.16-.226c-.812 3.718-3.98 13.497.106 15.214.253.107.502.157.745.157 3.167 0 5.546-8.456 6.53-11.516 6.401-19.891 6.548-46.953 6.528-51.726v-.041c.067.063.133.126.2.186.109.1.22.199.333.299l.026.023.223.192c.159.133.322.269.498.412a264.997 264.997 0 0 0-.453 15.053c0 5.451.208 10.477.67 14.539-2.309 6.877-5.474 15.064-5.946 18.353.141.016.292.036.435.053-.2.836-.396 1.673-.582 2.493a276.458 276.458 0 0 0-1.578 7.517l-.007.036-.003.018-.004.016a.116.116 0 0 0-.004.023c-.526 2.727-.777 5.93-.778 9.597 0 3.597.238 7.64.69 12.119H17.9c-.864.113-1.675.167-2.435.167" fill="#9D225C" fill-rule="nonzero"/><path d="M19.975 113.083a52.21 52.21 0 0 1 2.193-4.981c-1.627-1.213-3.527-2.95-4.885-4.245-9.159 13.077-14.48 25.1-5.19 29.385 2.423-2.775 6.142-8.052 9.372-13.75-1.513-2.769-1.732-5.343-1.49-6.409" fill="#EF6F44" fill-rule="nonzero"/><path d="M34.882 83.63c.385-1.946-1.162-1.298-1.016-1.696.271-.747.124-1.617-1.358-1.945.193-.78-1.018-1.539-1.891-1.46 0 0-4.303-.216-4.525.073-.236.3-9.576 10.054-12.585 12.309-.735 6.801-9.946 26.057-13.02 35.843-.899 2.858 2.034 10.551 4.134 10.526 3.535-.038 9.308-4.39 9.831-8.371.735-5.6 3.79-29.285 5.263-34.472 0 0 4.42-2.479 8.152-4.598 1.268-.72 2.82-.927 2.82-.927s-.296 1.07-.718 2.488c0 0 1.295-.74 3.037-1.802 1.063-1.085 2.014-3.73 2.118-4.04 0 0 .553-1.477-.242-1.928" fill="#F89C6D" fill-rule="nonzero"/><path d="M29.969 91.4c.422-1.418.717-2.488.717-2.488l-.09.014c2.38-.641 2.877-3.337 2.871-3.89-.003-.333-.16-.378-.367-.378l-.124.003a2.476 2.476 0 0 1-.13.004c-.187 0-.381-.03-.528-.219-.406-.524.027-1.236-.35-1.692-.307-.37-.997-.425-1.31-.898-.29-.438.162-1.036-.285-1.455-.391-.364-1.343-.28-1.544-.761-.355-.852-2.24-.398-2.737-1.038.083-.01.198-.047.329-.094.315-.042.826-.057 1.382-.057a65.9 65.9 0 0 1 2.813.077h.001c.042-.003.084-.005.127-.005.793 0 1.783.617 1.785 1.296a.69.69 0 0 1-.02.17c1.105.244 1.467.79 1.467 1.363 0 .194-.042.391-.11.581a.14.14 0 0 0-.01.048c0 .263 1.088-.102 1.088 1.09 0 .158-.019.343-.062.559.332.188.429.555.429.92 0 .507-.187 1.007-.187 1.007-.104.31-1.055 2.955-2.118 4.04-1.742 1.063-3.037 1.803-3.037 1.803" fill="#F57F52" fill-rule="nonzero"/><path d="M67.574 168.015c5.508-5.821 11.675-19.762 12.798-22.457 1.066-2.559 2.26-6.12 3.723-9.582-.064-2.482-3.523-14.111-5.614-22.568 1.9-1.117 8.112-3.451 11.73-5.255 2.164 9.566 5.691 30.48 5.62 31.146-.928 5.45-21.035 28.218-21.937 33.421-3.246 2.675-4.245 8.34-6.156 10.677-2.147-.892-7.523-4.897-8.569-9.127-3.515.48-6.758 4.761-9.013 4.078-.687-.21 4.038-3.891 4.802-7.166 1.608-.82 8.88-2.582 12.616-3.167" fill="#F89C6D" fill-rule="nonzero"/><path d="M91.239 113.013" fill="#F9D5C3" fill-rule="nonzero"/><path d="M78.877 114.915h-.017c-.13-.511-.256-1.016-.379-1.507 1.9-1.117 8.112-3.451 11.73-5.255a212.817 212.817 0 0 1 1.11 5.263c-3.896.285-11.963 1.499-12.444 1.499" fill="#F57F52" fill-rule="nonzero"/></g></svg>