<svg width="89" height="371" xmlns="http://www.w3.org/2000/svg" xmlns:xlink="http://www.w3.org/1999/xlink"><defs><path id="a" d="M0 399.2h410.135V.065H0z"/><path id="c" d="M0 0h410.588v398.798H0z"/><path id="e" d="M0 0h410.588v398.798H0z"/><path id="g" d="M0 399.2h410.135V.065H0z"/><path id="i" d="M0 0h410.588v398.798H0z"/><path id="k" d="M0 0h410.588v398.798H0z"/><path d="M6.685.536c-1.422.233-4.313.27-6.01.27H.191h.495c1.701 0 4.581-.037 5.998-.27" id="m"/><linearGradient x1="14.864%" y1="66.263%" x2="13.195%" y2="64.918%" id="o"><stop stop-color="#F57748" offset="0%"/><stop stop-color="#F89C6C" offset="100%"/></linearGradient><path d="M.474.536c.053.065.11.13.173.193L.646.722l.002-.02L.474.535" id="p"/><linearGradient x1="14.864%" y1="66.263%" x2="13.195%" y2="64.918%" id="r"><stop stop-color="#F2542F" offset="0%"/><stop stop-color="#F46D41" offset="100%"/></linearGradient><path d="M7.375.536c-1.417.233-4.296.27-5.997.27H.882L.304.8.071.878c1.63 3.555 5.046 9.426 5.663 9.987l.146.091.05.02c-.93-.806.326-1.734.336-2.508.01-.496-.52-.798-.538-1.324-.019-.57.289-.811.67-1.172.664-.626.535-.524.153-1.285-.235-.463-.488-1.272-.219-1.798.242-.474.989-.566 1.214-1.114.156-.377.038-.677.001-1.046a3.056 3.056 0 0 1-.172-.193" id="s"/><path id="u" d="M0 0h410.588v398.798H0z"/><path d="M5.914.075A7.196 7.196 0 0 0 .742 2.276c-.506 4.308-.115 8.687.45 10.412a7.176 7.176 0 0 0 4.734 1.775c3.444 0 6.493-2.477 7.09-5.986A7.199 7.199 0 0 0 5.914.075" id="w"/><radialGradient cx="4.973%" cy="83.138%" fx="4.973%" fy="83.138%" r=".168%" gradientTransform="matrix(.97128 0 0 1 .001 0)" id="y"><stop stop-color="#F68C61" offset="0%"/><stop stop-color="#F89C6C" offset="100%"/></radialGradient><path d="M1.433.206c-.387.4-.729.847-1.015 1.333-.362 2.657-.31 5.165.14 7.539a7.22 7.22 0 0 0 1.325 1.54C1.317 8.893.926 4.514 1.433.206" id="z"/><radialGradient cx="4.973%" cy="83.138%" fx="4.973%" fy="83.138%" r=".168%" gradientTransform="matrix(.97128 0 0 1 .001 0)" id="B"><stop stop-color="#F57850" offset="0%"/><stop stop-color="#F6885A" offset="100%"/></radialGradient><path d="M7.403.474A7.19 7.19 0 0 0 .864 4.696v.034l-.007.259s-.062.046-.17.138c-.16.426-.28.872-.358 1.338a7.188 7.188 0 0 0 7.084 8.395 7.093 7.093 0 0 0 3.319-.825c.933-3.193 1.366-7.792.819-12.22A6.953 6.953 0 0 0 8.613.575a7.272 7.272 0 0 0-1.21-.102" id="C"/><radialGradient cx="10.581%" cy="83.434%" fx="10.581%" fy="83.434%" r=".168%" gradientTransform="matrix(.97128 0 0 1 .003 0)" id="E"><stop stop-color="#F68C61" offset="0%"/><stop stop-color="#F89C6C" offset="100%"/></radialGradient><path d="M1.2.434c.547 4.429.114 9.028-.82 12.221a7.205 7.205 0 0 0 1.032-.663c.715-3.237.907-7.115.448-11.018a7.356 7.356 0 0 0-.66-.54" id="F"/><radialGradient cx="10.581%" cy="83.434%" fx="10.581%" fy="83.434%" r=".168%" gradientTransform="matrix(.97128 0 0 1 .003 0)" id="H"><stop stop-color="#F57850" offset="0%"/><stop stop-color="#F6885A" offset="100%"/></radialGradient><path id="I" d="M0 0h410.588v398.798H0z"/><path d="M.864.556C.801.696.741.841.686.988.795.896.856.849.856.849L.865.59V.556" id="K"/><radialGradient cx="10.581%" cy="83.434%" fx="10.581%" fy="83.434%" r=".168%" gradientTransform="matrix(.97128 0 0 1 .003 0)" id="M"><stop stop-color="#EC4B27" offset="0%"/><stop stop-color="#F1542D" offset="100%"/></radialGradient><path id="N" d="M0 0h410.588v398.798H0z"/><path d="M22.841.467c-8.665 4.467-12.673 8.836-16.978 21.88-15.38 9.942 7.359 35.701 12.668 37.965 1.54-.652 1.891-.831 1.952-.876 3.386 2.5 6.66 3.533 9.774 3.533 11.194 0 20.305-13.367 25.083-20.003 9.202-12.787 1.018-31.783-10.367-39.436 3.514 5.023 7.456 9.24 7.527 15.724-1.074-4.833-6.341-10.17-8.632-13.11 1.277 1.718 2.296 3.67 3.08 5.748l.002.003c.928 2.46 1.527 5.09 1.835 7.709.458 3.902.266 7.78-.448 11.017-.318 1.439-.74 2.751-1.253 3.883-3.003 6.62-10.286 8.913-15.139 10.616 1.956-2.627 7.564-6.139 12.399-8.717-5.165 1.703-14.087 4.301-19.016 7.218-6.018-4.537-9.812-9.772-10.97-15.914-.448-2.374-.5-4.882-.139-7.54.4-2.925 1.305-6.03 2.747-9.332l.003-.009C18.393 7.57 20.34 4.122 22.841.467m-11.795 53.11c-3.985-4.625-8.193-10.943-9.781-16.95 8.486 9.09 19.708 11.656 29.669 11.656 12.894 0 23.673-4.298 23.673-4.298-2.644 3.688-6.379 8.859-10.914 12.877-3.806-3.495-13.49-6.04-21.63-6.04-4.624 0-8.747.82-11.017 2.755" id="P"/><path id="R" d="M0 399.2h410.135V.065H0z"/><linearGradient x1="6.678%" y1="93.195%" x2="7.9%" y2="77.025%" id="T"><stop stop-color="#FABC77" offset="0%"/><stop stop-color="#FCD392" offset="100%"/></linearGradient><path d="M.575.06c1.588 6.006 5.796 12.324 9.781 16.948 2.27-1.934 6.393-2.755 11.017-2.755 8.14.002 17.824 2.546 21.63 6.04 4.535-4.017 8.27-9.188 10.914-12.876 0 0-10.78 4.298-23.674 4.298C20.283 11.715 9.061 9.15.575.06" id="U"/><linearGradient x1="6.678%" y1="93.195%" x2="7.9%" y2="77.025%" id="W"><stop stop-color="#FCD0A0" offset="0%"/><stop stop-color="#FDE1B4" offset="100%"/></linearGradient></defs><g fill="none" fill-rule="evenodd"><g transform="matrix(1 0 0 -1 .087 370.812)"><mask id="b" fill="#fff"><use xlink:href="#a"/></mask><g mask="url(#b)"><mask id="d" fill="#fff"><use xlink:href="#c"/></mask><g mask="url(#d)" fill-rule="nonzero" fill="#DFDDDB"><path d="M8.263 0C4.1 0 .507 1.725.009 7.28c-.41 4.59 13.337 14.487 20.516 16a5.597 5.597 0 0 1 1.837-.306c.568 0 1.199.082 1.887.289 3.897-.402 12.576-1.26 18.36-1.555a49.66 49.66 0 0 1 2.565-.06c2.671 0 5.532.169 8.466.338 2.935.17 5.942.338 8.909.338 7.322 0 14.395-1.03 19.488-5.64C95.597 4.411 84.516.922 75.813.922c-2.18 0-4.21.219-5.667.573-7.786 1.893-16.01 8.984-27.201 8.984-7.57 0-20.076-6.535-26.23-8.764C14.158.79 11.08 0 8.264 0"/></g></g></g><g transform="matrix(1 0 0 -1 .087 370.812)"><mask id="f" fill="#fff"><use xlink:href="#e"/></mask><g mask="url(#f)" fill-rule="nonzero"><path d="M25.759 28.253l-5.707-1.829c-1.444-7.51-11.907-13.209-14.698-16.302-1.251-1.156 4.902-4.665 8.56-5.722 4.253 4.252 5.808 7.44 12.209 12.447.994.778-.437 6.128-.364 11.406M63.696 28.253l5.708-1.829c1.443-7.51 11.906-13.209 14.698-16.302C85.352 8.966 79.2 5.457 75.54 4.4c-4.251 4.252-5.805 7.44-12.207 12.447-.994.778.437 6.128.363 11.406" fill="#F89C6D"/><path d="M16.966 9.939s-5.467-1.325-6.492-.727c-.466.272-1.68 2.528-1.68 3.033 0 .492.606.818.697 1.346-1.767-1.375-3.3-2.542-4.137-3.47-.904-.835 1.906-5.636 2.524-6.167.759-.655 4.365-.29 6.234 0 5.156 5.723 9.257 10.052 12.01 12.893.368.38.406 1.456.26 3.044-.462-.43.543-1.57-9.416-9.952M72.49 9.939s5.467-1.325 6.491-.727c.466.272 1.681 2.528 1.681 3.033 0 .492-.606.818-.698 1.346 1.768-1.375 3.3-2.542 4.138-3.47.904-.835-1.906-5.636-2.523-6.167-.76-.655-4.367-.29-6.234 0-5.158 5.723-9.258 10.052-12.012 12.893-.367.38-.406 1.456-.26 3.044.462-.43-.543-1.57 9.417-9.952" fill="#F03967"/><path d="M68.031 90.222c-2.593 18.584-1.906 12.183-2.995 27.398-1.254 17.514 5.418 55.383 3.062 78.89-1.596 15.922-8.277 29.21-9.209 32.199-5.531-2.024-41.035-.158-41.035-.158-6.528-19.083-9.413-26.063-9.026-39.796.318-11.313 5.926-37.793 8.096-60.396 1.545-16.114-3.408-25.226-2.926-39.579.559-16.618 7.597-56.087 4.917-64.598-.002.01.315-.296.912-.604 1.175-.604 3.433-1.208 6.46.604C24.76 40.09 29.431 80.511 29.556 97c.117 14.758-1.824 24.27-.404 39.168 1.087 11.4 2.964 40.015 5.89 57.88h7.2c2.59-14.95 6.756-41.635 10.127-63.83 2.251-14.816.964-23.844.812-38.774-.157-15.483 7.641-41.708 9.733-67.726 1.614-.81 5.094-1.11 7.231 1.155-3.436 28.648.11 49.388-2.115 65.35" fill="#593A3D"/><path d="M24.163 121.392c-2.25 0-4.963.795-4.963 4.048-2.066 18.232-14.015 67.721-4.051 90.041 2.638-.699 6.728-2.12 12.3-3.227-1.161-2.059-2.844-3.488-4.97-4.715-1.457-.841-3.02-1.489-4.598-2.062-1.276-.465-2.662-.92-4.03-.954h-.004l-.035-.002h-.167a6.9 6.9 0 0 1 1.748-.21c2.5 0 5.261 1.12 7.255 2.25 2.313 1.314 4.324 3.106 5.058 5.642a78.976 78.976 0 0 1 11.509-1.385c-.04-3.9.12-7.87-.27-11.75-.07-.767-.242-1.485-.45-2.218 1.17.095 2.068.41 2.895 1.296 1.026 1.098 1.735 2.497 2.266 3.889 1 2.633 1.658 5.895.96 8.71 3.112.058 6.446.293 10.007.764a10.815 10.815 0 0 1 2.107-2.55c1.436-1.211 3.336-2.334 5.282-2.334.296 0 .594.026.891.082-3.02.575-5.478 2.602-7.418 4.92 2.239.316 4.563.726 6.976 1.243 1.322-4.221 4.063-9.591 4.045-23.365-.02-16.965-2.793-63.064-4.755-64.924-.758-.718-2.819-2.91-4.597-2.91-1.028 0-1.963.734-2.494 2.91-4.36 17.823-12.962 69.466-3.547 72.352-3.446-.607-5.833-1.027-8.022-1.027-1.836 0-3.534.295-5.601 1.027-4.616 1.626-6.223 2.048-10.684 2.72 8.07-6.644 5.381-18.988 4.398-30.35-1.425-16.462-3.522-30.919-4.574-47.579-.534-.17-1.454-.332-2.467-.332m15.566 76.635c.316 1.986.215 4.06.105 6.062-.132 2.246-.301 4.499-.619 6.73a81.917 81.917 0 0 1 5.309-.076c.208-2.415-.345-4.935-1.171-7.184-.667-1.898-1.724-4.55-3.624-5.532" fill="#6B474B"/><path d="M27.706 212.203l-.257.05c.168.298.325.61.472.934a7.54 7.54 0 0 0-.215-.984" fill="#8B7477"/><path d="M15.393 204.31a6.9 6.9 0 0 0-1.748.211h.167l.035.002h.005c1.367.033 2.753.49 4.029.954 1.578.573 3.14 1.22 4.597 2.061 2.127 1.228 3.81 2.657 4.97 4.715l.258-.05c-.734-2.537-2.745-4.328-5.058-5.642-1.994-1.13-4.755-2.25-7.255-2.25" fill="#997F82"/><path d="M44.524 210.743c-.016.178-.036.356-.059.533.056-.175.105-.353.15-.532l-.091-.001m-5.309.075v.002-.002" fill="#8B7477"/><path d="M38.495 196.85c.208.733.38 1.451.45 2.217.39 3.882.23 7.85.27 11.751.318-2.23.487-4.483.619-6.73.11-2 .211-4.075-.105-6.061 1.9.982 2.957 3.634 3.624 5.531.826 2.25 1.379 4.77 1.17 7.185l.093.002c.698-2.814.04-6.076-.96-8.71-.531-1.392-1.24-2.79-2.266-3.888-.827-.887-1.725-1.202-2.895-1.297" fill="#997F82"/><path d="M54.623 211.509a10.386 10.386 0 0 0-1.03 2.387l.246.047c.207-.338.416-.676.625-1.013.322-.44.663-.877 1.02-1.304-.288-.04-.576-.08-.861-.117" fill="#8B7477"/><path d="M62.012 206.625c-1.946 0-3.846 1.123-5.282 2.333a10.815 10.815 0 0 0-2.107 2.55c.285.038.573.077.862.118 1.94-2.317 4.399-4.344 7.418-4.92a4.861 4.861 0 0 0-.89-.081" fill="#997F82"/><path d="M34.754 325.186l-11.722-1.098c1.342-7.093 3.531-22.12-.899-26.306-2.158-2.04-6.731-4.555-11.24-5.52 16.312-14.668 38.39-8.164 36.426 6.99-13.369-2.679-12.565 13.937-12.565 25.934" fill="#F89C6D"/><path d="M36.454 305.373h-.01c-.775 2.176-1.2 4.75-1.431 7.476.001 0 .002 0 .003.002.234-2.727.66-5.302 1.438-7.477m-11.724 4.934v.001a73.82 73.82 0 0 1-.333 4.561h.001c.155-1.507.274-3.047.332-4.562" fill="#F6B899"/><path d="M36.444 305.373c-4.052.462-8.698 2.64-11.625 4.87l-.089.065a72.229 72.229 0 0 1-.332 4.562c4.18-1.45 8.295-2.213 9.38-2.214l.015.001c.311.002.726.069 1.22.193.231-2.726.656-5.3 1.43-7.476" fill="#F46D41"/><path d="M19.876 250.163c-9.023 16.227-10.493 41.995-10.493 41.995 3.983 1.518 7.342 2.132 7.342 2.132 13.543-8.862 28.525-1.48 30.148 4.99l6.915.115c2.229-7.059 6.131-15.793 6.492-21.016.78-11.289-2.937-16.804-4.273-21.73-.895-3.832-.75-6.714-.298-11.66 2.924-6.774 7.402-22.254 8.883-26.756-10.804-8.642-43.164-5.49-51.976 0 4.561 14.434 9.204 25.507 7.26 31.93" fill="#F03967"/></g></g><g transform="matrix(1 0 0 -1 .087 370.812)"><mask id="h" fill="#fff"><use xlink:href="#g"/></mask><g mask="url(#h)"><mask id="j" fill="#fff"><use xlink:href="#i"/></mask><g mask="url(#j)" fill-rule="nonzero"><path d="M64.592 218.233c-2.946 7.287-9.162 22.209-18.964 22.209-1.028 0-2.093-.164-3.2-.518-5.458-1.744-16.422-4.714-20.307-9.097-3.533-3.99-4.895-5.071-9.505-12.594 2.076 6.567 4.167 12.439 5.648 17.493 8.186 1.536 22.099 5.398 33.127 12.694 1.344-.27 2.72-.548 4.098-.81.06-.812.134-1.68.22-2.622 2.924-6.773 7.402-22.253 8.883-26.755M20.407 248.84l-.005.012h-.001c-.18.444-.353.878-.523 1.305l-.002.006s0 .002-.002.003c-5.022 12.621-6.14 18.376-7.401 22.273-.07 1.66-.303 3.744-.611 5.932 1.708-4.463 4.1-8.588 8.545-10.706.931-.444 2.462-.635 4.384-.635 9.167 0 27.228 4.367 31.514 6.663 3.038 1.627 2.152 10.325-.704 20.04 2.622-8.053 6.505-20.984 3.078-25.538l.073-.408c-1.29-2.018-3.644-6.2-4.892-8.943h.006c-11.044-.566-27.068-4.108-30.046-5.38 0 0-2.036-2.71-3.413-4.624" fill="#EE2851"/><path d="M55.25 259.6c-12.06-8.858-22.116-5.333-34.843-10.76-5.479 13.549-6.63 19.568-7.934 23.598-.276 6.549-3.09 19.72-3.09 19.72-9.147-1.957-9.826-9.858-5.615-26.77 3.027-12.148 7.979-24.571 12.018-30.086 10.233 1.559 35.471 8.072 46.675 23.28-.394.907-6.436.309-7.21 1.017" fill="#F89C6D"/></g></g></g><g transform="matrix(1 0 0 -1 .087 370.812)"><mask id="l" fill="#fff"><use xlink:href="#k"/></mask><g mask="url(#l)" fill-rule="nonzero"><path d="M20.407 248.84l-.006.012h.001l.005-.012" fill="#EA2335"/><path d="M17.134 235.523c7.17 1.375 25.57 7.342 25.017 10.194-.592 3.056-16.729 3.005-21.977 3.028l.227.107.006-.012c5.085.832 10.199 1.479 15.476 1.479 2.893 0 5.833-.195 8.848-.658 2.004-.307 4.28-.763 6.659-1.241-11.555-7.644-26.272-11.517-34.256-12.897" fill="#F46D41"/><path d="M65.785 285.687c-2.88 13.817-8.448 14.082-11.997 13.708 1.35-4.955 9.374-25.243 4.89-31.2 1.083-6.104 1.042-4.328 2.522-9.614-9.077 1.71-33.622-3.51-37.38-5.116 0 0-2.036-2.712-3.413-4.625 7.874 1.29 15.812 2.13 24.324.821 7.922-1.216 20.078-4.738 26.126-2.869 1.943 13.283-3.407 30.902-5.072 38.895" fill="#F89C6D"/><path d="M61.2 258.581l.174.167-.003.02.001.007c1.36 1.404 4.763 2.393 7.434 3.748.048.256 1.744 1.251-.741 1.598.988.154 1.68.39 1.68.39.208.115.372.23.499.339.216-1.388.407-2.79.564-4.195-3.832-.118-8.87-1.432-9.608-2.074m-2.417 9.253c1.085 2.418 5.07 3.64 10.206 3.849.126-.603.25-1.214.37-1.83-.76.066-1.823.11-2.974.11-2.724 0-5.941-.249-6.826-1.052-.137-.124-.412-.511-.776-1.077" fill="#F46D41"/><path d="M70.504 269.662c-.55.357-9.382.666-10.945-.751-.622-.565-4.084-6.52-5.699-10.068 0 0 5.255.081 7.34-.262 1.222 1.51 4.814 2.526 7.606 3.942.048.255 1.744 1.251-.741 1.597.988.154 1.68.391 1.68.391 1.571.878.667 1.638.296 1.646.811.384 2.47 1.636.247 2.147.592.308.639 1.08.216 1.358" fill="#F89C6D"/></g></g><g transform="matrix(1 0 0 -1 54.602 112.766)"><mask id="n" fill="#fff"><use xlink:href="#m"/></mask><g mask="url(#n)"><path d="M0 0h410.588v398.798H0z" fill-rule="nonzero" fill="url(#o)" transform="translate(-54.515 -258.046)"/></g></g><g transform="matrix(1 0 0 -1 60.812 112.766)"><mask id="q" fill="#fff"><use xlink:href="#p"/></mask><g mask="url(#q)"><path d="M0 0h410.588v398.798H0z" fill-rule="nonzero" fill="url(#r)" transform="translate(-60.726 -258.046)"/></g></g><g transform="matrix(1 0 0 -1 53.912 112.766)"><mask id="t" fill="#fff"><use xlink:href="#s"/></mask><g mask="url(#t)"><path d="M0 0h410.588v398.798H0z" fill-rule="nonzero" fill="url(#o)" transform="translate(-53.825 -258.046)"/></g></g><g transform="matrix(1 0 0 -1 .087 370.812)"><mask id="v" fill="#fff"><use xlink:href="#u"/></mask><g mask="url(#v)" fill-rule="nonzero"><path d="M47.85 346.85c-2.603 2.484-10.33 6.125-16.546 8.286-6.25-3.703-11.67-4.409-16.99-10.827-3.089-3.729-1.732-20.931 1.11-24.313 3.982-4.737 16.41-7.353 18.37-7.34 2.343.018 10.583 3.682 14.155 8.05 0 0 5.073 21.208-.1 26.144" fill="#F89C6D"/><path d="M19.384 317.025c-.883.476-1.703.987-2.418 1.533-1.442 3.3-2.348 6.407-2.747 9.333a7.133 7.133 0 0 1 1.015-1.333c.46-3.918 1.662-7.779 4.15-9.533m25.921 1.155c1.547 2.41 2.43 5.465 2.819 8.606.23.167.452.348.66.54-.307-2.619-.906-5.25-1.834-7.708a20.421 20.421 0 0 0-1.645-1.438m-30.947 17.25c1.158 6.142 4.952 11.377 10.97 15.914 4.93-2.917 13.85-5.515 19.016-7.218-4.835 2.578-10.443 6.09-12.399 8.717 4.853-1.703 12.136-3.997 15.139-10.616.513-1.132.935-2.445 1.253-3.883-.325.25-.67.471-1.032.663-.663 2.27-1.58 3.83-2.574 4.122-3.23 1.536-10.164 2.417-19.07 7.489-4.604-3.658-8.35-7.706-9.95-13.566a2.43 2.43 0 0 1-.027-.082 7.22 7.22 0 0 1-1.326-1.54" fill="#F68859"/></g></g><g transform="matrix(1 0 0 -1 14.578 46.53)"><mask id="x" fill="#fff"><use xlink:href="#w"/></mask><g mask="url(#x)"><path d="M0 0h410.588v398.798H0z" fill-rule="nonzero" fill="url(#y)" transform="translate(-14.491 -324.282)"/></g></g><g transform="matrix(1 0 0 -1 13.888 44.46)"><mask id="A" fill="#fff"><use xlink:href="#z"/></mask><g mask="url(#A)"><path d="M0 0h410.588v398.798H0z" fill-rule="nonzero" fill="url(#B)" transform="translate(-13.801 -326.352)"/></g></g><g transform="matrix(1 0 0 -1 36.66 45.84)"><mask id="D" fill="#fff"><use xlink:href="#C"/></mask><g mask="url(#D)"><path d="M0 0h410.588v398.798H0z" fill-rule="nonzero" fill="url(#E)" transform="translate(-36.573 -324.972)"/></g></g><g transform="matrix(1 0 0 -1 47.011 44.46)"><mask id="G" fill="#fff"><use xlink:href="#F"/></mask><g mask="url(#G)"><path d="M0 0h410.588v398.798H0z" fill-rule="nonzero" fill="url(#H)" transform="translate(-46.924 -326.352)"/></g></g><g transform="matrix(1 0 0 -1 .087 370.812)"><mask id="J" fill="#fff"><use xlink:href="#I"/></mask><g mask="url(#J)" fill-rule="nonzero"><path d="M38.456 322.745c-.32-.263-.914-2.9-5.146-3.285-4.089-.374-6.94 2.775-7.649 3.161.295-.117 1.413-.436 1.85-.525 1.737.114 10.945.65 10.945.65" fill="#E63D33"/><path d="M25.473 323.935c.778-2.317 4.686-.5 8.73-.206 2.928.208 4.42-.944 5.045.231.02-.201.09-.907-.625-1.175-3.708-1.052-7.097-1.443-11.09-.915-.587.174-3.967.45-2.06 2.065" fill="#DA322D"/><path d="M33.482 326.975a6.62 6.62 0 0 0-1.786.25c3.542.383 4.674 2.04 4.721 2.266-.427.66-2.125 2.591-1.766 4.817.652-2.37 2.112-3.782 2.608-4.209.056-.146.116-.29.179-.431 0-.716-.44-1.417-.934-1.802a4.163 4.163 0 0 0-1.616-.735 6.442 6.442 0 0 0-1.406-.156" fill="#F1532C"/></g></g><g transform="matrix(1 0 0 -1 36.66 41.7)"><mask id="L" fill="#fff"><use xlink:href="#K"/></mask><g mask="url(#L)"><path d="M0 0h410.588v398.798H0z" fill-rule="nonzero" fill="url(#M)" transform="translate(-36.573 -329.112)"/></g></g><g transform="matrix(1 0 0 -1 .087 370.812)"><mask id="O" fill="#fff"><use xlink:href="#N"/></mask><g mask="url(#O)" fill-rule="nonzero"><path d="M44.687 339.881c-3.915.515-6.241-4.3-6.241-4.3 1.994-1.069 5.792-.793 7.442.344 1.368.944 2.32 2.317-1.201 3.956" fill="#F8E8C6"/><path d="M44.967 337.918a2.503 2.503 0 0 1-.571 1.777c-1.745.185-3.328-.698-4.424-1.572a2.493 2.493 0 0 1 2.308-2.52 2.51 2.51 0 0 1 2.687 2.315" fill="#838723"/><path d="M44.09 337.982a1.629 1.629 0 1 0-3.248.245 1.629 1.629 0 0 0 3.248-.245" fill="#3D1D15"/><path d="M45.592 336.988a.863.863 0 1 0-1.723.126.863.863 0 0 0 1.723-.126" fill="#F8E8C6"/><path d="M46.477 339.321a3.83 3.83 0 0 1-1.296.78c-.94.347-1.979.457-3.034.143a5.731 5.731 0 0 1-2.48-1.663c-.65-.745-1.096-1.68-1.176-2.634.55.787 1.142 1.435 1.814 1.975.679.528 1.423.96 2.206 1.221.715.244 1.599.231 2.429.1.806-.175 1.715-.397 2.137-1.26.059.488-.233.996-.6 1.338" fill="#3D1D15"/><path d="M46.31 344.838c-.916.367-1.91.484-2.892.41-.975-.093-1.954-.382-2.782-.93-.828-.535-1.502-1.348-1.739-2.268 1.312 1.35 2.934 1.894 4.62 2.041.839.08 1.694.034 2.53-.124.84-.168 1.659-.443 2.443-.972-.421.862-1.277 1.487-2.18 1.843" fill="#AD3520"/><path d="M23.477 340.02c-2.723.574-5.833-.52-6.166-2.787 2.472-2.975 5.882-3.13 10.56-1.536.06 2.314-2.431 3.91-4.394 4.323" fill="#F8E8C6"/><path d="M22.417 336.011c1.33.381 2.1 1.77 1.716 3.1a2.473 2.473 0 0 1-.982 1.354c-1.483-.07-2.916-.587-3.847-1.436a2.497 2.497 0 0 1 .01-1.301 2.504 2.504 0 0 1 3.103-1.717" fill="#838723"/><path d="M23.287 338.867a1.623 1.623 0 0 0-1.112-2.012 1.63 1.63 0 0 0-2.017 1.114 1.631 1.631 0 0 0 1.116 2.015 1.625 1.625 0 0 0 2.013-1.117" fill="#3D1D15"/><path d="M25.044 338.455a.863.863 0 1 0-1.66-.477.863.863 0 0 0 1.66.477" fill="#F8E8C6"/><path d="M26.579 339.382c-1.004.854-2.302 1.25-3.568 1.346-1.274.068-2.566-.144-3.716-.727-.568-.29-1.102-.681-1.505-1.199-.4-.511-.624-1.197-.477-1.8.257 1.222 1.325 1.802 2.342 2.163 1.047.342 2.18.48 3.28.403 1.096-.064 2.182-.345 3.108-.914.923-.568 1.642-1.476 2.094-2.604.033 1.212-.542 2.5-1.558 3.332" fill="#3D1D15"/><path d="M25.875 344.636c-.95.57-2.055.855-3.153.907-1.104.028-2.222-.172-3.213-.67-.982-.48-1.868-1.295-2.198-2.314.745.747 1.624 1.19 2.537 1.475.922.269 1.88.392 2.833.345 1.909-.063 3.765-.701 5.291-2.152-.365.994-1.152 1.85-2.097 2.409" fill="#AD3520"/></g></g><g transform="matrix(1 0 0 -1 .087 63.09)"><mask id="Q" fill="#fff"><use xlink:href="#P"/></mask><g mask="url(#Q)"><g transform="translate(0 -307.723)"><mask id="S" fill="#fff"><use xlink:href="#R"/></mask><g mask="url(#S)" fill-rule="nonzero" fill="url(#T)"><path d="M0 0h410.588v398.798H0z"/></g></g></g></g><g transform="matrix(1 0 0 -1 .777 26.521)"><mask id="V" fill="#fff"><use xlink:href="#U"/></mask><g mask="url(#V)"><path d="M0 0h410.588v398.798H0z" fill-rule="nonzero" fill="url(#W)" transform="translate(-.69 -344.29)"/></g></g></g></svg>