<svg width="102" height="378" xmlns="http://www.w3.org/2000/svg" xmlns:xlink="http://www.w3.org/1999/xlink"><defs><path id="a" d="M0 399.235h410.341V.066H0z"/><path id="c" d="M0 0h410.794v398.833H0z"/><path id="e" d="M0 0h410.794v398.833H0z"/><path d="M16.555.002c-1.992.943-3.812 1.856-4.77 2.392-.484 1.965 1.528 2.011 1.984 3.108 2.829 15.04 4.98 74.214-.485 97.74-3.242 20.643-9.556 33.927-12.68 67.66-.305 3.309-.426 7.94-.4 12.664.032 5.548.267 11.223.644 15.034 1.788-3.361 7.661-10.88 13.513-15.005-.09-1.752.75-19.824 2.076-37.949l.002-.021.001-.016c1.05-14.352 2.406-28.729 3.844-35.057v-.001l.006-.02v-.001l.004-.022c6.756-63.721-.198-99.566-1.826-107.283-1.023-.376-1.07-.887-.5-1.452A12.237 12.237 0 0 0 16.555.002" id="g"/><linearGradient x1="82.906%" y1="28.185%" x2="89.702%" y2="28.185%" id="i"><stop stop-color="#38586A" offset="0%"/><stop stop-color="#192B33" offset="100%"/></linearGradient><path id="j" d="M0 0h410.794v398.833H0z"/><path d="M4.414.105c0 .008-.003.015-.004.021.002-.006.004-.013.004-.02M4.41.127l-.005.02.005-.02m-.005.02C2.966 6.477 1.61 20.855.56 35.207 1.611 20.853 2.966 6.476 4.405.149M.559 35.22l-.001.021.001-.02" id="l"/><path id="n" d="M0 0h410.794v398.833H0z"/><path d="M6.486.105c-.002.008-.004.015-.004.021v.002l-.006.02v.001C5.038 6.476 3.682 20.853 2.632 35.206c0 .006 0 .01-.002.016l-.001.02C1.484 50.896.7 66.51.566 71.605l-.013 1.588c.26.054.67.077 1.196.077 4.464 0 17.239-1.733 17.239-1.733C19.304 65.67 14.16 3.631 6.486.106" id="p"/><linearGradient x1="88.599%" y1="30.995%" x2="88.599%" y2="49.34%" id="r"><stop stop-color="#416576" offset="0%"/><stop stop-color="#38586A" offset="100%"/></linearGradient><path id="s" d="M0 0h410.794v398.833H0z"/><path d="M7.244.421A7.12 7.12 0 0 0 .192 8.598c.53 3.527 3.572 6.056 7.036 6.056a7.105 7.105 0 0 0 5.53-2.627c.559-2.685.671-5.678.355-8.51A7.126 7.126 0 0 0 7.244.42" id="u"/><radialGradient cx="90.164%" cy="84.07%" fx="90.164%" fy="84.07%" r=".168%" gradientTransform="matrix(.97088 0 0 1 .026 0)" id="w"><stop stop-color="#F68C61" offset="0%"/><stop stop-color="#F89C6C" offset="100%"/></radialGradient><path d="M.685.066C1.002 2.9.89 5.892.33 8.576a7.089 7.089 0 0 0 1.515-5.545A7.056 7.056 0 0 0 .685.066" id="x"/><radialGradient cx="90.164%" cy="84.07%" fx="90.164%" fy="84.07%" r=".168%" gradientTransform="matrix(.97088 0 0 1 .026 0)" id="z"><stop stop-color="#F57850" offset="0%"/><stop stop-color="#F6885A" offset="100%"/></radialGradient><path d="M5.04.118c-.35 0-.705.026-1.061.08-.274.041-.54.105-.8.178C1.228 4.098.397 8.467.378 12.567l.004.003c.01-1.95.203-3.966.613-5.941-.105 2.07-.108 4.35.058 6.466a7.005 7.005 0 0 0 5.028 1.18c3.893-.585 6.574-4.204 5.984-8.092A7.107 7.107 0 0 0 5.041.119" id="A"/><radialGradient cx="84.376%" cy="83.805%" fx="84.376%" fy="83.805%" r=".168%" gradientTransform="matrix(.97088 0 0 1 .025 0)" id="C"><stop stop-color="#F68C61" offset="0%"/><stop stop-color="#F89C6C" offset="100%"/></radialGradient><path d="M.996.419A30.175 30.175 0 0 0 .383 6.36c.212.188.437.364.67.525C.887 4.769.891 2.488.996.419" id="D"/><radialGradient cx="84.376%" cy="83.805%" fx="84.376%" fy="83.805%" r=".168%" gradientTransform="matrix(.97088 0 0 1 .025 0)" id="F"><stop stop-color="#F57850" offset="0%"/><stop stop-color="#F6885A" offset="100%"/></radialGradient><path id="G" d="M0 0h410.794v398.833H0z"/><path d="M2.502 2.791c.872.37 1.82.5 2.758.446.938-.07 1.879-.33 2.687-.839.798-.496 1.459-1.262 1.704-2.138C8.368 1.528 6.805 2.02 5.188 2.13c-.805.06-1.621 0-2.42-.166-.801-.178-1.577-.456-2.32-.977.386.833 1.196 1.447 2.054 1.804" id="I"/><linearGradient x1="83.471%" y1="86.945%" x2="85.711%" y2="86.945%" id="K"><stop stop-color="#B33920" offset="0%"/><stop stop-color="#772819" offset="100%"/></linearGradient><path id="L" d="M0 0h410.794v398.833H0z"/><path d="M1.993 2.758c.9.564 1.953.858 3.002.927 1.058.047 2.131-.125 3.091-.583.945-.44 1.806-1.203 2.14-2.173-.723.702-1.573 1.108-2.45 1.364a8.217 8.217 0 0 1-2.721.278C3.227 2.475 1.463 1.83.029.414c.334.959 1.067 1.792 1.964 2.344" id="N"/><linearGradient x1="88.242%" y1="87.02%" x2="90.725%" y2="87.02%" id="P"><stop stop-color="#B33920" offset="0%"/><stop stop-color="#772819" offset="100%"/></linearGradient><path d="M40.71.36a28.913 28.913 0 0 1 3.676 5.023l.003.006c4.537 7.85 6.864 20.477-8.454 32.933-.693-.36-1.378-.7-2.06-1.023-8.14-3.875-15.406-5.37-20.615-8.867-.491-.328-.964-.676-1.418-1.044l-.005-.005c-2.098-1.706-3.783-3.87-4.96-6.858.753 3.259 1.758 5.715 2.95 7.67-3.083-3.168-5.973-7.283-7.723-12.856-.288 3.623.555 13.688 5.387 19.763-3.7-3.923-6.35-6.79-7.284-15.67-.113 5.957.142 18.105 9.505 27.152-3.152-3.046-5.268-6.443-6.688-9.837 3.637 7.425 11.77 12.613 22.14 12.613 3.18 0 6.568-.487 10.104-1.547 1.676-.503 8.22-8.397 10.507-13.28-.981 2.909-.714 5.119.373 5.119.594 0 1.43-.658 2.44-2.216-.55 2.495 1.365 4.346 3.95 4.346 3.184 0 7.38-2.803 9.244-10.662-1.413 10.344-6.566 15.774-10.988 19.657-.155-.064-.262-.102-.3-.102-.008 0-.012.001-.014.004 1.838-2.654.493-6.313-2.034-7.517-.51-.245-1.112-.359-1.764-.359-3.745-.001-9.24 3.765-9.828 8.587-1.073-.828-3.11-1.225-5.201-1.225-4.36-.002-8.964 1.726-5.604 4.879-4.895-.984-9.867-3.236-13.844-6.305C17.623 52.921 24.882 55.6 31.28 55.6c2.643 0 5.14-.457 7.297-1.455-.714.898-3.899 3.98-5.798 5.052 2.014-.924 6.026-2.126 10.367-6.726-2.916 3.883-5.052 5.937-6.796 7.047 3.482-.692 7.312-3.635 10.165-7.731-.458.997-1.087 2.453-1 3.793C49.647 50.786 60.23 46.1 61.93 29.938 63.424 15.74 53.076 6.261 49.653 2.97c3.002 4.955 4.183 7.814 4.575 10.72C51.993 6.724 46.405 3.23 40.71.36M9.717 46.588a.26.26 0 0 0 .018.017l-.018-.017m.041.04a.017.017 0 0 0 .006.004l-.006-.004m.03.029l.001.001-.001-.001m1.102 1.004l.001.003-.001-.003m1.292 1.06l.02.015-.02-.016" id="Q"/><linearGradient x1="80.383%" y1="87.091%" x2="95.447%" y2="87.091%" id="S"><stop stop-color="#B33920" offset="0%"/><stop stop-color="#772819" offset="100%"/></linearGradient><path id="T" d="M0 0h410.794v398.833H0z"/><path d="M59.02.068c-1.863 7.86-6.06 10.663-9.243 10.663-2.586 0-4.501-1.852-3.95-4.346-1.01 1.558-1.847 2.215-2.44 2.215-1.088 0-1.354-2.21-.373-5.119-2.287 4.884-8.832 12.777-10.507 13.28-3.537 1.061-6.925 1.548-10.105 1.548-10.37 0-18.502-5.188-22.14-12.613 1.42 3.394 3.537 6.79 6.688 9.836a.021.021 0 0 0 .006.006l.017.017.024.023a.017.017 0 0 0 .005.004.254.254 0 0 0 .026.026c.353.338.72.674 1.1 1.003 0 .002.002.002.002.002l.03.026c.408.353.828.697 1.26 1.031l.02.016.004.002c3.978 3.069 8.95 5.32 13.844 6.304-3.36-3.152 1.244-4.88 5.604-4.879 2.092 0 4.128.397 5.201 1.225.588-4.821 6.083-8.587 9.828-8.586.652 0 1.254.114 1.764.358 2.527 1.204 3.872 4.864 2.034 7.518.002-.004.007-.004.014-.004.038 0 .146.037.3.101 4.422-3.883 9.575-9.312 10.988-19.657" id="V"/><linearGradient x1="80.383%" y1="87.091%" x2="95.447%" y2="87.091%" id="X"><stop stop-color="#C34A20" offset="0%"/><stop stop-color="#903A1C" offset="100%"/></linearGradient></defs><g fill="none" fill-rule="evenodd"><g transform="matrix(1 0 0 -1 -308.85 377.845)"><mask id="b" fill="#fff"><use xlink:href="#a"/></mask><g mask="url(#b)"><mask id="d" fill="#fff"><use xlink:href="#c"/></mask><g mask="url(#d)" fill-rule="nonzero" fill="#DFDDDB"><path d="M351.07 0c-20.015 0-36.242 2.314-36.242 5.171 0 2.855 16.227 5.17 36.243 5.17.783 0 1.56-.003 2.33-.01-5.484-2.132-14.648-4.339-18.681-5.939 3.336-.395 6.924-.555 10.56-.555 10.96 0 22.396 1.454 28.933 2.332a20.721 20.721 0 0 0-1.754 3.177c9.006-.941 14.855-2.46 14.855-4.175C387.314 2.314 371.088 0 351.07 0"/></g></g></g><g transform="matrix(1 0 0 -1 -308.85 377.845)"><mask id="f" fill="#fff"><use xlink:href="#e"/></mask><g mask="url(#f)" fill-rule="nonzero"><path d="M349.955 238.739s-6.909-2.953-17.78-4.453c-7.841-1.08-15.316-1.072-15.316-1.072-.112.283-3.186-.076-3.41-.469-2.916-13.898-2.263-31.548-1.295-38.574 1.09-2.458 13.017-2.135 13.017-2.135l32.032 9.65-7.248 37.053" fill="#8A8D7E"/><path d="M323.827 192.562c-7.483 0-10.661.94-11.15 1.772-.447 3.295-.88 9.546-.791 16.774.243-7.099 1.476-14.33 6.022-14.55a4.86 4.86 0 0 1 .223-.005c5.112 0 4.925 8.91 3.757 16.831 1.776-7.872 3.162-16.111 2.791-20.818-.218-.003-.51-.004-.852-.004" fill="#6F7263"/><path d="M324.68 192.566c-.219-.003-.51-.004-.853-.004-7.483 0-10.661.941-11.15 1.772-.865 6.391-1.68 23.888 1.254 38.09.405.156 1.601.354 2.377.354l.152-.004c2.092-5.095 8.994-30.37 8.22-40.207m-7.32 40.847c-.176.44-.724.44-1.052.44-.026 0-2.89-.076-3.328-.842l-.059-.156c-3.03-14.443-2.184-32.348-1.299-38.758l.042-.144c.903-2.042 7.115-2.47 12.163-2.47h.001c.836 0 1.357.013 1.357.013l.47.013.052.468c1.103 9.993-6.267 36.655-8.348 41.436" fill="#FEF2E7"/><path d="M346.72 301.402c-3.562-7.043-24.728-52.1-31.663-65.703.444.285 1.195 1.286 1.475 1.806 1.237.438 3.093 1.18 3.491 1.284 3.817 7.408 22.65 45.406 29.974 62.965l-3.278-.352" fill="#8A8D7E"/><path d="M316.21 222.103c-.93 0-1.992.133-2.568.406-.402.188-.784.375-1.108.561l.023.233.283-.135c.582-.27 1.647-.405 2.58-.405.21 0 .413.007.603.021l.033.003.096.007c.378.174.53.425.53.69a.92.92 0 0 1-.147.47c.817-.329 1.43-1.356.418-1.82a8.177 8.177 0 0 0-.742-.031m1.405 1.915c-.321 0-.647.01-.983.013-.028 0-.082.005-.157.014a1.732 1.732 0 0 1-.789.59l-.278.105c.215-.029.368-.046.424-.046l.136-.002.036-.001c.278-.004.55-.01.817-.01.706 0 1.392.042 2.137.26l.224-.8a8.378 8.378 0 0 0-1.567-.123m2.595.5c-.162.583-.324 1.15-.482 1.696.798-.368.927-1.254.482-1.697m-.475 2.155a3.28 3.28 0 0 0-.141.003l-.204.692c.815.123 1.363.559 1.41.843a1.344 1.344 0 0 1-.213.998.883.883 0 0 0 .152-.068c.403-.243 1.002-.757.863-1.593-.06-.333-.804-.875-1.867-.875m-1.38.36c-.722.107-1.651.043-2.318.292l-.04.015c.144-.005.297-.008.454-.008.267 0 .547.006.827.013.282.005.563.012.83.012l.151-.002.096-.323m.524 3.004c-.105.01-.212.019-.322.026-.086.268-.17.525-.251.77a.907.907 0 0 1 .105.101c.093.107.13.279.13.462 0 .267-.079.557-.169.7a2.6 2.6 0 0 1-.07.1c.327-.173.632-.396.866-.76.159-.242.272-.902.045-1.164a.965.965 0 0 0-.334-.235m-1.477.083c-.426.015-.767.027-.885.056-.2.048-.643.312-1.203.581h.023c.323-.007 1.132-.207 1.866-.207.02 0 .039 0 .058.002l.141-.432" fill="#6F5E55"/><path d="M321.413 233.337c1.275.059 2.756.144 4.358.27.015.002.03.002.045.002-1.62-.127-3.117-.213-4.403-.272m7.323.537v.001l.476.051-.002-.002-.474-.05" fill="#D3AEB0"/><path d="M321.364 231.956c-.823 0-1.521.13-2.1.263-.484.108-.884.218-1.204.25-.14.132-.292.24-.452.332-.057.15-.114.29-.167.418.742.009 2.146.035 3.972.118 1.286.059 2.783.145 4.403.273l.656.045.128.01c1.182.085 2.107.165 2.136.21l.474.049c-2.547-1.627-6.596-1.942-7.691-1.967l-.155-.001" fill="#6F5E55"/><path d="M312.534 223.07c-.19.11-.36.218-.503.328l.017.16c.161-.085.333-.17.509-.255l-.023-.233m6.649 1.071l-.224.8.162.051c.357.14.543.47.543.825 0 .155-.036.314-.11.466.062-.02.12-.044.175-.07.158-.545.32-1.111.482-1.696a.824.824 0 0 0-.29-.187 5.997 5.997 0 0 0-.738-.189m.412 2.534l-.048.002c-.102.006-.21.01-.319.014a1.55 1.55 0 0 1-.639.299 2.936 2.936 0 0 1-.233.042l-.096.323c.17-.002.335-.007.49-.016a3.094 3.094 0 0 1 .641.028l.204-.692m-1.037 3.387c-.392.028-.803.044-1.155.056l-.141.432c.408.005.788.076 1.045.282l.251-.77m-.95 2.738c-.223.129-.46.23-.696.33l.177.084.352.005c.053-.128.11-.268.167-.418" fill="#D3A29B"/><path d="M316.03 237.623c-.944-.252-4.351-.754-4.679-.79 0 0-.077-2.113.369-2.668.374-.466.996-.924 1.771-1.355.31.494 1.535 2.188 2.538 4.813M318.473 237.953c-.11.04-.213.071-.317.094-.786-2.348-1.263-4.045-1.297-4.833 0 0 5.1-.003 11.287.604-.152.504-9.065 3.914-9.673 4.135" fill="#ED4D37"/><path d="M315.687 224.636c-.353.13-3.864 1.454-4.77 1.69-.37-.522-.148-1.744-.062-1.886.266-.432 1.08-.844 1.985-1.272.743-.346 2.276-.468 3.312-.374 1.033.476.377 1.534-.465 1.842" fill="#F89C6D"/><path d="M315.42 222.763" fill="#6E483C"/><path d="M315.42 222.763c-.933 0-1.998.134-2.576.405.48.024.972.288 1.09.759.177.718-.977 1.143-1.274 1.282-.625.294-1.24.659-1.834.948l.063.117c.53-.321 1.234-.68 1.628-.864.699-.318 2.156-.572 2.892-.67l.278-.104c.534-.195.994-.693.994-1.152 0-.265-.151-.516-.529-.69l-.096-.007a8.02 8.02 0 0 0-.637-.023" fill="#F5764A"/><path d="M318.59 226.99c-.746.167-1.811.057-2.552.334-1.046.392-4.993 1.613-5.49 1.278-.32-.11-.558-1.284-.344-1.797.118-.282 1.652-1.089 2.313-1.395.902-.411 3.068-.713 3.316-.715 1.134-.016 2.135-.078 3.288.297.843.333.734 1.712-.532 1.998" fill="#F89C6D"/><path d="M316.005 224.691c-.012.002-.024.002-.036.002.013 0 .024 0 .036-.002" fill="#6E483C"/><path d="M310.469 228.552" fill="#F7C7AF"/><path d="M316.82 224.681c-.267 0-.537.007-.815.01-.012.002-.023.002-.036.002.844.178.977.942.935 1.388-.074.795-1.897 1.02-2.755 1.254-1.571.433-3.814 1.028-3.794 1.058a.603.603 0 0 0 .114.16c.025.024.052.04.078.05.02.013.043.023.073.031.757-.28 4.131-1.18 5.127-1.28h-.004l.04-.003.05-.004.164-.008.041-.015c.74-.277 1.806-.167 2.551-.334.729-.165 1.074-.693 1.075-1.173 0-.354-.186-.684-.543-.825-.81-.263-1.544-.31-2.301-.31" fill="#F5764A"/><path d="M319.939 229.803c-.588.35-3.056.284-3.421.372-.325.076-1.28.72-2.347 1.035-1.302.383-2.242.851-2.768.948-.43.078-.534-.286-.815-.504-.465-.905-.325-2.828-.1-2.962.31-.186 4.405-1.29 5.345-1.345.427-.025.936-.014 1.446-.003.516.01 1.035.022 1.47-.004 1.16-.07 1.993.516 2.053.87.14.835-.459 1.35-.863 1.593" fill="#F89C6D"/><path d="M310.91 231.987l-.001.002c.1.1.208.179.374.18-.164-.002-.273-.08-.373-.181" fill="#F7C7AF"/><path d="M315.997 227.34a5.36 5.36 0 0 0-.164.007l.164-.008m-.214.011l-.04.004h.004l.037-.004" fill="#F15835"/><path d="M316.452 227.332a11.77 11.77 0 0 0-.619.015l-.05.004-.036.003c.938.137 1.466 1.982.296 2.461-1.852.754-3.359 1.558-5.133 2.173.1.101.21.179.374.181l.178-.1c.922-.533 2.229-1.115 3.382-1.273a4.3 4.3 0 0 1 .471-.04c.56-.27 1.002-.534 1.203-.581.365-.088 2.833-.021 3.421-.372.363-.218.884-.656.884-1.348 0-.078-.007-.16-.021-.244-.057-.335-.802-.877-1.863-.877-.062 0-.125.001-.19.006-.199.012-.414.016-.64.016-.267 0-.548-.007-.83-.012a34.02 34.02 0 0 0-.827-.012" fill="#F5764A"/><path d="M318.373 232.095c-.458.705-1.166.886-1.806 1.188-.683.321-4.188 1.784-4.833 2.8-.092.14-.25.7-.383.75-.234.088-1.796-1.291-1.893-1.47-.224-.413-.21-1.645-.037-1.928.313-.511 1.19-.878 2.04-1.367 1.058-.61 2.62-1.285 3.877-1.312.538-.012 2.427-.56 3.074.177.23.263.113.92-.039 1.162" fill="#F89C6D"/><path d="M317.204 230.549c-.734 0-1.543.2-1.866.207h-.024.024c.322-.007 1.132-.207 1.866-.207l.057.001-.057-.001" fill="#6E483C"/><path d="M315.315 230.756a4.234 4.234 0 0 0-.001 0h.001" fill="#F15835"/><path d="M317.204 230.549c-.734 0-1.543.2-1.866.207h-.024a4.599 4.599 0 0 0-.772.09c.934.45 1.265 1.297 1.349 1.947l.062.01c.299.055.624.172.959.327.538-.23 1.084-.456 1.461-1.035.09-.143.169-.433.169-.7 0-.183-.037-.355-.13-.462a.907.907 0 0 0-.105-.101c-.257-.206-.637-.277-1.045-.282-.02-.002-.038-.002-.058-.002" fill="#F5764A"/><path d="M341.753 245.913c-4.047-3.797-11.067-8.224-15.934-9.956-.624.365-1.944.933-2.038.983-1.881 1.013-2.492 2.415-4.34 1.678-1.167-.463-2.78-.895-2.909-1.113-.72-1.248-1.971-2.178-2.557-2.989-.808-1.113.944-1.903 1.978-1.713 1.136.208 2.67 1.319 3.526 1.982.42.325 1.66-1.084 2.006-1.443 0 0 7.191.408 7.251.533v.006c1.127.116 2.27.245 3.438.405 2.885.4 7.806 1.14 10.957 2.216.098 2.2-1.223 8.407-1.378 9.411" fill="#F89C6D"/><path d="M326.472 233.655l.128.01a11.14 11.14 0 0 0-.128-.01" fill="#6E483C"/><path d="M313.975 234.516l.002.004v-.001l-.002-.004" fill="#E73E28"/><path d="M315.623 232.774c-.827 0-1.857.477-1.855 1.184.002.173.063.361.207.558.002.001.002.002.002.003.144-.894.666-1.21 1.322-1.21 1.207 0 2.872 1.067 3.495 1.572.844.685 1.501 1.076 1.904 1.076.116 0 .21-.032.282-.1 1.173-1.093 2.214-1.242 3.61-1.576.438-.102 1.62-.414 2.01-.616a449.139 449.139 0 0 0-5.114-.323h-.002l-.001.001c-.311.325-1.342 1.491-1.853 1.491a.24.24 0 0 1-.151-.049c-.593-.458-1.507-1.13-2.39-1.569a4.317 4.317 0 0 0-.178-.085 4.137 4.137 0 0 0-.959-.328 1.902 1.902 0 0 0-.33-.029" fill="#F5764A"/><path d="M366.384 21.99h-10.107c-2.404-7.658-4.746-8.786-7.611-10.926-5.469-2.149-14.764-4.384-18.834-5.997 13.385-1.583 30.79.607 39.494 1.775-3.088 4.623-3.908 9.437-2.942 15.148" fill="#9E1B20"/><path d="M346.183 4.636c-4.334.408-8.183 5.461-15.786 2.635-2.207-.568-3.04-2.758-3.04-2.758 8.975-1.85 23.285-1.962 42.377.697.746 4.845-6.907-.574-23.55-.574M352.014 10.761c1.494-.798 1.832-1.21 1.45-1.453-1.255-.791-3.56 2.065-5.834 1.364-.107.454 1.97 1.372 4.384.089" fill="#FDDDBD"/><path d="M347.072 10.215c1.245-.107 3.81-1.832 2.607-2.342-1.365-.578-2.156 2.264-5.996 1.481.162.443 1.515 1.022 3.39.861M345.682 7.331c.293-.57-.749-.826-1.357-.535-.67.319-1.829 1.88-5.234 1.175 2.24 1.53 5.655 1.203 6.59-.64" fill="#FDDDBD"/><path d="M371.272 21.314h-10.107c-2.405-7.656-4.748-8.784-7.615-10.925-5.465-2.149-14.761-4.382-18.83-5.997 13.384-1.584 30.787.608 39.493 1.777-3.089 4.62-3.91 9.435-2.941 15.145" fill="#D52624"/><path d="M351.07 3.96c-4.334.409-8.184 5.463-15.788 2.634-2.205-.565-3.04-2.756-3.04-2.756 8.979-1.85 23.287-1.961 42.378.698.746 4.845-6.907-.576-23.55-.576M356.9 10.087c1.493-.798 1.833-1.21 1.452-1.453-1.257-.793-3.56 2.064-5.835 1.363-.106.456 1.97 1.373 4.383.09" fill="#FEF2E7"/><path d="M351.958 9.54c1.245-.106 3.81-1.832 2.607-2.344-1.365-.576-2.154 2.265-5.996 1.483.162.443 1.513 1.023 3.389.861M350.568 6.656c.295-.572-.75-.826-1.355-.535-.672.317-1.83 1.881-5.236 1.177 2.24 1.529 5.654 1.202 6.591-.642" fill="#FEF2E7"/></g></g><g transform="matrix(1 0 0 -1 31.523 364.735)"><mask id="h" fill="#fff"><use xlink:href="#g"/></mask><g mask="url(#h)"><path d="M0 0h410.794v398.833H0z" fill-rule="nonzero" fill="url(#i)" transform="translate(-340.372 -13.11)"/></g></g><g transform="matrix(1 0 0 -1 -308.85 377.845)"><mask id="k" fill="#fff"><use xlink:href="#j"/></mask><g mask="url(#k)" fill-rule="nonzero"><path d="M374.158 125.86c-1.584 20.81 6.755 46.551 10.293 60.444 3.53 6.905 7.01 14.109 8.041 18.086-.179-.004 0 0-.229.004-1.282.025-3.239.17-4.525.273-.061.16-.111.321-.183.485-2.056 4.779-9.257 16.731-11.565 19.394 0 0-23.28-5.914-33.976-2.442-.322-5.38-.726-7.447-.793-10.394 1.788-3.36 7.66-10.88 13.513-15.005-.163-3.144 2.673-58.83 5.932-73.086 6.756-63.721-.198-99.566-1.826-107.283-5.13-1.887 14.263-7.179 13.237-5.4.28 37.608 9.42 55.189 8.9 82.383-.15 7.877-6.31 25.858-6.819 32.541" fill="#385869"/><path d="M370.252 10.68" fill="#B12323"/><path d="M341.465 215.406c.002.015.004.03.004.044l-.004-.044" fill="#727A6F"/><path d="M371.423 10.577c-.306 0-.705.037-1.171.103-.143.02-.292.043-.446.07.344 10.82 3.409 35.161 4.58 42.084 2.598 15.373 6.299 31.982 3.858 47.484-1.098 6.982-5.049 18.087-6.8 24.428-1.763 6.38 7.791 55.468 9.837 73.903.091 5.413-.74 13.805-4.697 19.353-.082.115-.261.167-.531.167-1.245 0-4.4-1.098-8.641-2.195a79.386 79.386 0 0 0-6.168-1.357c-.189.32-.364.658-.525 1.014.055-.37.138-.724.247-1.062-2.691-.46-5.582-.778-8.55-.79l-.001.095-.012-.094h-.142c-1.508 0-3.036.08-4.567.262l.033.312a9.594 9.594 0 0 1-.08-.306c-2.07.248-4.145.683-6.182 1.358a.457.457 0 0 1 .004.044c2.659-.2 5.209-.361 7.819-.361 5.908 0 12.124.824 20.61 3.886l.513-.973.791.413-.458.87c1.727.642 3.55 1.376 5.479 2.211l.002.002.03.013a.081.081 0 0 0 .019.008l.01.005c.48.208.967.422 1.46.643 1.025-1.506 2.271-3.466 3.537-5.553-1.2-1.439 1.269-7.576 3.075-11.038.888-1.705.927-2.857.95-4.775.044-3.148 1.007-4.77 3-4.77l.062.001c.157.43-.433 2.743.013 4.893.042.203-.272 2.067-.569 3.737 1.287-.103 3.193-.242 4.45-.267.164-.004.119-.006.147-.006l.083.002c-1.032-3.978-4.511-11.18-8.041-18.086-3.238-12.712-10.496-35.345-10.492-55.043 0-1.83.064-3.632.199-5.4.508-6.684 6.669-24.664 6.82-32.542.014-.742.02-1.48.02-2.208.004-25.962-8.649-43.596-8.922-80.174a.416.416 0 0 0 .027-.057c.074-.21-.185-.303-.68-.303" fill="#304C5D"/></g></g><g transform="matrix(1 0 0 -1 47.402 254.331)"><mask id="m" fill="#fff"><use xlink:href="#l"/></mask><g mask="url(#m)"><g transform="translate(-356.252 -123.514)"><mask id="o" fill="#fff"><use xlink:href="#n"/></mask></g></g></g><g transform="matrix(1 0 0 -1 45.33 254.331)"><mask id="q" fill="#fff"><use xlink:href="#p"/></mask><g mask="url(#q)"><path d="M0 0h410.794v398.833H0z" fill-rule="nonzero" fill="url(#r)" transform="translate(-354.18 -123.514)"/></g></g><g transform="matrix(1 0 0 -1 -308.85 377.845)"><mask id="t" fill="#fff"><use xlink:href="#s"/></mask><g mask="url(#t)" fill-rule="nonzero"><path fill="#5C7A89" d="M372 113.15l-.677 2.709.869.212.674-2.703-.866-.217M373.073 108.825c-.218.9-.442 1.8-.666 2.704l.865.215c.226-.905.45-1.808.666-2.71l-.865-.21M370.926 117.481c-.218.897-.432 1.802-.64 2.719l.87.197c.206-.91.421-1.812.637-2.706l-.867-.21M369.155 126.29c-.026.451-.04.942-.04 1.47 0 .428.009.881.025 1.36l.89-.03a37.196 37.196 0 0 1-.02-1.33c0-.509.008-.98.035-1.417l-.89-.052M369.922 121.836c-.195.903-.384 1.816-.563 2.74l.875.17c.178-.918.367-1.824.558-2.721l-.87-.19M374.06 104.49a132.5 132.5 0 0 1-.601 2.71l.865.203c.214-.91.416-1.82.61-2.728l-.874-.185M370.112 130.75l-.89.054c.052.873.129 1.806.218 2.795l.888-.08c-.09-.981-.163-1.906-.216-2.77M376.293 179.417l-.887.098c.1.926.196 1.851.29 2.77l.888-.09c-.094-.922-.19-1.848-.29-2.778M375.735 91.33c-.019.93-.064 1.85-.13 2.761l.89.06c.066-.923.111-1.855.131-2.8l-.891-.021M374.378 210.028a93.219 93.219 0 0 1-1.187 2.513l.801.39c.418-.853.82-1.705 1.197-2.534l-.811-.369M374.885 100.132c-.15.913-.314 1.822-.493 2.727l.877.171c.18-.915.344-1.832.495-2.754l-.88-.144M375.465 95.744c-.09.922-.203 1.84-.33 2.747l.882.124c.131-.923.243-1.848.335-2.784l-.887-.087M375.238 170.553l-.883.112c.12.922.233 1.845.346 2.769l.888-.109c-.115-.925-.23-1.849-.351-2.772M375.788 174.988l-.886.106c.112.923.219 1.845.322 2.764l.888-.1c-.106-.921-.21-1.846-.324-2.77M374.053 161.699l-.885.123.381 2.762.885-.12-.38-2.765M374.657 166.12l-.885.12c.124.917.248 1.839.367 2.762l.885-.115c-.122-.926-.243-1.846-.367-2.767M376.06 205.935a43.036 43.036 0 0 1-1.01 2.57l.821.35c.413-.966.758-1.85 1.03-2.626l-.842-.294M376.815 201.718l-.008 1.007c-.006.431-.095.985-.267 1.645l.865.224c.188-.73.287-1.354.294-1.856l.01-1.016-.894-.004M372.805 152.861l-.884.125.393 2.761.883-.123-.392-2.763M371.573 144.027l-.886.116.378 2.767.882-.123-.374-2.76M370.996 139.605l-.886.106c.112.9.23 1.824.356 2.771l.883-.115c-.124-.947-.241-1.868-.353-2.762M373.432 157.278l-.884.125.389 2.762.885-.125-.39-2.762M370.489 135.178l-.887.092c.09.89.195 1.818.309 2.779l.885-.104c-.111-.958-.216-1.882-.307-2.767M372.179 148.445l-.884.121.389 2.763.886-.126-.391-2.758"/><path d="M370.411 218.002l-.512.973c.28.101.561.204.846.31l.458-.87-.792-.413" fill="#55717E"/><path d="M375.65 73.478l-.888.081c.086.941.17 1.869.244 2.777l.89-.079c-.077-.91-.159-1.838-.245-2.78M375.222 69.03l-.889.089c.094.937.185 1.862.273 2.775l.889-.085-.273-2.779M376.358 82.39l-.89.052c.06.962.112 1.888.154 2.78l.89-.04a160.97 160.97 0 0 0-.154-2.793M373.78 55.717l-.885.1.311 2.769.888-.1-.313-2.769M374.279 60.15l-.887.099.305 2.77.884-.095-.302-2.774M374.762 64.589l-.887.093.29 2.773.886-.093-.29-2.773M376.037 77.927l-.89.073c.079.949.148 1.876.212 2.777l.889-.063a267.87 267.87 0 0 0-.21-2.787M377.642 197.245l-.893.027c.032.942.05 1.868.06 2.781l.893-.011c-.01-.918-.031-1.85-.06-2.797M377.438 192.776l-.89.052c.056.935.102 1.862.14 2.778l.89-.037c-.037-.919-.086-1.85-.14-2.793M376.581 86.861l-.891.03c.033.98.054 1.91.057 2.781l.895-.007a109.44 109.44 0 0 0-.061-2.804M377.135 188.316l-.887.067c.07.936.137 1.862.198 2.778l.891-.059c-.062-.92-.13-1.849-.202-2.786M376.747 183.862l-.888.086c.088.93.172 1.855.25 2.773l.89-.076c-.08-.922-.163-1.85-.252-2.783M371.727 37.98l-.886.098.319 2.775.886-.103-.32-2.77M369.902 20.23l-.89.071c.072.89.155 1.822.242 2.786l.89-.081c-.09-.962-.171-1.888-.242-2.775M369.595 15.787l-.888.047c.043.87.102 1.803.174 2.795l.891-.063c-.073-.987-.132-1.915-.177-2.779M370.3 24.67l-.89.087c.087.9.18 1.828.277 2.78l.886-.092c-.095-.949-.188-1.874-.273-2.775M369.509 13.347l-.893.01c.004.258.01.521.02.795l.892-.029a38.681 38.681 0 0 1-.02-.776M371.226 33.546l-.886.098.313 2.773.884-.1-.31-2.771M370.748 29.11l-.886.092.296 2.775.887-.095-.297-2.773M372.754 46.845l-.887.104.323 2.77.888-.103-.324-2.77M372.24 42.412l-.889.102.323 2.77.887-.101-.322-2.771M372.45 214.038c-.42.84-.848 1.672-1.265 2.482l.793.408c.42-.811.846-1.647 1.269-2.49l-.796-.4M373.271 51.278l-.887.103.32 2.774.887-.1-.32-2.777M371.89 207.718c-2.228 0-4.69.998-6.468 2.007-2.007 1.138-3.758 2.681-4.456 4.844l.278.048c1.032-1.738 2.495-2.963 4.326-4.021 1.301-.75 2.693-1.326 4.104-1.838 1.136-.415 2.372-.822 3.594-.85l.004-.002h.178a6.2 6.2 0 0 0-1.56-.188" fill="#5C7A89"/><path d="M360.966 214.569c-.11.338-.192.692-.247 1.062.161-.356.336-.694.525-1.014l-.278-.048" fill="#55717E"/><path d="M353.133 200.07c-1.046.101-1.846.419-2.59 1.298-.92 1.09-1.563 2.475-2.042 3.854-.931 2.675-1.545 6.003-.854 8.826l.048-.006c-.22-2.449.295-5.025 1.066-7.316.607-1.88 1.565-4.504 3.266-5.483-.293 1.96-.213 4.011-.128 5.985.103 2.188.237 4.38.504 6.552h.013c.052-3.824-.064-7.71.304-11.517.067-.754.223-1.465.413-2.192" fill="#5C7A89"/><path d="M352.403 213.78l.012.094.001-.094h-.013m-4.708.262a1.106 1.106 0 0 0-.048.006c.025.102.052.204.08.306a28.089 28.089 0 0 1-.032-.312" fill="#55717E"/><path d="M370.582 331.574l-12.819.254c1.864-8.727 1.965-23.05-.364-26.802-1.365-2.195-4.173-3.307-6.773-3.702-7.691-9.59 15.911-14.996 28.208-.425-13.566-2.43-8.259 30.654-8.252 30.675" fill="#F89C6D"/><path d="M358.178 306.97c.597 2.16.91 5.347.967 8.88-.057-3.533-.369-6.719-.964-8.879l-.003-.001m11.482 7.575a65.447 65.447 0 0 0-.088 5.323.01.01 0 0 0 .006.002 65.363 65.363 0 0 1 .087-5.319l-.005-.007" fill="#F6B899"/><path d="M358.18 306.971c.596 2.16.908 5.346.965 8.879.004.24.007.481.009.723 2.406.454 6.685 1.59 10.418 3.295a65.447 65.447 0 0 1 .087-5.323c-3.058-3.425-7.834-6.742-11.478-7.574" fill="#F46D41"/><path d="M387.465 296.903c-2.785 3.016-10.948 3.996-13.287 5.604-11.895-12.33-24.736-8.926-21.084-.586-.427-.062-2.631-.592-3.034-.638-5.952-.69-9.673.186-11.72-2.885-2.546-3.814.092-8.455-.469-15.179-2.158-4.024-3.36-5.033-5.196-9.389-.957-4.808 2.263-9.15 6.033-12.16 1.403-9.343 3.807-18.551 4.352-23.828.564-5.462-1.563-13.157-2.433-22.328 10.955-.846 19.808-1.25 38.057 7.078-2.881 4.84-7.028 14.539-8.326 18.507-.686 13.027 7.28 27.538 10.926 32.987 1.146-1.053 3.991-4.53 5.231-5.944 3.498 3.346 8.554 7.268 11.702 9.39-3.62 8.095-9.606 18.128-10.752 19.37" fill="#3470C0"/><path d="M376.223 221.496l.002.002-.002-.002m.034.015l.017.007a.063.063 0 0 1-.017-.007" fill="#273D4A"/><path d="M377.745 222.167" fill="#C4CFD1"/><path d="M376.285 221.524" fill="#273D4A"/><path d="M340.543 251.49c-.654 3.243-1.313 6.703-1.835 10.18-1.864 1.49-3.594 3.303-4.751 5.338 1.157-2.035 2.887-3.849 4.751-5.337.522-3.477 1.183-6.938 1.835-10.181M337.929 284.13000000000005a.144.144 0 0 1 .001.024l-.001-.024m.002.04v.002-.002m11.855 17.082l.002.002h.005l-.001-.002h-.006" fill="#C4CFD1"/><path d="M348.062 301.096v.001c.547.04 1.119.092 1.711.156l.014.002v-.002a49.524 49.524 0 0 0-1.725-.156" fill="#667067"/><path d="M350.132 215.1h-.004c11.088.606 21.245 8.705 22.271 13.56-3.209-1.7-9.365-8.278-20.029-9.173 5.503.974 16.117 7.183 16.438 12.435 0 0-2.76 3.674-3.476 10.356-.22 2.06.197 10.463.783 14.68-3.02 2.274-10.327 3.12-16.887 3.12-3.745 0-7.246-.276-9.567-.72 0 0 .484-4.509 1.166-8.593-.05.258-.15.497-.284.725-.652 3.243-1.313 6.704-1.834 10.18-1.865 1.49-3.595 3.303-4.752 5.338-.841 1.48-1.38 3.079-1.446 4.753a8.794 8.794 0 0 0 .164 2.07c1.836 4.355 3.038 5.364 5.196 9.388.026.307.044.608.058.905v.006l.001.024.002.016v.002c.215 5.139-1.295 9.022-.453 12.267.1-3.399.871-4.663 1.975-4.663 2.484 0 6.646 6.41 8.609 9.32.551.04 1.127.09 1.724.156h.006l-.055-.102c-2.761-6.28-11.206-18.008-14.888-24.487.188-2.667 10.762-3.6 19.864-3.6 5.768.002 10.946.375 12.519.92 4.587 1.587 12.726 7.351 14.074 16.151-1.348-14.047 3.622-17.464 5.123-20.222 4.24 2.906 11.787 7.62 11.787 7.62a67.715 67.715 0 0 1-1.625-1.134c-1.377-.952-6.101-4.29-9.105-7.348a56.944 56.944 0 0 1-.971-.908c-1.24 1.413-4.086 4.89-5.232 5.944-3.497-5.226-10.966-18.785-10.967-31.378 0-.539.014-1.075.042-1.609 1.298-3.968 5.444-13.668 8.325-18.507a124.397 124.397 0 0 0-2.427-1.081l-.03-.014-.003-.001c-11.439-4.956-19.046-6.3-26.091-6.397" fill="#29599F"/><path d="M410.341 247.279c-4.106 12.193-8.784 21.446-13.36 29.384 0 0-5.947-4.001-9.495-7.613 2.48-3.735 5.894-10.008 10.73-19.182-6.198-9.903-9.766-24.2-16.935-33.253-1.2-1.439 1.27-7.577 3.075-11.039.888-1.705.928-2.857.951-4.775.044-3.182 1.027-4.803 3.062-4.77.157.43-.433 2.744.013 4.894.041.202-.272 2.066-.569 3.737 1.288-.104 3.188-.241 4.45-.265.437 2.404.617 3.952.617 3.952-.333.793-4.156 4.1-6.451 8.369 8.575 11.632 19.303 19.63 23.912 30.56" fill="#F89C6D"/><path d="M381.281 216.615c7.169 9.052 10.737 23.35 16.936 33.253-4.837 9.174-8.251 15.447-10.73 19.182 3.547 3.612 9.493 7.613 9.493 7.613.17-.293-6.823-6.88-6.823-6.88.433-1.407 9.994-19.008 9.528-20.213-4.439-5.104-12.067-26.38-18.404-32.955" fill="#F57F52"/><path d="M346.519 301c-1.369-2.74-4.609-9.52-8.567-17.824 4.839 6.806 9.118 14.255 11.837 18.078-1.18-.128-2.266-.2-3.27-.254" fill="#8A8D7E"/><path d="M343.064 349.183c2.03 5.018 9.984 6.984 16.099 9.24 5.205-1.815 11.63-4.14 17.02-10.387 3.13-3.628 2.116-20.672-.63-24.073-3.854-4.762-16.1-7.589-18.041-7.611-2.321-.027-7.527 4.013-10.333 6.943-6.647 6.937-6.797 19.274-4.115 25.888" fill="#F89C6D"/><path d="M371.69 320.952c2.538 1.863 4.084 5.9 4.579 10.325.589.86.996 1.864 1.16 2.965a7.089 7.089 0 0 1-1.516 5.545c-.336 1.612-.832 3.112-1.493 4.4-2.383 3.356-3.683 7.364-10.528 10.522.68.323 1.366.664 2.06 1.024 15.317-12.456 12.99-25.083 8.453-32.934-.765-.658-1.68-1.271-2.683-1.837l-.033-.01m-30.244 18.69c-.01 1.798.137 3.543.413 5.156.454.369.927.716 1.418 1.045-.625-1.421-.986-3.458-1.16-5.677a6.96 6.96 0 0 1-.67-.525" fill="#F68859"/></g></g><g transform="matrix(1 0 0 -1 54.306 50.085)"><mask id="v" fill="#fff"><use xlink:href="#u"/></mask><g mask="url(#v)"><path d="M0 0h410.794v398.833H0z" fill-rule="nonzero" fill="url(#w)" transform="translate(-363.156 -327.76)"/></g></g><g transform="matrix(1 0 0 -1 66.734 46.634)"><mask id="y" fill="#fff"><use xlink:href="#x"/></mask><g mask="url(#y)"><path d="M0 0h410.794v398.833H0z" fill-rule="nonzero" fill="url(#z)" transform="translate(-375.583 -331.211)"/></g></g><g transform="matrix(1 0 0 -1 32.213 50.775)"><mask id="B" fill="#fff"><use xlink:href="#A"/></mask><g mask="url(#B)"><path d="M0 0h410.794v398.833H0z" fill-rule="nonzero" fill="url(#C)" transform="translate(-341.063 -327.07)"/></g></g><g transform="matrix(1 0 0 -1 32.213 44.564)"><mask id="E" fill="#fff"><use xlink:href="#D"/></mask><g mask="url(#E)"><path d="M0 0h410.794v398.833H0z" fill-rule="nonzero" fill="url(#F)" transform="translate(-341.063 -333.281)"/></g></g><g transform="matrix(1 0 0 -1 -308.85 377.845)"><mask id="H" fill="#fff"><use xlink:href="#G"/></mask><g mask="url(#H)" fill-rule="nonzero"><path d="M358.444 321.604c-3.652 0-4.439 2.058-5.061 3.154.811-1.077 1.186-2.246 3.849-2.522.264-.027.557-.042.867-.042 1.657 0 3.806.453 4.682 2.06.243.546.453.95.636 1.249-.2-.414-.877-3.689-4.405-3.883-.197-.01-.386-.016-.568-.016M351.931 325.404c-1.614 0-2.02 1.33-.666 2.407-.177-.56.407-1.271 1.087-1.626-.478.077-.878.258-1.157.605.035-.569.548-1.025 1.357-1.367-.238-.007-.385-.01-.418-.013a3.41 3.41 0 0 0-.203-.006m11.801.295c.739.378 1.195.858 1.206 1.44-.271-.274-.608-.436-1.006-.525.31.221.97.67.745 1.58 1.829-1.53.385-2.37-.882-2.49-.015-.002-.036-.004-.063-.005" fill="#F68958"/><path d="M352.163 325.867c2.069-1.196 1.42-3.254 5.069-3.631 1.677-.172 4.51.11 5.55 2.019.418.943.743 1.461.995 1.75l-11.614-.138" fill="#F04138"/><path d="M357.773 326.775c-2.269-.083-5.438-1.4-6.578.015.185-3.001 13.679-2.844 13.743.348-.804-.807-2.183-.646-4.031-.483-.93.082-1.98.164-3.134.12" fill="#E7322A"/><path d="M357.932 324.95c-2.27-.08-6.178.182-6.737 1.84.185-3.001 13.679-2.844 13.743.348-.444-1.613-3.57-2.059-7.006-2.188" fill="#CE2524"/><path d="M360.337 323.23c-.12 0-.22.038-.294.125-.123.141-.382.717.056.98.199.114 1.656.403 2.149.403.114 0 .176-.014.159-.052-.11-.233-1.387-1.455-2.07-1.455" fill="#F25141"/><path d="M360.154 325.336l-.036.001c-.294.023-.436.522-.166.706.078.05.267.072.504.072.611 0 1.536-.146 1.65-.333.088-.15-1.534-.446-1.952-.446" fill="#EB4134"/><path d="M357.438 329.613c-.42 0-.844.042-1.272.128-.537.115-1.09.315-1.612.696-.504.38-.96 1.078-.958 1.8l.003.254s1.938 1.486 2.666 4.355c.395-2.195-1.247-4.14-1.657-4.8.057-.223 1.206-1.841 4.716-2.15a6.531 6.531 0 0 0-1.887-.283" fill="#F1532C"/><path d="M346.589 343.087c3.74.568 6.055-3.997 6.055-3.997-1.888-1.06-5.528-.864-7.13.19-1.328.88-2.262 2.175 1.075 3.807" fill="#F8E8C6"/><path d="M346.358 341.206c-.057.64.145 1.244.516 1.71 1.666.209 3.2-.603 4.265-1.422a2.388 2.388 0 0 0-2.163-2.453 2.404 2.404 0 0 0-2.618 2.165" fill="#286886"/><path d="M347.199 341.284a1.557 1.557 0 0 1 1.697-1.405c.858.079 1.49.84 1.406 1.696a1.56 1.56 0 0 1-3.104-.291" fill="#3D1D15"/><path d="M345.78 340.304a.824.824 0 0 1 .896-.746.823.823 0 0 1 .747.9.822.822 0 0 1-.9.745.823.823 0 0 1-.743-.899" fill="#F8E8C6"/><path d="M344.889 342.52c.349.343.775.596 1.223.772.894.349 1.89.474 2.903.193a5.49 5.49 0 0 0 2.403-1.545c.64-.7 1.082-1.588 1.175-2.501-.54.746-1.116 1.353-1.77 1.858-.661.491-1.381.89-2.133 1.126-.693.22-1.539.192-2.334.049-.766-.18-1.631-.41-2.02-1.243-.063.465.207.956.553 1.29" fill="#3D1D15"/></g></g><g transform="matrix(1 0 0 -1 33.594 32.834)"><mask id="J" fill="#fff"><use xlink:href="#I"/></mask><g mask="url(#J)"><path d="M0 0h410.794v398.833H0z" fill-rule="nonzero" fill="url(#K)" transform="translate(-342.444 -345.011)"/></g></g><g transform="matrix(1 0 0 -1 -308.85 377.845)"><mask id="M" fill="#fff"><use xlink:href="#L"/></mask><g mask="url(#M)" fill-rule="nonzero"><path d="M366.896 343.615c2.59.6 5.587-.39 5.951-2.553-2.313-2.893-5.574-3.102-10.08-1.664-.103 2.213 2.255 3.787 4.129 4.217" fill="#F8E8C6"/><path d="M367.982 339.797a2.4 2.4 0 0 0-1.702 2.937c.149.554.486 1 .916 1.314 1.423-.041 2.806-.51 3.71-1.304.105-.394.125-.82.016-1.245a2.4 2.4 0 0 0-2.94-1.702" fill="#286886"/><path d="M367.097 342.516a1.553 1.553 0 0 1 1.1-1.906 1.563 1.563 0 0 1 1.913 1.105 1.56 1.56 0 0 1-1.108 1.907 1.554 1.554 0 0 1-1.905-1.106" fill="#3D1D15"/><path d="M365.422 342.088a.825.825 0 0 1 1.594-.426.825.825 0 1 1-1.594.426" fill="#F8E8C6"/><path d="M363.934 342.948c.944.837 2.183 1.24 3.39 1.352 1.22.09 2.46-.088 3.573-.625.55-.268 1.069-.632 1.463-1.119.39-.482.62-1.135.49-1.714-.27 1.164-1.305 1.7-2.28 2.026a8.368 8.368 0 0 1-3.152.324c-1.048-.081-2.08-.371-2.957-.93-.873-.562-1.544-1.444-1.954-2.531-.056 1.157.471 2.401 1.427 3.217" fill="#3D1D15"/></g></g><g transform="matrix(1 0 0 -1 53.616 32.834)"><mask id="O" fill="#fff"><use xlink:href="#N"/></mask><g mask="url(#O)"><path d="M0 0h410.794v398.833H0z" fill-rule="nonzero" fill="url(#P)" transform="translate(-362.466 -345.011)"/></g></g><g transform="matrix(1 0 0 -1 21.166 60.435)"><mask id="R" fill="#fff"><use xlink:href="#Q"/></mask><g mask="url(#R)"><path d="M0 0h410.794v398.833H0z" fill-rule="nonzero" fill="url(#S)" transform="translate(-330.016 -317.41)"/></g></g><g transform="matrix(1 0 0 -1 -308.85 377.845)"><mask id="U" fill="#fff"><use xlink:href="#T"/></mask><g mask="url(#U)" fill-rule="nonzero" fill="#FBE4D9"><path d="M339.728 363.994l.006.006a.021.021 0 0 1-.006-.006m.023.022l.024.023-.024-.023m.029.028l.024.024a.254.254 0 0 1-.024-.024m1.127 1.031l.031.026c-.01-.01-.02-.017-.03-.026m1.31 1.072c.002.002.002.003.004.003-.002 0-.002-.002-.004-.003"/></g></g><g transform="matrix(1 0 0 -1 23.928 29.384)"><mask id="W" fill="#fff"><use xlink:href="#V"/></mask><g mask="url(#W)"><path d="M0 0h410.794v398.833H0z" fill-rule="nonzero" fill="url(#X)" transform="translate(-332.778 -348.462)"/></g></g></g></svg>