<?xml version="1.0" encoding="UTF-8"?>
<svg width="247px" height="71px" viewBox="0 0 247 71" version="1.1" xmlns="http://www.w3.org/2000/svg" xmlns:xlink="http://www.w3.org/1999/xlink">
    <!-- Generator: Sketch 43.2 (39069) - http://www.bohemiancoding.com/sketch -->
    <title>Texto Blancodent Copy</title>
    <desc>Created with Sketch.</desc>
    <defs></defs>
    <g id="Welcome" stroke="none" stroke-width="1" fill="none" fill-rule="evenodd">
        <g id="Tablet-Portrait" transform="translate(-30.000000, -397.000000)">
            <g id="Texto-Blancodent-Copy" transform="translate(29.000000, 397.000000)">
                <path d="M1.34999962,25.08 L12.0749996,25.08 C16.7159996,25.08 22.0199996,26.094 22.0199996,33.738 L22.0199996,34.518 C22.0199996,37.092 21.0059996,38.73 19.4849996,39.783 C21.4349996,40.836 22.7999996,42.669 22.7999996,45.75 L22.7999996,46.53 C22.7999996,54.447 17.1059996,55.5 12.2699996,55.5 L1.34999962,55.5 L1.34999962,25.08 Z M12.4649996,43.176 L8.75999962,43.176 L8.75999962,49.104 L12.4649996,49.104 C13.6739996,49.104 15.3119996,48.675 15.3119996,46.296 L15.3119996,45.984 C15.3119996,43.605 13.6739996,43.176 12.4649996,43.176 Z M11.9579996,31.476 L8.75999962,31.476 L8.75999962,36.78 L11.9579996,36.78 C13.0499996,36.78 14.5319996,36.468 14.5319996,34.362 L14.5319996,33.894 C14.5319996,31.788 13.0499996,31.476 11.9579996,31.476 Z M44.6399996,55.5 L44.6399996,49.104 L33.9149996,49.104 L33.9149996,25.08 L26.5049996,25.08 L26.5049996,55.5 L44.6399996,55.5 Z M52.8299996,25.08 L62.9699996,25.08 L70.2239996,55.5 L62.3069996,55.5 L61.0589996,49.338 L54.7409996,49.338 L53.5319996,55.5 L45.5759996,55.5 L52.8299996,25.08 Z M57.8999996,33.66 L56.0279996,42.942 L59.7719996,42.942 L57.8999996,33.66 Z M95.5349996,25.08 L88.5149996,25.08 L88.5149996,36 L88.7099996,41.85 L80.3249996,25.08 L72.5249996,25.08 L72.5249996,55.5 L79.5449996,55.5 L79.5449996,44.58 L79.3499996,38.73 L87.7349996,55.5 L95.5349996,55.5 L95.5349996,25.08 Z M106.299,41.07 L106.299,39.51 C106.299,34.245 106.845,30.93 110.55,30.93 L110.94,30.93 C113.865,30.93 114.45,33.27 114.45,36.78 L121.86,36.78 L121.86,35.259 C121.86,27.42 117.999,24.534 110.55,24.534 C102.36,24.534 98.7719996,28.98 98.7719996,39.51 L98.7719996,41.07 C98.7719996,51.6 102.36,56.046 110.55,56.046 C117.999,56.046 121.86,53.16 121.86,45.321 L121.86,44.97 L114.45,44.97 C114.45,47.7 113.553,49.65 110.94,49.65 L110.55,49.65 C106.845,49.65 106.299,46.335 106.299,41.07 Z M136.485,56.046 C128.295,56.046 124.512,51.6 124.512,41.07 L124.512,39.51 C124.512,28.98 128.295,24.534 136.485,24.534 C144.675,24.534 148.458,28.98 148.458,39.51 L148.458,41.07 C148.458,51.6 144.675,56.046 136.485,56.046 Z M136.29,49.65 L136.68,49.65 C140.19,49.65 140.931,46.335 140.931,41.07 L140.931,39.51 C140.931,34.245 140.19,30.93 136.68,30.93 L136.29,30.93 C132.78,30.93 132.039,34.245 132.039,39.51 L132.039,41.07 C132.039,46.335 132.78,49.65 136.29,49.65 Z M174.588,41.07 C174.588,51.6 171,55.5 161.445,55.5 L151.695,55.5 L151.695,25.08 L161.445,25.08 C171,25.08 174.588,28.98 174.588,39.51 L174.588,41.07 Z M159.105,49.104 L161.055,49.104 C166.125,49.104 167.061,46.335 167.061,41.07 L167.061,39.51 C167.061,34.245 166.125,31.476 161.055,31.476 L159.105,31.476 L159.105,49.104 Z M177.825,25.08 L177.825,55.5 L196.935,55.5 L196.935,49.104 L185.235,49.104 L185.235,43.176 L194.985,43.176 L194.985,36.78 L185.235,36.78 L185.235,31.476 L196.935,31.476 L196.935,25.08 L177.825,25.08 Z M223.455,25.08 L216.435,25.08 L216.435,36 L216.63,41.85 L208.245,25.08 L200.445,25.08 L200.445,55.5 L207.465,55.5 L207.465,44.58 L207.27,38.73 L215.655,55.5 L223.455,55.5 L223.455,25.08 Z M240.225,31.476 L247.05,31.476 L247.05,25.08 L225.99,25.08 L225.99,31.476 L232.815,31.476 L232.815,55.5 L240.225,55.5 L240.225,31.476 Z" id="BLANCODENT" stroke="#000000" stroke-width="0.4" fill="#FFFFFF"></path>
                <path d="M14.7170004,10.49 C14.7170004,16.7 12.6010004,19 6.96600038,19 L1.21600038,19 L1.21600038,1.06 L6.96600038,1.06 C12.6010004,1.06 14.7170004,3.36 14.7170004,9.57 L14.7170004,10.49 Z M5.58600038,15.228 L6.73600038,15.228 C9.72600038,15.228 10.2780004,13.595 10.2780004,10.49 L10.2780004,9.57 C10.2780004,6.465 9.72600038,4.832 6.73600038,4.832 L5.58600038,4.832 L5.58600038,15.228 Z M27.7810004,14.4 L20.2830004,14.4 C20.4210004,15.78 21.1110004,16.148 22.1690004,16.148 C23.0890004,16.148 23.8020004,15.665 23.8020004,15.09 L27.7810004,15.09 L27.7810004,15.182 C27.7810004,17.62 25.6880004,19.322 22.1460004,19.322 C17.9830004,19.322 16.0510004,16.815 16.0510004,13.25 L16.0510004,12.56 C16.0510004,8.995 18.0750004,6.488 22.0080004,6.488 C25.9410004,6.488 27.7810004,8.995 27.7810004,12.56 L27.7810004,14.4 Z M21.9160004,9.662 C20.9270004,9.662 20.3980004,10.122 20.2830004,11.41 L23.5490004,11.41 C23.4340004,10.122 22.9050004,9.662 21.9160004,9.662 Z M41.0290004,19 L41.0290004,10.835 C41.0290004,8.65 40.1090004,6.488 37.2340004,6.488 C35.4170004,6.488 34.1750004,7.247 33.3700004,8.328 L33.0940004,6.81 L29.2760004,6.81 L29.5060004,10.26 L29.5060004,19 L33.7380004,19 L33.7380004,11.065 C33.9680004,10.72 34.5890004,10.122 35.5090004,10.122 C36.6590004,10.122 36.7970004,10.95 36.7970004,11.525 L36.7970004,19 L41.0290004,19 Z M48.1820004,6.81 L48.1820004,3.36 L43.9500004,3.36 L43.9500004,6.81 L42.1100004,6.81 L42.1100004,10.49 L43.9500004,10.49 L43.9500004,14.515 C43.9500004,18.08 45.9050004,19.322 48.8260004,19.322 C49.9760004,19.322 50.6660004,19.115 50.8730004,19 L50.8730004,15.55 C50.7580004,15.596 50.1830004,15.688 49.8150004,15.688 C48.8490004,15.688 48.1820004,15.435 48.1820004,14.055 L48.1820004,10.49 L51.1030004,10.49 L51.1030004,6.81 L48.1820004,6.81 Z M60.1650004,19 L59.9350004,17.85 C59.0840004,18.747 57.8650004,19.322 56.2550004,19.322 C53.3800004,19.322 52.4600004,17.505 52.4600004,15.55 L52.4600004,15.32 C52.4600004,12.675 54.2310004,11.778 56.9450004,11.364 L59.5210004,10.95 C59.4750004,10.076 59.1300004,9.662 58.2100004,9.662 C57.1750004,9.662 56.8990004,10.26 56.8990004,10.835 L52.9200004,10.835 L52.9200004,10.628 C52.9200004,8.42 54.1850004,6.488 58.3250004,6.488 C62.4880004,6.488 63.7530004,8.167 63.7530004,11.18 L63.7530004,15.55 L63.9830004,19 L60.1650004,19 Z M57.8650004,15.918 C58.5780004,15.918 59.1760004,15.573 59.5210004,15.251 L59.5210004,13.388 L57.8650004,13.641 C56.8760004,13.802 56.6690004,14.239 56.6690004,14.791 L56.6690004,14.929 C56.6690004,15.412 56.9910004,15.918 57.8650004,15.918 Z M65.8690004,19 L70.1010004,19 L70.1010004,0.6 L65.8690004,0.6 L65.8690004,19 Z M81.0030004,10.49 L81.0030004,9.57 C81.0030004,6.465 81.3250004,4.51 83.5100004,4.51 L83.7400004,4.51 C85.4650004,4.51 85.8100004,5.89 85.8100004,7.96 L90.1800004,7.96 L90.1800004,7.063 C90.1800004,2.44 87.9030004,0.738 83.5100004,0.738 C78.6800004,0.738 76.5640004,3.36 76.5640004,9.57 L76.5640004,10.49 C76.5640004,16.7 78.6800004,19.322 83.5100004,19.322 C87.9030004,19.322 90.1800004,17.62 90.1800004,12.997 L90.1800004,12.79 L85.8100004,12.79 C85.8100004,14.4 85.2810004,15.55 83.7400004,15.55 L83.5100004,15.55 C81.3250004,15.55 81.0030004,13.595 81.0030004,10.49 Z M92.0890004,19 L96.3210004,19 L96.3210004,0.6 L92.0890004,0.6 L92.0890004,19 Z M98.5290004,19 L102.761,19 L102.761,6.81 L98.5290004,6.81 L98.5290004,19 Z M102.83,1.06 L98.4600004,1.06 L98.4600004,5.43 L102.83,5.43 L102.83,1.06 Z M116.538,19 L116.538,10.835 C116.538,8.65 115.618,6.488 112.743,6.488 C110.926,6.488 109.684,7.247 108.879,8.328 L108.603,6.81 L104.785,6.81 L105.015,10.26 L105.015,19 L109.247,19 L109.247,11.065 C109.477,10.72 110.098,10.122 111.018,10.122 C112.168,10.122 112.306,10.95 112.306,11.525 L112.306,19 L116.538,19 Z M118.654,19 L122.886,19 L122.886,6.81 L118.654,6.81 L118.654,19 Z M122.955,1.06 L118.585,1.06 L118.585,5.43 L122.955,5.43 L122.955,1.06 Z M128.774,13.365 L128.774,12.445 C128.774,10.95 129.165,10.122 130.292,10.122 C131.12,10.122 131.626,10.582 131.626,11.64 L135.605,11.64 L135.605,11.088 C135.605,8.19 133.742,6.488 130.2,6.488 C126.267,6.488 124.565,8.88 124.565,12.445 L124.565,13.365 C124.565,16.93 126.267,19.322 130.2,19.322 C133.742,19.322 135.605,17.62 135.605,14.952 L135.605,14.4 L131.626,14.4 C131.626,15.205 131.12,15.688 130.292,15.688 C129.165,15.688 128.774,14.86 128.774,13.365 Z" id="Dental-Clinic" fill="#464646"></path>
                <path d="M3.45249991,60.1308 L4.57519987,60.1308 L7.02769979,68.7199997 L6.17749982,68.7199997 L5.56709984,66.5399998 L2.46059995,66.5399998 L1.85019997,68.7199997 L1,68.7199997 L3.45249991,60.1308 Z M4.00839989,60.9919 L2.65679994,65.8314998 L5.35999985,65.8314998 L4.00839989,60.9919 Z M8.51703611,68.7199997 L6.50053618,62.9429999 L7.31803615,62.9429999 L9.01843609,68.0005997 L10.729736,62.9429999 L11.547236,62.9429999 L9.51983607,68.7199997 L8.51703611,68.7199997 Z M14.1810723,62.8230999 C14.9876723,62.8230999 15.4999722,63.1718999 15.8160722,63.6078999 L15.8160722,60 L16.5790722,60 L16.5790722,67.0849998 L16.6444722,68.7199997 L16.0013722,68.7199997 L15.8923722,67.9460997 C15.5980722,68.4365997 15.0530722,68.8398997 14.1810723,68.8398997 C12.6005723,68.8398997 11.9683724,67.5645997 11.9683724,65.9622998 L11.9683724,65.7006998 C11.9683724,64.0983999 12.6005723,62.8230999 14.1810723,62.8230999 Z M14.3445723,68.1531997 C15.1293722,68.1531997 15.5762722,67.6408997 15.8160722,67.2593997 L15.8160722,64.4035998 C15.5762722,64.0220999 15.1293722,63.5097999 14.3445723,63.5097999 C13.2545723,63.5097999 12.7422723,64.3599998 12.7422723,65.7006998 L12.7422723,65.9622998 C12.7422723,67.3029997 13.2545723,68.1531997 14.3445723,68.1531997 Z M21.2185084,68.7199997 L21.0986084,67.9133997 C20.7171084,68.4147997 20.0631084,68.8398997 19.0603085,68.8398997 C18.0030085,68.8398997 17.3926085,68.1858997 17.3926085,67.2593997 L17.3926085,67.1503997 C17.3926085,65.8968998 18.3409085,65.5371998 19.2783085,65.3954998 L21.0223084,65.1229998 L21.0223084,64.9703998 C21.0223084,63.9784999 20.7062084,63.4661999 19.6816085,63.4661999 C18.5916085,63.4661999 18.3409085,64.0983999 18.3409085,64.8504998 L17.6106085,64.8504998 L17.6106085,64.7523998 C17.6106085,63.8803999 17.9921085,62.8230999 19.6925085,62.8230999 C21.2948084,62.8230999 21.7853084,63.6950999 21.7853084,64.9703998 L21.7853084,67.0849998 L21.8507084,68.7199997 L21.2185084,68.7199997 Z M19.2565085,68.1749997 C20.3247084,68.1749997 20.8152084,67.5972997 21.0223084,67.2593997 L21.0223084,65.6788998 L19.3437085,65.9513998 C18.6025085,66.0821998 18.1556085,66.4418998 18.1556085,67.0958998 L18.1556085,67.1939997 C18.1556085,67.7062997 18.4826085,68.1749997 19.2565085,68.1749997 Z M23.7542447,67.7389997 L22.7732447,67.7389997 L22.7732447,68.7199997 L23.7542447,68.7199997 L23.7542447,67.7389997 Z M33.0331171,61.5804999 L33.0004171,63.4770999 L33.0004171,68.7199997 L33.7852171,68.7199997 L33.7852171,60.218 L32.6843171,60.218 L30.2100172,67.3683997 L27.7357173,60.218 L26.6348173,60.218 L26.6348173,68.7199997 L27.4196173,68.7199997 L27.4196173,63.4770999 L27.3760173,61.5804999 L29.8503172,68.7199997 L30.5588172,68.7199997 L33.0331171,61.5804999 Z M39.5800532,66.1475998 L35.4925534,66.1475998 C35.5252534,67.4119997 36.0593534,68.1967997 37.2147533,68.1967997 C38.3701533,68.1967997 38.8497533,67.4882997 38.8497533,66.8669998 L39.5800532,66.8669998 L39.5800532,66.9105998 C39.5800532,67.8043997 38.8388533,68.8398997 37.2147533,68.8398997 C35.4707534,68.8398997 34.7186534,67.5536997 34.7186534,65.9513998 L34.7186534,65.7115998 C34.7186534,64.1092999 35.4707534,62.8230999 37.1602533,62.8230999 C38.8497533,62.8230999 39.5800532,64.1092999 39.5800532,65.7115998 L39.5800532,66.1475998 Z M37.1493533,63.4661999 C36.0593534,63.4661999 35.5252534,64.2618999 35.4925534,65.5153998 L38.8061533,65.5153998 C38.7625533,64.2618999 38.2502533,63.4661999 37.1493533,63.4661999 Z M42.5626895,68.1967997 C41.4181895,68.1967997 41.1020896,67.5863997 41.1020896,66.9541998 L40.3390896,66.9541998 L40.3390896,66.9977998 C40.3390896,67.8806997 40.9276896,68.8398997 42.5626895,68.8398997 C43.9905895,68.8398997 44.7862894,68.1422997 44.7862894,67.1394998 L44.7862894,67.0849998 C44.7862894,66.0276998 44.1649895,65.6134998 42.7152895,65.4935998 C41.4617895,65.3954998 41.1783896,65.0684998 41.1783896,64.4689998 C41.1783896,63.8258999 41.6906895,63.4661999 42.5626895,63.4661999 C43.6417895,63.4661999 43.9687895,63.9784999 43.9687895,64.8068998 L44.7208894,64.8068998 L44.7208894,64.7632998 C44.7208894,63.6296999 44.1431895,62.8230999 42.5626895,62.8230999 C41.2110896,62.8230999 40.4153896,63.4661999 40.4153896,64.4689998 L40.4153896,64.5343998 C40.4153896,65.3954998 40.8622896,65.9404998 42.4209895,66.0712998 C43.5436895,66.1693998 44.0014895,66.3546998 44.0014895,67.1394998 C44.0014895,67.7825997 43.5000895,68.1967997 42.5626895,68.1967997 Z M49.3276256,68.7199997 L49.2077256,67.9133997 C48.8262257,68.4147997 48.1722257,68.8398997 47.1694257,68.8398997 C46.1121258,68.8398997 45.5017258,68.1858997 45.5017258,67.2593997 L45.5017258,67.1503997 C45.5017258,65.8968998 46.4500257,65.5371998 47.3874257,65.3954998 L49.1314256,65.1229998 L49.1314256,64.9703998 C49.1314256,63.9784999 48.8153257,63.4661999 47.7907257,63.4661999 C46.7007257,63.4661999 46.4500257,64.0983999 46.4500257,64.8504998 L45.7197258,64.8504998 L45.7197258,64.7523998 C45.7197258,63.8803999 46.1012258,62.8230999 47.8016257,62.8230999 C49.4039256,62.8230999 49.8944256,63.6950999 49.8944256,64.9703998 L49.8944256,67.0849998 L49.9598256,68.7199997 L49.3276256,68.7199997 Z M47.3656257,68.1749997 C48.4338257,68.1749997 48.9243257,67.5972997 49.1314256,67.2593997 L49.1314256,65.6788998 L47.4528257,65.9513998 C46.7116257,66.0821998 46.2647257,66.4418998 46.2647257,67.0958998 L46.2647257,67.1939997 C46.2647257,67.7062997 46.5917257,68.1749997 47.3656257,68.1749997 Z M54.5625982,67.6626997 L52.9166983,62.9429999 L52.0991983,62.9429999 L54.1701982,68.5019997 L53.2654982,70.8999996 L54.1483982,70.8999996 L54.9658982,68.5019997 L57.0368981,62.9429999 L56.2193981,62.9429999 L54.5625982,67.6626997 Z M63.6997706,68.7199997 L63.6997706,68.0114997 L60.1027707,68.0114997 L60.1027707,60.218 L59.3179708,60.218 L59.3179708,68.7199997 L63.6997706,68.7199997 Z M66.4317069,68.8398997 C64.731307,68.8398997 64.001007,67.5645997 64.001007,65.9622998 L64.001007,65.7006998 C64.001007,64.0983999 64.731307,62.8230999 66.4317069,62.8230999 C68.1321068,62.8230999 68.8624068,64.0983999 68.8624068,65.7006998 L68.8624068,65.9622998 C68.8624068,67.5645997 68.1321068,68.8398997 66.4317069,68.8398997 Z M66.4317069,68.1531997 C67.5762069,68.1531997 68.0885068,67.2811997 68.0885068,65.9622998 L68.0885068,65.7006998 C68.0885068,64.3817998 67.5762069,63.5097999 66.4317069,63.5097999 C65.2872069,63.5097999 64.7749069,64.3817998 64.7749069,65.7006998 L64.7749069,65.9622998 C64.7749069,67.2811997 65.2872069,68.1531997 66.4317069,68.1531997 Z M67.0203069,60.218 L66.0393069,62.0273999 L66.8241069,62.0273999 L67.8487068,60.218 L67.0203069,60.218 Z M72.1175431,68.8398997 C71.3109431,68.8398997 70.7877431,68.5019997 70.4825431,68.0659997 L70.4825431,70.8999996 L69.7195431,70.8999996 L69.7195431,64.5779998 L69.6541431,62.9429999 L70.2863431,62.9429999 L70.3953431,63.7277999 C70.7005431,63.2372999 71.2346431,62.8230999 72.1175431,62.8230999 C73.698043,62.8230999 74.330243,64.0983999 74.330243,65.7006998 L74.330243,65.9622998 C74.330243,67.5645997 73.698043,68.8398997 72.1175431,68.8398997 Z M70.4825431,64.4035998 L70.4825431,67.2593997 C70.7114431,67.6408997 71.1583431,68.1531997 71.9431431,68.1531997 C73.033143,68.1531997 73.545443,67.3029997 73.545443,65.9622998 L73.545443,65.7006998 C73.545443,64.3599998 73.033143,63.5097999 71.9431431,63.5097999 C71.1583431,63.5097999 70.7114431,64.0220999 70.4825431,64.4035998 Z M79.8525792,66.1475998 L75.7650793,66.1475998 C75.7977793,67.4119997 76.3318793,68.1967997 77.4872792,68.1967997 C78.6426792,68.1967997 79.1222792,67.4882997 79.1222792,66.8669998 L79.8525792,66.8669998 L79.8525792,66.9105998 C79.8525792,67.8043997 79.1113792,68.8398997 77.4872792,68.8398997 C75.7432793,68.8398997 74.9911793,67.5536997 74.9911793,65.9513998 L74.9911793,65.7115998 C74.9911793,64.1092999 75.7432793,62.8230999 77.4327792,62.8230999 C79.1222792,62.8230999 79.8525792,64.1092999 79.8525792,65.7115998 L79.8525792,66.1475998 Z M77.4218792,63.4661999 C76.3318793,63.4661999 75.7977793,64.2618999 75.7650793,65.5153998 L79.0786792,65.5153998 C79.0350792,64.2618999 78.5227792,63.4661999 77.4218792,63.4661999 Z M80.3827155,68.1967997 L80.3827155,68.7199997 L84.6446154,68.7199997 L84.6446154,68.0332997 L82.6390154,68.0332997 L81.3528155,68.0441997 L84.5356154,63.4661999 L84.5356154,62.9429999 L80.4917155,62.9429999 L80.4917155,63.6296999 L82.2684154,63.6296999 L83.5546154,63.6187999 L80.3827155,68.1967997 Z M86.3083517,67.7389997 L85.3273517,67.7389997 L85.3273517,68.7199997 L85.8396517,68.7199997 C85.7960517,69.3412997 85.5235517,69.5483997 85.0766517,69.5483997 L85.0766517,70.0061996 C85.8832517,70.0061996 86.3083517,69.5156997 86.3083517,68.5237997 L86.3083517,67.7389997 Z M94.3664241,68.7199997 L94.3664241,68.0114997 L92.1537242,68.0114997 L92.1537242,60.1744 L91.6523242,60.1744 L88.9818243,61.9837999 L89.3742243,62.5832999 L91.3798242,61.2208 L91.3798242,68.0114997 L89.1562243,68.0114997 L89.1562243,68.7199997 L94.3664241,68.7199997 Z M96.7455968,65.2537998 L99.4596967,65.2537998 L99.4596967,64.5561998 L96.7455968,64.5561998 L96.7455968,65.2537998 Z M107.267069,68.7199997 L107.267069,68.0114997 L105.054369,68.0114997 L105.054369,60.1744 L104.552969,60.1744 L101.882469,61.9837999 L102.274869,62.5832999 L104.280469,61.2208 L104.280469,68.0114997 L102.056869,68.0114997 L102.056869,68.7199997 L107.267069,68.7199997 Z M110.685705,64.4907998 L110.587605,63.9130999 C110.304205,64.2836999 109.835505,64.5888998 109.105205,64.5888998 C108.287705,64.5888998 107.840806,64.0874999 107.840806,63.3898999 L107.840806,63.3135999 C107.840806,62.3761999 108.538405,62.1036999 109.279605,61.9837999 L110.522205,61.7984999 L110.522205,61.7003999 C110.522205,61.0246 110.304205,60.6649 109.595705,60.6649 C108.843605,60.6649 108.669205,61.1009 108.669205,61.6131999 L108.004306,61.6131999 L108.004306,61.5368999 C108.004306,60.872 108.320405,60.0981 109.606605,60.0981 C110.838305,60.0981 111.208905,60.7412 111.208905,61.7003999 L111.208905,63.2808999 L111.263405,64.4907998 L110.685705,64.4907998 Z M109.301405,64.0002999 C109.999005,64.0002999 110.358705,63.6296999 110.522205,63.4007999 L110.522205,62.2671999 L109.366805,62.4524999 C108.854505,62.5396999 108.538405,62.8012999 108.538405,63.2590999 L108.538405,63.3244999 C108.538405,63.6732999 108.756405,64.0002999 109.301405,64.0002999 Z M111.263405,66.4091998 L111.263405,65.7878998 L107.938906,65.7878998 L107.938906,66.4091998 L111.263405,66.4091998 Z M113.860578,68.7199997 L114.623578,68.7199997 L114.623578,62.9429999 L113.860578,62.9429999 L113.860578,68.7199997 Z M114.732578,60.5995 L113.751578,60.5995 L113.751578,61.5804999 L114.732578,61.5804999 L114.732578,60.5995 Z M115.415314,68.1967997 L115.415314,68.7199997 L119.677214,68.7199997 L119.677214,68.0332997 L117.671614,68.0332997 L116.385414,68.0441997 L119.568214,63.4661999 L119.568214,62.9429999 L115.524314,62.9429999 L115.524314,63.6296999 L117.301014,63.6296999 L118.587214,63.6187999 L115.415314,68.1967997 Z M123.93515,70.8999996 L123.93515,68.0441997 C123.61905,68.4910997 123.09585,68.8398997 122.28925,68.8398997 C120.708751,68.8398997 120.076551,67.5645997 120.076551,65.9622998 L120.076551,65.7006998 C120.076551,64.0983999 120.708751,62.8230999 122.28925,62.8230999 C123.17215,62.8230999 123.70625,63.2372999 124.01145,63.7386999 L124.12045,62.9429999 L124.76355,62.9429999 L124.68725,64.5779998 L124.68725,70.8999996 L123.93515,70.8999996 Z M123.93515,64.4035998 C123.69535,64.0220999 123.24845,63.5097999 122.46365,63.5097999 C121.373651,63.5097999 120.861351,64.3599998 120.861351,65.7006998 L120.861351,65.9622998 C120.861351,67.3029997 121.373651,68.1531997 122.46365,68.1531997 C123.24845,68.1531997 123.69535,67.6408997 123.93515,67.2593997 L123.93515,64.4035998 Z M125.686087,62.9429999 L125.686087,66.9868998 C125.686087,68.0659997 126.285587,68.8398997 127.440987,68.8398997 C128.421987,68.8398997 129.043287,68.4256997 129.370287,67.9133997 L129.490187,68.7199997 L130.122387,68.7199997 L130.056987,67.0849998 L130.056987,62.9429999 L129.293987,62.9429999 L129.293987,67.2593997 C129.054187,67.6408997 128.607287,68.1531997 127.691687,68.1531997 C126.928687,68.1531997 126.438187,67.7498997 126.438187,66.8778998 L126.438187,62.9429999 L125.686087,62.9429999 Z M131.175723,68.7199997 L131.938723,68.7199997 L131.938723,62.9429999 L131.175723,62.9429999 L131.175723,68.7199997 Z M132.047723,60.5995 L131.066723,60.5995 L131.066723,61.5804999 L132.047723,61.5804999 L132.047723,60.5995 Z M137.733559,66.1475998 L133.646059,66.1475998 C133.678759,67.4119997 134.212859,68.1967997 135.368259,68.1967997 C136.523659,68.1967997 137.003259,67.4882997 137.003259,66.8669998 L137.733559,66.8669998 L137.733559,66.9105998 C137.733559,67.8043997 136.992359,68.8398997 135.368259,68.8398997 C133.624259,68.8398997 132.872159,67.5536997 132.872159,65.9513998 L132.872159,65.7115998 C132.872159,64.1092999 133.624259,62.8230999 135.313759,62.8230999 C137.003259,62.8230999 137.733559,64.1092999 137.733559,65.7115998 L137.733559,66.1475998 Z M135.302859,63.4661999 C134.212859,63.4661999 133.678759,64.2618999 133.646059,65.5153998 L136.959659,65.5153998 C136.916059,64.2618999 136.403759,63.4661999 135.302859,63.4661999 Z M140.879695,62.8230999 C140.105795,62.8230999 139.571695,63.2263999 139.266495,63.7059999 L139.157495,62.9429999 L138.525295,62.9429999 L138.590695,64.5779998 L138.590695,68.7199997 L139.353695,68.7199997 L139.353695,64.4362998 C139.593495,64.0547999 140.018595,63.5642999 140.890595,63.5642999 L141.043195,63.5642999 L141.043195,62.8339999 C141.032295,62.8339999 140.955995,62.8230999 140.879695,62.8230999 Z M143.873232,62.8230999 C144.679832,62.8230999 145.192132,63.1718999 145.508232,63.6078999 L145.508232,60 L146.271232,60 L146.271232,67.0849998 L146.336631,68.7199997 L145.693532,68.7199997 L145.584532,67.9460997 C145.290232,68.4365997 144.745232,68.8398997 143.873232,68.8398997 C142.292732,68.8398997 141.660532,67.5645997 141.660532,65.9622998 L141.660532,65.7006998 C141.660532,64.0983999 142.292732,62.8230999 143.873232,62.8230999 Z M144.036732,68.1531997 C144.821532,68.1531997 145.268432,67.6408997 145.508232,67.2593997 L145.508232,64.4035998 C145.268432,64.0220999 144.821532,63.5097999 144.036732,63.5097999 C142.946732,63.5097999 142.434432,64.3599998 142.434432,65.7006998 L142.434432,65.9622998 C142.434432,67.3029997 142.946732,68.1531997 144.036732,68.1531997 Z M150.910668,68.7199997 L150.790768,67.9133997 C150.409268,68.4147997 149.755268,68.8398997 148.752468,68.8398997 C147.695168,68.8398997 147.084768,68.1858997 147.084768,67.2593997 L147.084768,67.1503997 C147.084768,65.8968998 148.033068,65.5371998 148.970468,65.3954998 L150.714468,65.1229998 L150.714468,64.9703998 C150.714468,63.9784999 150.398368,63.4661999 149.373768,63.4661999 C148.283768,63.4661999 148.033068,64.0983999 148.033068,64.8504998 L147.302768,64.8504998 L147.302768,64.7523998 C147.302768,63.8803999 147.684268,62.8230999 149.384668,62.8230999 C150.986968,62.8230999 151.477468,63.6950999 151.477468,64.9703998 L151.477468,67.0849998 L151.542868,68.7199997 L150.910668,68.7199997 Z M148.948668,68.1749997 C150.016868,68.1749997 150.507368,67.5972997 150.714468,67.2593997 L150.714468,65.6788998 L149.035868,65.9513998 C148.294668,66.0821998 147.847768,66.4418998 147.847768,67.0958998 L147.847768,67.1939997 C147.847768,67.7062997 148.174768,68.1749997 148.948668,68.1749997 Z M153.446404,67.7389997 L152.465404,67.7389997 L152.465404,68.7199997 L153.446404,68.7199997 L153.446404,67.7389997 Z M155.956377,65.2537998 L158.670477,65.2537998 L158.670477,64.5561998 L155.956377,64.5561998 L155.956377,65.2537998 Z M167.465785,68.7199997 L167.465785,68.0114997 L163.868785,68.0114997 L163.868785,60.218 L163.083986,60.218 L163.083986,68.7199997 L167.465785,68.7199997 Z M171.549322,68.7199997 L171.429422,67.9133997 C171.047922,68.4147997 170.393922,68.8398997 169.391122,68.8398997 C168.333822,68.8398997 167.723422,68.1858997 167.723422,67.2593997 L167.723422,67.1503997 C167.723422,65.8968998 168.671722,65.5371998 169.609122,65.3954998 L171.353122,65.1229998 L171.353122,64.9703998 C171.353122,63.9784999 171.037022,63.4661999 170.012422,63.4661999 C168.922422,63.4661999 168.671722,64.0983999 168.671722,64.8504998 L167.941422,64.8504998 L167.941422,64.7523998 C167.941422,63.8803999 168.322922,62.8230999 170.023322,62.8230999 C171.625622,62.8230999 172.116122,63.6950999 172.116122,64.9703998 L172.116122,67.0849998 L172.181522,68.7199997 L171.549322,68.7199997 Z M169.587322,68.1749997 C170.655522,68.1749997 171.146022,67.5972997 171.353122,67.2593997 L171.353122,65.6788998 L169.674522,65.9513998 C168.933322,66.0821998 168.486422,66.4418998 168.486422,67.0958998 L168.486422,67.1939997 C168.486422,67.7062997 168.813422,68.1749997 169.587322,68.1749997 Z M175.262258,68.1967997 C174.117758,68.1967997 173.801658,67.5863997 173.801658,66.9541998 L173.038658,66.9541998 L173.038658,66.9977998 C173.038658,67.8806997 173.627258,68.8398997 175.262258,68.8398997 C176.690158,68.8398997 177.485858,68.1422997 177.485858,67.1394998 L177.485858,67.0849998 C177.485858,66.0276998 176.864558,65.6134998 175.414858,65.4935998 C174.161358,65.3954998 173.877958,65.0684998 173.877958,64.4689998 C173.877958,63.8258999 174.390258,63.4661999 175.262258,63.4661999 C176.341358,63.4661999 176.668358,63.9784999 176.668358,64.8068998 L177.420458,64.8068998 L177.420458,64.7632998 C177.420458,63.6296999 176.842758,62.8230999 175.262258,62.8230999 C173.910658,62.8230999 173.114958,63.4661999 173.114958,64.4689998 L173.114958,64.5343998 C173.114958,65.3954998 173.561858,65.9404998 175.120558,66.0712998 C176.243258,66.1693998 176.701058,66.3546998 176.701058,67.1394998 C176.701058,67.7825997 176.199658,68.1967997 175.262258,68.1967997 Z M181.08583,65.2646998 L181.08583,68.7199997 L180.30103,68.7199997 L180.30103,60.218 L182.65543,60.218 C183.86533,60.218 185.26053,60.6758 185.26053,62.6377999 L185.26053,62.8557999 C185.26053,64.8068998 183.86533,65.2646998 182.65543,65.2646998 L181.08583,65.2646998 Z M181.08583,64.5561998 L182.67723,64.5561998 C183.40753,64.5561998 184.45393,64.2836999 184.45393,62.8230999 L184.45393,62.6595999 C184.45393,61.199 183.40753,60.9265 182.67723,60.9265 L181.08583,60.9265 L181.08583,64.5561998 Z M189.267766,68.7199997 L189.147866,67.9133997 C188.766366,68.4147997 188.112366,68.8398997 187.109567,68.8398997 C186.052267,68.8398997 185.441867,68.1858997 185.441867,67.2593997 L185.441867,67.1503997 C185.441867,65.8968998 186.390167,65.5371998 187.327567,65.3954998 L189.071566,65.1229998 L189.071566,64.9703998 C189.071566,63.9784999 188.755466,63.4661999 187.730866,63.4661999 C186.640867,63.4661999 186.390167,64.0983999 186.390167,64.8504998 L185.659867,64.8504998 L185.659867,64.7523998 C185.659867,63.8803999 186.041367,62.8230999 187.741766,62.8230999 C189.344066,62.8230999 189.834566,63.6950999 189.834566,64.9703998 L189.834566,67.0849998 L189.899966,68.7199997 L189.267766,68.7199997 Z M187.305767,68.1749997 C188.373966,68.1749997 188.864466,67.5972997 189.071566,67.2593997 L189.071566,65.6788998 L187.392967,65.9513998 C186.651767,66.0821998 186.204867,66.4418998 186.204867,67.0958998 L186.204867,67.1939997 C186.204867,67.7062997 186.531867,68.1749997 187.305767,68.1749997 Z M190.931503,68.7199997 L191.694503,68.7199997 L191.694503,60 L190.931503,60 L190.931503,68.7199997 Z M200.203439,68.7199997 L200.203439,64.5343998 C200.203439,63.4443999 199.625739,62.8230999 198.590239,62.8230999 C197.652839,62.8230999 197.075139,63.2590999 196.769939,63.7822999 C196.551939,63.1609999 196.039639,62.8230999 195.276639,62.8230999 C194.371939,62.8230999 193.805139,63.2372999 193.489039,63.7277999 L193.380039,62.9429999 L192.747839,62.9429999 L192.813239,64.5779998 L192.813239,68.7199997 L193.576239,68.7199997 L193.576239,64.3817998 C193.816039,64.0111999 194.208439,63.5097999 195.015039,63.5097999 C195.669039,63.5097999 196.126839,63.7604999 196.126839,64.6433998 L196.126839,68.7199997 L196.889839,68.7199997 L196.889839,64.3817998 C197.129639,64.0111999 197.522039,63.5097999 198.328639,63.5097999 C198.982639,63.5097999 199.440439,63.7604999 199.440439,64.6433998 L199.440439,68.7199997 L200.203439,68.7199997 Z M204.788375,68.7199997 L204.668475,67.9133997 C204.286975,68.4147997 203.632975,68.8398997 202.630175,68.8398997 C201.572875,68.8398997 200.962475,68.1858997 200.962475,67.2593997 L200.962475,67.1503997 C200.962475,65.8968998 201.910775,65.5371998 202.848175,65.3954998 L204.592175,65.1229998 L204.592175,64.9703998 C204.592175,63.9784999 204.276075,63.4661999 203.251475,63.4661999 C202.161475,63.4661999 201.910775,64.0983999 201.910775,64.8504998 L201.180475,64.8504998 L201.180475,64.7523998 C201.180475,63.8803999 201.561975,62.8230999 203.262375,62.8230999 C204.864675,62.8230999 205.355175,63.6950999 205.355175,64.9703998 L205.355175,67.0849998 L205.420575,68.7199997 L204.788375,68.7199997 Z M202.826375,68.1749997 C203.894575,68.1749997 204.385075,67.5972997 204.592175,67.2593997 L204.592175,65.6788998 L202.913575,65.9513998 C202.172375,66.0821998 201.725475,66.4418998 201.725475,67.0958998 L201.725475,67.1939997 C201.725475,67.7062997 202.052475,68.1749997 202.826375,68.1749997 Z M208.501311,68.1967997 C207.356811,68.1967997 207.040711,67.5863997 207.040711,66.9541998 L206.277711,66.9541998 L206.277711,66.9977998 C206.277711,67.8806997 206.866311,68.8398997 208.501311,68.8398997 C209.929211,68.8398997 210.724911,68.1422997 210.724911,67.1394998 L210.724911,67.0849998 C210.724911,66.0276998 210.103611,65.6134998 208.653911,65.4935998 C207.400411,65.3954998 207.117011,65.0684998 207.117011,64.4689998 C207.117011,63.8258999 207.629311,63.4661999 208.501311,63.4661999 C209.580411,63.4661999 209.907411,63.9784999 209.907411,64.8068998 L210.659511,64.8068998 L210.659511,64.7632998 C210.659511,63.6296999 210.081811,62.8230999 208.501311,62.8230999 C207.149711,62.8230999 206.354011,63.4661999 206.354011,64.4689998 L206.354011,64.5343998 C206.354011,65.3954998 206.800911,65.9404998 208.359611,66.0712998 C209.482311,66.1693998 209.940111,66.3546998 209.940111,67.1394998 C209.940111,67.7825997 209.438711,68.1967997 208.501311,68.1967997 Z M215.502084,62.8230999 C216.308684,62.8230999 216.820984,63.1718999 217.137084,63.6078999 L217.137084,60 L217.900084,60 L217.900084,67.0849998 L217.965484,68.7199997 L217.322384,68.7199997 L217.213384,67.9460997 C216.919084,68.4365997 216.374084,68.8398997 215.502084,68.8398997 C213.921584,68.8398997 213.289384,67.5645997 213.289384,65.9622998 L213.289384,65.7006998 C213.289384,64.0983999 213.921584,62.8230999 215.502084,62.8230999 Z M215.665584,68.1531997 C216.450384,68.1531997 216.897284,67.6408997 217.137084,67.2593997 L217.137084,64.4035998 C216.897284,64.0220999 216.450384,63.5097999 215.665584,63.5097999 C214.575584,63.5097999 214.063284,64.3599998 214.063284,65.7006998 L214.063284,65.9622998 C214.063284,67.3029997 214.575584,68.1531997 215.665584,68.1531997 Z M223.61862,66.1475998 L219.53112,66.1475998 C219.56382,67.4119997 220.09792,68.1967997 221.25332,68.1967997 C222.40872,68.1967997 222.88832,67.4882997 222.88832,66.8669998 L223.61862,66.8669998 L223.61862,66.9105998 C223.61862,67.8043997 222.87742,68.8398997 221.25332,68.8398997 C219.50932,68.8398997 218.75722,67.5536997 218.75722,65.9513998 L218.75722,65.7115998 C218.75722,64.1092999 219.50932,62.8230999 221.19882,62.8230999 C222.88832,62.8230999 223.61862,64.1092999 223.61862,65.7115998 L223.61862,66.1475998 Z M221.18792,63.4661999 C220.09792,63.4661999 219.56382,64.2618999 219.53112,65.5153998 L222.84472,65.5153998 C222.80112,64.2618999 222.28882,63.4661999 221.18792,63.4661999 Z M229.256892,68.8398997 C230.608492,68.8398997 231.393292,68.3384997 231.851092,67.8588997 L231.851092,64.5343998 L229.605692,64.5343998 L229.605692,65.2319998 L231.066292,65.2319998 L231.066292,67.4773997 C230.761092,67.8043997 230.172492,68.1313997 229.311392,68.1313997 L229.235092,68.1313997 C227.676392,68.1313997 226.978792,67.1067998 226.978792,64.6869998 L226.978792,64.2509999 C226.978792,61.8311999 227.709092,60.8066 229.147892,60.8066 L229.213292,60.8066 C230.521292,60.8066 231.055392,61.5586999 231.055392,63.3135999 L231.851092,63.3135999 L231.851092,63.0083999 C231.851092,61.09 230.968192,60.0981 229.147892,60.0981 C227.207692,60.0981 226.161292,61.308 226.161292,64.2509999 L226.161292,64.6869998 C226.161292,67.6299997 227.207692,68.8398997 229.256892,68.8398997 Z M233.874529,67.7389997 L232.893529,67.7389997 L232.893529,68.7199997 L233.874529,68.7199997 L233.874529,67.7389997 Z M235.592765,64.6869998 L235.592765,64.2509999 C235.592765,61.8311999 236.246765,60.8066 237.663765,60.8066 L237.740065,60.8066 C239.015365,60.8066 239.549465,61.5586999 239.549465,63.3135999 L240.356065,63.3135999 L240.356065,63.0083999 C240.356065,61.09 239.484065,60.0981 237.674665,60.0981 C235.723565,60.0981 234.786165,61.308 234.786165,64.2509999 L234.786165,64.6869998 C234.786165,67.6299997 235.723565,68.8398997 237.674665,68.8398997 C239.484065,68.8398997 240.356065,67.8479997 240.356065,66.0603998 L240.356065,65.9513998 L239.549465,65.9513998 C239.549465,67.3574997 239.015365,68.1313997 237.740065,68.1313997 L237.663765,68.1313997 C236.235865,68.1313997 235.592765,67.1067998 235.592765,64.6869998 Z M242.172401,67.7389997 L241.191401,67.7389997 L241.191401,68.7199997 L242.172401,68.7199997 L242.172401,67.7389997 Z" id="Avda.-Mesa-y-López," fill="#464646"></path>
            </g>
        </g>
    </g>
</svg>