<svg width="282" height="71" xmlns="http://www.w3.org/2000/svg"><defs><linearGradient x1="0%" y1="50%" x2="93.939%" y2="50%" id="a"><stop stop-color="#69D2E7" offset="0%"/><stop stop-color="#69D2E7" offset="73.521%"/><stop stop-color="#F8F8FF" stop-opacity="0" offset="100%"/></linearGradient></defs><g fill="none" fill-rule="evenodd"><path fill="url(#a)" d="M0 32.5h218V59H0z"/><g transform="translate(198.5)"><path d="M49 .5C29.946.5 14.5 15.946 14.5 35H49V.5z" fill="#D9D5CB"/><path d="M24.605 10.605c-13.473 13.473-13.473 35.317 0 48.79L49 35 24.605 10.605z" fill="#256BC0"/><path d="M49 69.5c-19.054 0-34.5-15.446-34.5-34.5H49v34.5z" fill="#A4C55C"/><path d="M49 .5C68.054.5 83.5 15.946 83.5 35c0 19.054-15.446 34.5-34.5 34.5V.5z" fill="#F55A1E"/><circle stroke="#FFC0A9" stroke-width="5" fill="#FFF" cx="49" cy="35" r="27"/><path d="M44.3 15.63c3.255 2.225 6.497 1.605 8.83 0 2.074-1.842 4.877-.877 4.877-.877s2.649.681 3.869 2.918c.573 1.051 2.963 7.278 3.08 10.26.115 2.983.21 3.382-2.472 5.434s-2.343 4.698-2.343 4.698l.052 12.398s.2 5.134-5.813 6.039c-.196 0-.196-9.411-.196-14.438 0-.537-.718-5.606-5.817-5.606-4.333 0-5.051 5.07-5.051 5.606 0 5.027 0 14.438-.196 14.438-6.012-.905-5.813-6.039-5.813-6.039l.052-12.398s.34-2.646-2.343-4.698c-2.682-2.052-2.587-2.451-2.471-5.434.116-2.982 2.506-9.209 3.08-10.26 1.22-2.237 3.868-2.918 3.868-2.918s2.803-.965 5.47 1.323" stroke="#FF8598" stroke-width="1.651" fill="#FF8598"/></g><path d="M.346 1.393V27.5h8.836c4.217 0 8.803-1.138 8.803-7.497v-.67c0-2.811-1.339-4.418-3.213-5.322 1.506-.87 2.544-2.343 2.544-4.719v-.67c0-6.125-4.318-7.23-8.402-7.23H.346zM9.35 16.522c1.506 0 3.146.602 3.146 2.979v.3c0 2.377-1.64 3.013-3.146 3.013H5.768v-6.292H9.35zM8.88 6.079c1.407 0 2.946.502 2.946 2.644v.435c0 2.142-1.54 2.644-2.945 2.644H5.768V6.08h3.113zM36.529 27.5v-4.686h-9.64V1.393h-5.422V27.5h15.062zm7.497-26.174L37.498 27.5h5.824l1.239-5.623h6.393l1.271 5.623h5.79L51.49 1.326h-7.464zm3.715 6.259l2.142 9.606h-4.284l2.142-9.606zm31.73-6.192h-5.154v10.945l.167 5.255-8.4-16.2h-5.724V27.5h5.12V16.555l-.167-5.255 8.435 16.2h5.724V1.393zm8.67 13.723v-1.339c0-5.221.836-8.133 4.317-8.133h.301c2.845 0 3.615 2.075 3.615 5.656h5.423v-1.205c0-6.527-3.147-9.137-9.339-9.137-6.794 0-9.807 3.782-9.807 12.819v1.339c0 9.037 3.013 12.82 9.807 12.82 6.192 0 9.339-2.612 9.339-9.038v-.301h-5.423c0 2.811-.97 4.652-3.615 4.652h-.3c-3.482 0-4.319-2.912-4.319-8.133zm26.207 12.82c6.795 0 9.974-3.783 9.974-12.82v-1.339c0-9.037-3.18-12.82-9.974-12.82-6.761 0-9.94 3.783-9.94 12.82v1.339c0 9.037 3.179 12.82 9.94 12.82zm-.134-4.687c-3.347 0-4.318-2.912-4.318-8.133v-1.339c0-5.221.971-8.133 4.318-8.133h.301c3.347 0 4.285 2.912 4.285 8.133v1.339c0 5.221-.938 8.133-4.285 8.133h-.3zm32.3-8.133v-1.339c0-9.037-3.247-12.384-11.013-12.384h-7.999V27.5h8c7.765 0 11.011-3.347 11.011-12.384zm-13.59 7.698V6.08h2.276c4.519 0 5.79 2.477 5.79 7.698v1.339c0 5.221-1.271 7.698-5.79 7.698h-2.276zm16.769-21.421V27.5h15.966v-4.686h-10.544v-6.292h8.87v-4.686h-8.87V6.079h10.544V1.393h-15.966zm38.29 0h-5.154v10.945l.167 5.255-8.4-16.2h-5.724V27.5h5.12V16.555l-.167-5.255 8.435 16.2h5.723V1.393zm13.89 4.686h6.059V1.393h-17.505v4.686h6.025V27.5h5.422V6.079z" fill="#FFF"/><path d="M62.997 46.438v-.98c0-5.436 1.47-7.738 4.653-7.738h.171c2.866 0 4.066 1.69 4.066 5.633h1.812v-.686c0-4.31-1.96-6.54-6.025-6.54-4.383 0-6.49 2.72-6.49 9.332v.98c0 6.612 2.107 9.33 6.49 9.33 4.066 0 6.025-2.228 6.025-6.245v-.245h-1.812c0 3.16-1.2 4.899-4.066 4.899h-.171c-3.208 0-4.653-2.303-4.653-7.74zM76.71 55.5h1.715V35.907H76.71V55.5zm5.29 0h1.715V42.52H82V55.5zm2.18-19.103l-2.204 4.066h1.763l2.302-4.066h-1.86zM96.965 55.5v-9.086c0-2.425-1.371-4.163-3.943-4.163-2.228 0-3.6.955-4.36 2.106l-.244-1.837h-1.42l.147 3.674V55.5h1.714v-9.698c.539-.858 1.543-2.009 3.576-2.009 1.714 0 2.816.907 2.816 2.866V55.5h1.714zm3.282 0h1.714V42.52h-1.714V55.5zm1.96-18.246h-2.205v2.205h2.204v-2.205zm4.481 12.05v-.588c0-2.963 1.127-4.923 3.698-4.923 2.351 0 3.306 1.494 3.306 3.478h1.641v-.49c0-2.106-1.396-4.53-4.971-4.53-3.796 0-5.413 2.865-5.413 6.465v.588c0 3.6 1.617 6.465 5.413 6.465 3.575 0 4.971-2.326 4.971-4.383v-.392h-1.64c0 1.69-.882 3.232-3.307 3.232-2.571 0-3.698-1.959-3.698-4.922zm19.544 6.196h1.42l-.147-3.674v-4.75c0-2.866-1.102-4.825-4.702-4.825-3.82 0-4.678 2.375-4.678 4.334v.22h1.641c0-1.69.563-3.11 3.013-3.11 2.302 0 3.012 1.152 3.012 3.38v.343l-3.919.612c-2.106.319-4.237 1.127-4.237 3.943v.245c0 2.082 1.372 3.551 3.748 3.551 2.253 0 3.722-.955 4.58-2.081l.269 1.812zm-4.409-1.225c-1.738 0-2.473-1.053-2.473-2.204v-.22c0-1.47 1.004-2.278 2.67-2.572l3.77-.612v3.551c-.464.76-1.567 2.057-3.967 2.057zm26.401-7.837v-.98c0-6.612-2.743-9.06-7.396-9.06h-5.045V55.5h5.045c4.653 0 7.396-2.45 7.396-9.062zm-10.678 7.47V37.99h3.135c3.674 0 5.731 2.033 5.731 7.47v.98c0 5.436-2.057 7.47-5.73 7.47h-3.136zm24.197-4.188v-.98c0-3.6-1.64-6.49-5.437-6.49-3.796 0-5.486 2.89-5.486 6.49v.54c0 3.6 1.69 6.49 5.609 6.49 3.649 0 5.314-2.327 5.314-4.335v-.098h-1.64c0 1.396-1.078 2.987-3.674 2.987s-3.796-1.763-3.87-4.604h9.184zm-5.461-6.025c2.473 0 3.624 1.788 3.722 4.605h-7.445c.074-2.817 1.274-4.605 3.723-4.605zM174.38 55.5v-9.086c0-2.425-1.372-4.163-3.943-4.163-2.23 0-3.6.955-4.36 2.106l-.245-1.837h-1.42l.147 3.674V55.5h1.714v-9.698c.539-.858 1.543-2.009 3.576-2.009 1.714 0 2.816.907 2.816 2.866V55.5h1.715zm6.024-12.98v-3.674h-1.714v3.674h-2.057v1.543h2.057V51.9c0 2.816 1.592 3.87 3.796 3.87 1.029 0 1.616-.197 1.812-.27v-1.494c-.196.098-.857.22-1.396.22-1.64 0-2.498-.49-2.498-2.547v-7.616h4.14V42.52h-4.14zM195.37 55.5h1.42l-.146-3.674v-4.75c0-2.866-1.102-4.825-4.703-4.825-3.82 0-4.677 2.375-4.677 4.334v.22h1.64c0-1.69.564-3.11 3.013-3.11 2.302 0 3.012 1.152 3.012 3.38v.343l-3.918.612c-2.106.319-4.237 1.127-4.237 3.943v.245c0 2.082 1.371 3.551 3.747 3.551 2.253 0 3.723-.955 4.58-2.081l.27 1.812zm-4.408-1.225c-1.74 0-2.474-1.053-2.474-2.204v-.22c0-1.47 1.004-2.278 2.67-2.572l3.771-.612v3.551c-.465.76-1.567 2.057-3.967 2.057zm9.037 1.225h1.714V35.907h-1.714V55.5zM30.652 63.27l-.026 1.523V69h.63v-6.822h-.884l-1.985 5.737-1.986-5.737h-.883V69h.63v-4.207l-.035-1.522L28.098 69h.569l1.985-5.73zm5.572 3.666v-.35c0-1.286-.586-2.318-1.942-2.318-1.356 0-1.96 1.032-1.96 2.318v.192c0 1.286.604 2.318 2.004 2.318 1.303 0 1.898-.83 1.898-1.548v-.035h-.586c0 .499-.385 1.067-1.312 1.067s-1.356-.63-1.382-1.644h3.28zm-1.95-2.152c.883 0 1.294.639 1.329 1.644h-2.659c.026-1.005.455-1.644 1.33-1.644zm4.661 3.796c-.918 0-1.172-.49-1.172-.997h-.612v.035c0 .709.472 1.478 1.784 1.478 1.146 0 1.785-.56 1.785-1.364v-.044c0-.848-.499-1.18-1.662-1.277-1.006-.079-1.233-.341-1.233-.822 0-.516.41-.805 1.11-.805.866 0 1.129.411 1.129 1.076h.603v-.035c0-.91-.463-1.557-1.732-1.557-1.084 0-1.723.516-1.723 1.32v.053c0 .691.359 1.129 1.61 1.234.9.078 1.268.227 1.268.857 0 .516-.402.848-1.155.848zm5.747.42h.507l-.052-1.312v-1.697c0-1.023-.394-1.723-1.68-1.723-1.364 0-1.67.848-1.67 1.548v.079h.586c0-.604.201-1.11 1.076-1.11.822 0 1.076.41 1.076 1.206v.123l-1.4.218c-.752.114-1.513.403-1.513 1.408v.088c0 .743.49 1.268 1.338 1.268.805 0 1.33-.34 1.636-.743l.096.647zm-1.574-.437c-.621 0-.884-.376-.884-.788v-.078c0-.525.359-.814.954-.919l1.347-.218v1.268c-.167.271-.56.735-1.417.735zm6.516-.411l-1.32-3.788h-.657l1.662 4.461-.726 1.924h.709l.656-1.924 1.661-4.46h-.656l-1.33 3.787zm7.968.848v-.569h-2.886v-6.253h-.63V69h3.516zm2.51.096c1.365 0 1.95-1.023 1.95-2.309v-.21c0-1.286-.585-2.309-1.95-2.309-1.364 0-1.95 1.023-1.95 2.31v.21c0 1.285.586 2.308 1.95 2.308zm0-.55c-.918 0-1.33-.7-1.33-1.759v-.21c0-1.058.412-1.758 1.33-1.758.919 0 1.33.7 1.33 1.758v.21c0 1.058-.411 1.758-1.33 1.758zm4.881.55c1.268 0 1.776-1.023 1.776-2.309v-.21c0-1.286-.508-2.309-1.776-2.309-.708 0-1.137.332-1.382.726l-.087-.63h-.508l.053 1.312v5.073h.612v-2.274c.245.35.665.621 1.312.621zm-1.312-3.56c.184-.306.542-.717 1.172-.717.875 0 1.286.682 1.286 1.758v.21c0 1.076-.411 1.758-1.286 1.758-.63 0-.988-.41-1.172-.717v-2.292zm7.837 1.4v-.35c0-1.286-.586-2.318-1.942-2.318-1.355 0-1.959 1.032-1.959 2.318v.192c0 1.286.604 2.318 2.003 2.318 1.303 0 1.898-.83 1.898-1.548v-.035h-.586c0 .499-.385 1.067-1.312 1.067s-1.356-.63-1.382-1.644h3.28zm-1.95-2.152c.883 0 1.294.639 1.33 1.644h-2.66c.026-1.005.455-1.644 1.33-1.644zm2.694 3.796V69h3.42v-.551h-1.61l-1.032.009 2.554-3.674v-.42H72.34v.551h1.426l1.032-.008-2.545 3.673zm10.6-6.402h-.594v4.172l.026 1.583-3.219-5.755h-.682V69h.595v-4.172l-.035-1.583L82.17 69h.683v-6.822zm3.954 1.793v-.175c0-.971-.446-1.715-1.478-1.715-1.023 0-1.478.744-1.478 1.715v.175c0 .962.455 1.714 1.478 1.714 1.032 0 1.478-.752 1.478-1.714zm-2.397 0v-.175c0-.744.28-1.225.919-1.225.638 0 .918.481.918 1.225v.175c0 .734-.28 1.224-.918 1.224-.639 0-.919-.49-.919-1.224zm-.49 3.175h2.826v-.499H83.92v.499zM91.959 69v-.569h-1.776v-6.288h-.402l-2.143 1.452.315.48 1.61-1.093v5.45h-1.785V69h4.18zm2.545-2.781h2.178v-.56h-2.178v.56zm8.44 2.781v-.569h-2.886v-6.253h-.63V69h3.517zm3.596 0h.507l-.053-1.312v-1.697c0-1.023-.393-1.723-1.679-1.723-1.364 0-1.67.848-1.67 1.548v.079h.585c0-.604.202-1.11 1.076-1.11.823 0 1.076.41 1.076 1.206v.123l-1.4.218c-.752.114-1.512.403-1.512 1.408v.088c0 .743.49 1.268 1.338 1.268.804 0 1.33-.34 1.635-.743l.097.647zm-1.575-.437c-.62 0-.883-.376-.883-.788v-.078c0-.525.358-.814.953-.919l1.347-.218v1.268c-.166.271-.56.735-1.417.735zm4.872.017c-.918 0-1.172-.49-1.172-.997h-.612v.035c0 .709.472 1.478 1.784 1.478 1.146 0 1.784-.56 1.784-1.364v-.044c0-.848-.498-1.18-1.661-1.277-1.006-.079-1.234-.341-1.234-.822 0-.516.411-.805 1.111-.805.866 0 1.128.411 1.128 1.076h.604v-.035c0-.91-.464-1.557-1.732-1.557-1.084 0-1.723.516-1.723 1.32v.053c0 .691.359 1.129 1.61 1.234.9.078 1.268.227 1.268.857 0 .516-.403.848-1.155.848zm5.31-2.353h1.259c.97 0 2.09-.367 2.09-1.933v-.175c0-1.574-1.12-1.941-2.09-1.941h-1.89V69h.63v-2.773zm0-.568v-2.913h1.276c.586 0 1.426.219 1.426 1.39v.132c0 1.172-.84 1.39-1.426 1.39h-1.277zM122.343 69h.507l-.052-1.312v-1.697c0-1.023-.394-1.723-1.68-1.723-1.364 0-1.67.848-1.67 1.548v.079h.586c0-.604.2-1.11 1.076-1.11.822 0 1.075.41 1.075 1.206v.123l-1.399.218c-.752.114-1.513.403-1.513 1.408v.088c0 .743.49 1.268 1.338 1.268.805 0 1.33-.34 1.636-.743l.096.647zm-1.575-.437c-.62 0-.883-.376-.883-.788v-.078c0-.525.359-.814.953-.919l1.347-.218v1.268c-.166.271-.56.735-1.417.735zm3.228.437h.612v-6.997h-.612V69zm7.758 0v-3.359c0-.874-.463-1.373-1.294-1.373-.752 0-1.216.35-1.46.77-.176-.499-.587-.77-1.2-.77-.725 0-1.18.332-1.434.726l-.087-.63h-.507l.052 1.312V69h.612v-3.481c.193-.298.508-.7 1.155-.7.525 0 .892.201.892.91V69h.612v-3.481c.193-.298.508-.7 1.155-.7.525 0 .892.201.892.91V69h.612zm3.998 0h.507l-.053-1.312v-1.697c0-1.023-.393-1.723-1.679-1.723-1.364 0-1.67.848-1.67 1.548v.079h.585c0-.604.202-1.11 1.076-1.11.822 0 1.076.41 1.076 1.206v.123l-1.4.218c-.752.114-1.513.403-1.513 1.408v.088c0 .743.49 1.268 1.339 1.268.804 0 1.33-.34 1.635-.743l.097.647zm-1.575-.437c-.62 0-.883-.376-.883-.788v-.078c0-.525.358-.814.953-.919l1.347-.218v1.268c-.166.271-.56.735-1.417.735zm4.872.017c-.918 0-1.172-.49-1.172-.997h-.612v.035c0 .709.472 1.478 1.784 1.478 1.146 0 1.784-.56 1.784-1.364v-.044c0-.848-.498-1.18-1.661-1.277-1.006-.079-1.234-.341-1.234-.822 0-.516.411-.805 1.111-.805.866 0 1.128.411 1.128 1.076h.604v-.035c0-.91-.464-1.557-1.732-1.557-1.085 0-1.723.516-1.723 1.32v.053c0 .691.359 1.129 1.61 1.234.9.078 1.268.227 1.268.857 0 .516-.403.848-1.155.848zm6.254-4.312c-1.268 0-1.776 1.023-1.776 2.31v.21c0 1.285.508 2.308 1.776 2.308.7 0 1.137-.323 1.373-.717l.088.621h.516l-.053-1.312v-5.685h-.612v2.895c-.254-.35-.665-.63-1.312-.63zm.131 4.277c-.875 0-1.286-.682-1.286-1.758v-.21c0-1.076.411-1.758 1.286-1.758.63 0 .989.411 1.181.717v2.292c-.192.306-.551.717-1.18.717zm6.7-1.61v-.35c0-1.285-.586-2.317-1.942-2.317-1.355 0-1.959 1.032-1.959 2.318v.192c0 1.286.604 2.318 2.003 2.318 1.303 0 1.898-.83 1.898-1.548v-.035h-.586c0 .499-.385 1.067-1.312 1.067s-1.356-.63-1.382-1.644h3.28zm-1.95-2.15c.883 0 1.294.638 1.33 1.643h-2.66c.026-1.005.455-1.644 1.33-1.644zm7.11 4.311c1.085 0 1.715-.402 2.082-.787v-2.668h-1.801v.56h1.172v1.802c-.245.262-.718.525-1.409.525h-.06c-1.252 0-1.811-.823-1.811-2.764v-.35c0-1.942.586-2.764 1.74-2.764h.053c1.05 0 1.478.603 1.478 2.012h.638v-.245c0-1.54-.708-2.336-2.169-2.336-1.557 0-2.396.971-2.396 3.333v.35c0 2.361.84 3.332 2.484 3.332zm5.1-4.828c-.621 0-1.05.324-1.295.709l-.087-.613h-.507l.052 1.312V69h.612v-3.437c.193-.307.534-.7 1.234-.7h.122v-.586c-.009 0-.07-.009-.131-.009zM166.357 69h.508l-.053-1.312v-1.697c0-1.023-.394-1.723-1.68-1.723-1.364 0-1.67.848-1.67 1.548v.079h.586c0-.604.201-1.11 1.076-1.11.822 0 1.076.41 1.076 1.206v.123l-1.4.218c-.752.114-1.513.403-1.513 1.408v.088c0 .743.49 1.268 1.338 1.268.805 0 1.33-.34 1.636-.743l.096.647zm-1.574-.437c-.621 0-.884-.376-.884-.788v-.078c0-.525.359-.814.954-.919l1.347-.218v1.268c-.166.271-.56.735-1.417.735zm6.674.437v-3.245c0-.866-.49-1.487-1.409-1.487-.796 0-1.285.341-1.557.752l-.087-.656h-.507l.052 1.312V69h.612v-3.464c.193-.306.551-.717 1.277-.717.613 0 1.006.324 1.006 1.023V69h.613zm3.428-3.236v-.35c0-1.942.525-2.764 1.662-2.764h.061c1.024 0 1.452.603 1.452 2.012h.648v-.245c0-1.54-.7-2.336-2.152-2.336-1.566 0-2.318.971-2.318 3.333v.35c0 2.361.752 3.332 2.318 3.332 1.452 0 2.152-.796 2.152-2.23v-.088h-.648c0 1.129-.428 1.75-1.452 1.75h-.06c-1.147 0-1.663-.823-1.663-2.764zM182.61 69h.507l-.053-1.312v-1.697c0-1.023-.393-1.723-1.679-1.723-1.364 0-1.67.848-1.67 1.548v.079h.585c0-.604.202-1.11 1.076-1.11.822 0 1.076.41 1.076 1.206v.123l-1.4.218c-.752.114-1.513.403-1.513 1.408v.088c0 .743.49 1.268 1.339 1.268.804 0 1.33-.34 1.635-.743l.097.647zm-1.575-.437c-.62 0-.883-.376-.883-.788v-.078c0-.525.358-.814.953-.919l1.347-.218v1.268c-.166.271-.56.735-1.417.735zm6.674.437v-3.245c0-.866-.49-1.487-1.408-1.487-.796 0-1.286.341-1.557.752l-.088-.656h-.507l.052 1.312V69h.613v-3.464c.192-.306.55-.717 1.277-.717.612 0 1.006.324 1.006 1.023V69h.612zm3.997 0h.507l-.052-1.312v-1.697c0-1.023-.394-1.723-1.68-1.723-1.364 0-1.67.848-1.67 1.548v.079h.586c0-.604.201-1.11 1.076-1.11.822 0 1.076.41 1.076 1.206v.123l-1.4.218c-.752.114-1.513.403-1.513 1.408v.088c0 .743.49 1.268 1.338 1.268.805 0 1.33-.34 1.636-.743l.096.647zm-1.574-.437c-.621 0-.884-.376-.884-.788v-.078c0-.525.359-.814.954-.919l1.347-.218v1.268c-.166.271-.56.735-1.417.735zm5.003-4.295c-.621 0-1.05.324-1.295.709l-.087-.613h-.507l.052 1.312V69h.612v-3.437c.193-.307.534-.7 1.234-.7h.122v-.586c-.009 0-.07-.009-.131-.009zM196.27 69h.612v-4.636h-.612V69zm.7-6.516h-.788v.787h.788v-.787zM200.985 69h.508l-.053-1.312v-1.697c0-1.023-.393-1.723-1.68-1.723-1.364 0-1.67.848-1.67 1.548v.079h.586c0-.604.201-1.11 1.076-1.11.822 0 1.076.41 1.076 1.206v.123l-1.4.218c-.752.114-1.513.403-1.513 1.408v.088c0 .743.49 1.268 1.339 1.268.804 0 1.329-.34 1.635-.743l.096.647zm-1.574-.437c-.621 0-.883-.376-.883-.788v-.078c0-.525.358-.814.953-.919l1.347-.218v1.268c-.166.271-.56.735-1.417.735z" fill="#373737"/></g></svg>