<svg width="112" height="400" xmlns="http://www.w3.org/2000/svg" xmlns:xlink="http://www.w3.org/1999/xlink"><defs><path id="a" d="M0 399.326h410.24V.066H0z"/><path id="c" d="M0 0h410.693v398.924H0z"/><path id="e" d="M0 0h410.693v398.924H0z"/><path d="M23.425.282s-5.843 1.55-6.328 2.255c-.657 2.545-1.36 5.038-1.534 5.85-1.718 8-4.27 60.54-15.04 69.473-.097.32-.192.624-.287.902 0 0 9-.037 12.723-.186-1.061 2.5-10.27 3.338-12.723 4.185 4.952 1.405 9.573 1.59 14.838 2.69L4.387 87.148c.295.19 1.205.265 2.487.265 2.427 0 6.184-.269 9.623-.539 3.44-.269 6.563-.539 7.72-.539.148 0 .263.005.343.015 0 0-9.27-3.269-12.187-4.163.07-.021.205-.031.395-.031 1.116 0 4.134.34 7.334.683 3.199.34 6.578.683 8.417.683.838 0 1.356-.071 1.39-.246 1.865-9.228 2.837-71 2.859-74.888 0 0-6.587-7.333-9.343-8.106" id="g"/><linearGradient x1="51.077%" y1="27.579%" x2="51.077%" y2="49.421%" id="i"><stop stop-color="#16242E" offset="0%"/><stop stop-color="#1C2E3B" offset="100%"/></linearGradient><path d="M14.921.443c-.025 0-.083.029-.177.09a.233.233 0 0 0 .041.147c.126-.15.18-.237.136-.237m-.136.237c-.72.859-3.811 3.785-4.4 4.257 0 0-6.895 48.198-8.07 59.898C1.535 72.575-.16 78.727.854 81.45l9.53 5.98s2.793-4.504 14.63-7.605c-.44-.048-.948-.067-1.506-.067-.95 0-2.05.055-3.225.109a79.764 79.764 0 0 1-3.673.107c-2.667 0-5.343-.245-7.313-1.263 3.667-.266 12.113-.188 15.12-1.898-6.618-.303-9.394-1.263-11.13-2.56h.388c.456 0 1.1.003 1.86.007.757.005 1.628.008 2.543.008 3.556 0 7.767-.06 8.447-.417-1.185-10.483-1.511-52.659-2.483-58.258 0 0-1.817-8.7-2.27-10.656-1.146-1.4-6.457-3.395-6.987-4.257" id="j"/><linearGradient x1="42.622%" y1="28.485%" x2="42.622%" y2="50.29%" id="l"><stop stop-color="#16242E" offset="0%"/><stop stop-color="#1C2E3B" offset="100%"/></linearGradient><path id="m" d="M0 0h410.693v398.924H0z"/><path d="M7.453.172C3.675 2.295.06 7.89.415 11.997c.266 3.062 1.388 4.005 2.66 4.005 1.02 0 2.137-.606 2.987-1.211.244-.173.465-.347.656-.506.102-2.158.214-4.45.33-6.711a7.963 7.963 0 0 1-.196-1.57 7.85 7.85 0 0 1 .428-2.797c.058-1.05.116-2.068.173-3.035" id="o"/><linearGradient x1="42.239%" y1="90.496%" x2="44.149%" y2="90.394%" id="q"><stop stop-color="#F89C6C" offset="0%"/><stop stop-color="#ED6440" offset="100%"/></linearGradient><path d="M.343.525c.422 4.238.732 9.433.919 14.269.65 1.33 1.342 2.161 2.55 2.161.667 0 1.49-.254 2.55-.818C10.486 9.571 5.09 2.813.342.525" id="r"/><linearGradient x1="52.825%" y1="90.417%" x2="54.645%" y2="90.319%" id="t"><stop stop-color="#ED6440" offset="0%"/><stop stop-color="#F89C6C" offset="100%"/></linearGradient><path id="u" d="M0 0h410.693v398.924H0z"/><path d="M7.7.523c-.07 0-.138.001-.208.003C3.34.643.06 4.185.182 8.444c.101 4.194 3.454 7.514 7.52 7.514l.2-.002c3.03-.086 5.595-1.997 6.717-4.68-.846-.584-2.381-1.289-3.076-1.64.464-1.858.66-4.582.636-7.593a7.369 7.369 0 0 0-4.48-1.52" id="w"/><radialGradient cx="50.783%" cy="90.128%" fx="50.783%" fy="90.128%" r=".168%" gradientTransform="matrix(.97135 0 0 1 .015 0)" id="y"><stop stop-color="#F79364" offset="0%"/><stop stop-color="#F89C6C" offset="100%"/></radialGradient><path d="M6.78.153l-.207.002a7.34 7.34 0 0 0-2.53.523c-.315 4.022-.497 7.528-.526 8.328-.593.173-2.932 1.822-2.889 2.604-.029.197-.056.39-.082.583 1.357 2.054 3.652 3.394 6.235 3.394l.201-.002c3.244-.092 5.957-2.278 6.934-5.263a323.797 323.797 0 0 1-2.105-8.187A7.389 7.389 0 0 0 6.78.153" id="z"/><radialGradient cx="45.685%" cy="89.862%" fx="45.685%" fy="89.862%" r=".168%" gradientTransform="matrix(.97135 0 0 1 .013 0)" id="B"><stop stop-color="#F79364" offset="0%"/><stop stop-color="#F89C6C" offset="100%"/></radialGradient><path d="M1.068.446A7.85 7.85 0 0 0 .64 3.242c.014.54.081 1.065.196 1.571C.913 3.33.99 1.86 1.068.446" id="C"/><path id="E" d="M0 0h410.693v398.924H0z"/><path id="G" d="M0 0h410.693v398.924H0z"/><path d="M4.733.679C2.702 1.49 1.107 3.178.377 5.278.3 6.69.222 8.16.146 9.644a7.744 7.744 0 0 0 1.09 2.55c.026-.193.053-.387.082-.584-.043-.782 2.296-2.43 2.89-2.604.028-.8.21-4.306.525-8.327" id="I"/><radialGradient cx="45.685%" cy="89.862%" fx="45.685%" fy="89.862%" r=".168%" gradientTransform="matrix(.97135 0 0 1 .013 0)" id="K"><stop stop-color="#F68759" offset="0%"/><stop stop-color="#F78F62" offset="100%"/></radialGradient><path id="L" d="M0 0h410.693v398.924H0z"/><path d="M.342.525c.422 4.237.732 9.433.919 14.267l.001.002C1.075 9.958.765 4.764.343.525H.342" id="N"/><linearGradient x1="52.825%" y1="90.417%" x2="54.645%" y2="90.319%" id="P"><stop stop-color="#EB5B3B" offset="0%"/><stop stop-color="#F78F62" offset="100%"/></linearGradient><path id="Q" d="M0 0h410.693v398.924H0z"/><path d="M1.135.662C1.158 3.673.964 6.397.5 8.256c.695.35 2.23 1.056 3.076 1.639a7.868 7.868 0 0 0 .602-3.236A7.78 7.78 0 0 0 1.135.662" id="S"/><radialGradient cx="50.783%" cy="90.128%" fx="50.783%" fy="90.128%" r=".168%" gradientTransform="matrix(.97135 0 0 1 .015 0)" id="U"><stop stop-color="#F68759" offset="0%"/><stop stop-color="#F78F62" offset="100%"/></radialGradient><path id="V" d="M0 0h410.693v398.924H0z"/><path d="M.077.065c.516 2.16 1.34 5.353 2.105 8.186a7.79 7.79 0 0 0 .362-1.805c-.36-1.62-.708-3.162-.95-4.445A7.735 7.735 0 0 0 .076.065" id="X"/><radialGradient cx="45.685%" cy="89.862%" fx="45.685%" fy="89.862%" r=".168%" gradientTransform="matrix(.97135 0 0 1 .013 0)" id="Z"><stop stop-color="#F5764C" offset="0%"/><stop stop-color="#F57F52" offset="100%"/></radialGradient><path id="aa" d="M0 0h410.693v398.924H0z"/><path d="M.213.62c.242 1.283.59 2.825.95 4.446A7.864 7.864 0 0 0 .214.62" id="ac"/><radialGradient cx="45.685%" cy="89.862%" fx="45.685%" fy="89.862%" r=".168%" gradientTransform="matrix(.97135 0 0 1 .013 0)" id="ae"><stop stop-color="#EC4D2B" offset="0%"/><stop stop-color="#EF522E" offset="100%"/></radialGradient><path d="M10.865 3.053c-1.194.578-7.79 1.061-9.234.04C1.63 3.094.279.92.723.42c5.565 2.196 9.936.124 10.864.22.724.077.18 1.975-.722 2.414" id="af"/><linearGradient x1="49.08%" y1="93.111%" x2="51.816%" y2="92.965%" id="ah"><stop stop-color="#922D1D" offset="0%"/><stop stop-color="#762419" offset="100%"/></linearGradient><path id="ai" d="M0 0h410.693v398.924H0z"/><path d="M1.115 2.705c1.168.593 7.653 1.147 9.086.14 0 0 1.357-2.158.926-2.665C5.622 2.318 1.35.2.434.286c-.71.068-.198 1.973.681 2.419" id="ak"/><linearGradient x1="44.409%" y1="93.071%" x2="47.113%" y2="92.926%" id="am"><stop stop-color="#762419" offset="0%"/><stop stop-color="#922D1D" offset="100%"/></linearGradient><path id="an" d="M0 0h410.693v398.924H0z"/><path d="M47.936 29.003c-3.21.458-3.14 2.873 0 3.218-23.568 13.46-40.363-.184-38.274 4.956C6.527 35.644 1.15 32.697.17 25.833c-.018-.44 2.434-15.974 2.638-18.158C3.844 6.256 5.29 1.807 5.593 1.018 5.59 18.086 7.24 22.4 20.13 21.241c-.676.78-2.52 1.318-3.045 1.91 3.83-.025 18.832-2.503 21.516-5.115 3.87-3.768 4.342-14.134 4.852-17.46.216 4.176.201 7.406 2.463 7.406 0 0 1.077 15.18 2.02 21.021" id="ap"/><path id="ar" d="M0 399.326h410.24V.066H0z"/><linearGradient x1="44.01%" y1="100.061%" x2="51.656%" y2="91.833%" id="at"><stop stop-color="#461815" offset="0%"/><stop stop-color="#922D1D" offset="100%"/></linearGradient><path id="au" d="M0 0h410.693v398.924H0z"/><path d="M.148.197L.142.219c.888.217 1.795.468 2.715.75.018-.04.034-.082.052-.121A97.007 97.007 0 0 0 .149.197" id="aw"/><linearGradient x1="51.818%" y1="59.731%" x2="53.898%" y2="60.433%" id="ay"><stop stop-color="#F7C7AF" offset="0%"/><stop stop-color="#FFF" offset="100%"/></linearGradient><path d="M.34.5c.614.118 1.238.255 1.873.409l.006-.022C1.576.747.95.617.341.499M.67 9.72l.004.001L.67 9.72m.012.004c.22.08.438.168.658.262v-.002c-.22-.093-.439-.179-.658-.26m-.5.174l-.013.007a.152.152 0 0 0 .013-.007m-.016.01l-.009.004a.028.028 0 0 1 .01-.004m-.018.01l-.005.003.005-.003m-.016.01l-.001.001v-.001" id="az"/><linearGradient x1="51.818%" y1="59.731%" x2="53.898%" y2="60.433%" id="aB"><stop stop-color="#A68562" offset="0%"/><stop stop-color="#ADAB92" offset="100%"/></linearGradient><path d="M4.29.157l-.052.121c.296.09.595.185.894.282.009-.02.017-.038.023-.055L5.14.373a73.998 73.998 0 0 0-.85-.216M.65 8.604v.002c.446.19.893.405 1.34.64 0-.001 0-.004.002-.004A18.404 18.404 0 0 0 .65 8.604" id="aC"/><linearGradient x1="51.818%" y1="59.731%" x2="53.898%" y2="60.433%" id="aE"><stop stop-color="#584419" offset="0%"/><stop stop-color="#59581F" offset="100%"/></linearGradient><path d="M9.395.543c.336.612.543 2.298.002 3.343-.448.866-1.126 1.072-1.945 1.514-.86.465-.665.899-.62 1.77.036.69.105 1.556-.205 2.186-.364.74-1.147 1.159-1.788 1.668-1.345 1.067.04 1.679-.48 2.957-.544 1.333-2.06 1.629-2.186 3.16-.106 1.282-.505 2.554-1.523 2.89 2.512-.638 5.545-5.571 10.527-8.722l.001-.001.011-.007.006-.003.007-.006a.028.028 0 0 1 .01-.004l.003-.003a13.358 13.358 0 0 1 .376-.23 5.6 5.6 0 0 1 .128.046l.008.003c.22.081.438.167.657.26.447.19.894.403 1.342.638.619-2.326 2.751-7.738 3.14-8.681a51.87 51.87 0 0 0-3.61-1.032 40.679 40.679 0 0 0-1.871-.41c-.5-.468-1.19-.913-1.99-1.337" id="aF"/><linearGradient x1="51.818%" y1="59.731%" x2="53.898%" y2="60.433%" id="aH"><stop stop-color="#F5764A" offset="0%"/><stop stop-color="#F89C6C" offset="100%"/></linearGradient></defs><g fill="none" fill-rule="evenodd"><g transform="matrix(1 0 0 -1 -139.86 399.864)"><mask id="b" fill="#fff"><use xlink:href="#a"/></mask><g mask="url(#b)"><mask id="d" fill="#fff"><use xlink:href="#c"/></mask><g mask="url(#d)" fill-rule="nonzero" fill="#DFDDDB"><path d="M212.57 0c-6.585 0-13.939.724-21.915 2.534-15.749 3.573-50.093 4.903-50.093 10.097 0 3.888 13.06 6.617 39.272 7.283 4.372-1.399 8.992-1.8 12.978-1.8.919 0 1.804.02 2.646.056.488.242.749.95.843 1.885 6.466-.066 12.346-.328 17.62-.735-.407-.77-.745-1.788-.892-3.13 4.043-4.009 14.007-6.108 19.846-6.108 2.659 0 4.462.435 4.462 1.323.86.383.684 2.242.198 4.31 6.245-1.69 9.464-3.602 9.464-5.212C246.999 7.536 233.801 0 212.569 0"/></g></g></g><g transform="matrix(1 0 0 -1 -139.86 399.864)"><mask id="f" fill="#fff"><use xlink:href="#e"/></mask><g mask="url(#f)" fill-rule="nonzero"><path d="M189.315 35.599l-7.586-2.17a460.798 460.798 0 0 1-9.49-12.462c-6.418-2.525-17.328-5.147-22.105-7.044 15.712-1.86 36.14.712 46.359 2.085-3.624 5.428-7.75 13.747-7.178 19.59" fill="#1B1919"/><path d="M169.285 13.97c-5.087.478-9.564 5.86-18.49 2.54-2.59-.665-3.569-3.88-3.569-3.88 12.738-2.17 27.335-1.38 49.743 1.746.62 6.241-8.147-.406-27.684-.406M176.17 20.61c1.755-.936 2.153-1.42 1.704-1.705-1.473-.932-4.178 2.424-6.848 1.602-.126.533 2.31 1.609 5.143.102" fill="#FEF2E7"/><path d="M170.371 19.97c1.461-.127 4.473-2.153 3.06-2.753-1.603-.678-2.53 2.66-7.039 1.742.188.519 1.778 1.199 3.979 1.01M168.736 16.583c.346-.673-.878-.971-1.59-.63-.788.373-2.148 2.209-6.146 1.38 2.634 1.799 6.638 1.414 7.736-.75" fill="#FEF2E7"/><path d="M232.565 18.42c-3.608 1.49-14.241 2.458-14.588 2.135.581-6.862-7.373-7.696-13.763-9.999-3.357-1.21-5.003-1.637-6.035-4.745 11.866-2.485 27.333-1.212 38.532 2.514-1.6 4.999-4.146 10.096-4.146 10.096" fill="#1B1919"/><path d="M217.977 6.321c-3.352.476-9.172 7.744-18.933 3.069-2.144-1.042-3.085-4.193-3.085-4.193 6.289-1.179 14.086-1.87 17.588-1.87 6.458 0 16.53 1.577 23.164 4.73.002 4.956-6.864-2.589-18.734-1.736" fill="#FEF2E7"/><path d="M218.805 13.689c1.879-.607 3.548-1.54 3.196-2.172-.923-.964-2.807.719-4.41 1.31-1.732.634-3.66.9-5.435.333.068.297 1.371 2.236 6.65.529M221.749 15.533c1.878-.61 3.208-1.431 2.853-2.063-.922-.963-2.468.604-4.069 1.197-1.732.64-4.167.735-5.186.154.063.298 1.117 2.42 6.402.712M214.134 12.215c1.523-.478 3.478-1.506 3.19-2.017-1.04-.833-3.293.851-4.587 1.332-1.402.514-3.226.58-4.846.213.058.24 1.977 1.856 6.243.472" fill="#FEF2E7"/><path d="M235.628 22.123c-.11 6.622-.19 36.214-1.017 47.223-.803 10.646-2.435 36.743-4.716 51.02-.38 8.29.013 76.144-1.89 81.695-1.625 4.749-5.342 15.737-6.265 15.243-3.999-1.632-38.702-1.053-56.787.919 0 0-6.947-18.977-7.006-23.912-.035-3.206 1.235-4.169 2.386-11.569 2.278-14.63 9.823-60.973 9.823-63.59 1.319-2.458 2.59-11.022 2.715-12.803 1.014-14.618 2.094-65.909 1.962-72.355-.013-.615 2.947-2.187 3.3-2.625-.197-.247-4.42-1.46-4.737-1.625-.334-.173-1.949-4.508-2.374-4.964 6.944-6.199 17.293-6.91 24.436-6.61 1.89.936.374 8.848-1.009 9.89.628 14.042-1.42 74.378-4.92 92.307-2.425 20.135 2.164 55.48 1.34 68.508 13.253-.984 16.096-62.072 17.961-70.749.308-1.439 2.27-8.147 2.713-11.065 1.975-12.998 4.112-73.778 3.443-80.589-.29-2.956.956-3.068 1.388-4.853 0 0-2.83-.746-3.345-5.428 5.883-5.835 24.308-7.626 24.308-4.786 2.026.903-1.696 10.016-1.709 10.718" fill="#16242E"/></g></g><g transform="matrix(1 0 0 -1 53.408 290.126)"><mask id="h" fill="#fff"><use xlink:href="#g"/></mask><g mask="url(#h)"><path d="M0 0h410.693v398.924H0z" fill-rule="nonzero" fill="url(#i)" transform="translate(-193.267 -109.739)"/></g></g><g transform="matrix(1 0 0 -1 21.657 286.675)"><mask id="k" fill="#fff"><use xlink:href="#j"/></mask><g mask="url(#k)"><path d="M0 0h410.693v398.924H0z" fill-rule="nonzero" fill="url(#l)" transform="translate(-161.516 -113.19)"/></g></g><g transform="matrix(1 0 0 -1 -139.86 399.864)"><mask id="n" fill="#fff"><use xlink:href="#m"/></mask><g mask="url(#n)" fill-rule="nonzero"><path d="M218.334 197.907c-2.756 0-5.802 1.175-8.002 2.363-2.866 1.553-5.316 3.744-5.815 6.964 1.277-2.706 3.318-4.459 6.002-5.936 1.609-.883 3.331-1.564 5.074-2.166 1.405-.488 2.935-.966 4.444-1.002h.004l.038-.002h.184a8.011 8.011 0 0 0-1.93-.221M191.575 191.105c-1.29.102-2.279.433-3.192 1.361-1.132 1.154-1.913 2.624-2.5 4.087-1.173 2.944-1.918 6.633-.892 9.708-.383-2.703.25-5.57 1.225-8.106.739-1.995 1.906-4.78 4-5.814-.35 2.088-.237 4.266-.115 6.37.144 2.362.33 4.727.68 7.071.045-4.097-.13-8.268.3-12.35.077-.8.266-1.556.494-2.327" fill="#384B59"/><path d="M165.78 295.55c-2.224.185-4.709-7.684-4.709-7.684 0-8.355 1.957-19.883-1.39-27.351-3.061-6.83-4.107-13.007-4.907-20.565-.614-5.761-1.225-21.773-2.652-28.702-.704-3.42 6.494-15.091 5.825-16.937 3.695 2.966 6.646 8.266 7.795 12.325 0 0-3.893 3.762-6.232 6.493-.324 3.04 11.524 27.639 13.248 33.647 1.26 4.388-1.653 17.923-4.151 30.53-1.353 6.827-3.076 12.73-2.827 18.243" fill="#F89C6D"/><path d="M161.536 277.016l-.003.023-.039.855.002-.001c.014-.292.028-.585.04-.877" fill="#F9D5C3"/><path d="M159.51 213.129c-1.637 4.409 12.548 29.298 9.232 58.25-.434 1.501-4.277 4.29-7.206 5.635v.002c-.012.293-.025.585-.04.877 2.987-.476 4.922-.476 7.11-.588v-.002c.783-5.482 1.713-12.127 2.27-19.009.027-4.185-.058-10.434-.577-16.808v.004l-.001-.004c-.04-.488-.082-.977-.127-1.465-3.943-9.412-10.664-24.03-10.668-26.755 0-.05.002-.095.007-.137" fill="#F57F52"/><path d="M215.463 320.718c-4.562.101-6.705 16.357-5.183 31.921-3.385 1.511-17.75-2.303-20.937-5.016.221-7.103 2.85-23.698-5.529-25.888 0 0-.57-8.627 16.506-8.372 14.374.215 16.797 5.522 15.143 7.355" fill="#F89C6D"/><path d="M213.846 321.504c-2.293 2.292-3.708 9.36-3.996 17.852.29-8.496 1.707-15.561 4.001-17.85-.002 0-.003-.001-.005-.003m-25.981 3.475c1.822 3.173 2.134 8.064 2.019 12.741.115-4.677-.196-9.568-2.018-12.74l-.002-.001m21.984 14.396v.004-.004" fill="#F7C7AF"/><path d="M199.592 317.971c-.09 0-.181 0-.272.002l-.001.002c10.72.622 9.927 8.565 9.65 15.195-3.267-3.936-15.183-7.749-21.103-8.19 1.822 3.172 2.133 8.062 2.018 12.74 3.29-1.832 6.757-3.232 8.923-3.309l.12-.002c2.436 0 7.126 2.494 10.92 5.01l.001-.04v-.004c0-.007 0-.012.002-.019.289-8.492 1.703-15.56 3.996-17.852-4.01-2.29-9.231-3.532-14.254-3.532" fill="#F5764A"/></g></g><g transform="matrix(1 0 0 -1 33.391 47.182)"><mask id="p" fill="#fff"><use xlink:href="#o"/></mask><g mask="url(#p)"><path d="M0 0h410.693v398.924H0z" fill-rule="nonzero" fill="url(#q)" transform="translate(-173.25 -352.682)"/></g></g><g transform="matrix(1 0 0 -1 76.876 47.872)"><mask id="s" fill="#fff"><use xlink:href="#r"/></mask><g mask="url(#s)"><path d="M0 0h410.693v398.924H0z" fill-rule="nonzero" fill="url(#t)" transform="translate(-216.735 -351.992)"/></g></g><g transform="matrix(1 0 0 -1 -139.86 399.864)"><mask id="v" fill="#fff"><use xlink:href="#u"/></mask><g mask="url(#v)" fill-rule="nonzero" fill="#F89C6D"><path d="M218.15 379.71c-21.07 14.121-35.697 3.57-38.703-1.165 0 0 1.385-32.938 1.974-34.054 1.849-3.507 12.683-9.914 17.386-10.08 4.083-.145 15.066 7.294 16.644 9.528 1.986 2.81 3.01 28.197 2.699 35.772"/></g></g><g transform="matrix(1 0 0 -1 61 48.563)"><mask id="x" fill="#fff"><use xlink:href="#w"/></mask><g mask="url(#x)"><path d="M0 0h410.693v398.924H0z" fill-rule="nonzero" fill="url(#y)" transform="translate(-200.86 -351.302)"/></g></g><g transform="matrix(1 0 0 -1 40.984 49.253)"><mask id="A" fill="#fff"><use xlink:href="#z"/></mask><g mask="url(#A)"><path d="M0 0h410.693v398.924H0z" fill-rule="nonzero" fill="url(#B)" transform="translate(-180.843 -350.611)"/></g></g><g transform="matrix(1 0 0 -1 39.603 44.422)"><mask id="D" fill="#fff"><use xlink:href="#C"/></mask><g mask="url(#D)"><g transform="translate(-179.462 -355.443)"><mask id="F" fill="#fff"><use xlink:href="#E"/></mask></g></g></g><g transform="matrix(1 0 0 -1 -139.86 399.864)"><mask id="H" fill="#fff"><use xlink:href="#G"/></mask><g mask="url(#H)" fill-rule="nonzero"><path d="M181.745 343.971c-.127.18-.235.353-.324.52-.184.35-.445 3.79-.717 8.363.272-4.574.533-8.014.717-8.363.089-.167.197-.34.324-.52" fill="#FEF0E9"/><path d="M186.182 340.025c-1.971 1.37-3.605 2.777-4.437 3.946-.127.18-.235.353-.324.52-.184.35-.445 3.79-.717 8.363-.058.967-.115 1.986-.174 3.035.73-2.1 2.325-3.788 4.356-4.599.309-3.95.747-8.396 1.296-11.265M180.298 360.256c-.457 8.915-.85 18.289-.85 18.289.258.406.61.859 1.036 1.332.17-.117.297-.198.331-.198.004 0 .006 0 .007.002 1.029.557 2.498 1.026 4.269 1.402.117-.044-5.56-4.49-3.702-18.278a7.744 7.744 0 0 1-1.09-2.55" fill="#F78F62"/></g></g><g transform="matrix(1 0 0 -1 40.293 49.253)"><mask id="J" fill="#fff"><use xlink:href="#I"/></mask><g mask="url(#J)"><path d="M0 0h410.693v398.924H0z" fill-rule="nonzero" fill="url(#K)" transform="translate(-180.153 -350.611)"/></g></g><g transform="matrix(1 0 0 -1 -139.86 399.864)"><mask id="M" fill="#fff"><use xlink:href="#L"/></mask><g mask="url(#M)" fill-rule="nonzero" fill="#FEF0E9"><path d="M214.977 343.387c.201.206.362.392.474.552.65.917 1.195 4.246 1.626 8.577h.001c-.43-4.33-.977-7.66-1.627-8.577a4.812 4.812 0 0 0-.474-.552m3.019 23.397c.154 3.947.225 7.654.206 10.4h.001c.018-2.746-.053-6.453-.206-10.399l-.001-.001"/></g></g><g transform="matrix(1 0 0 -1 76.876 47.872)"><mask id="O" fill="#fff"><use xlink:href="#N"/></mask><g mask="url(#O)"><path d="M0 0h410.693v398.924H0z" fill-rule="nonzero" fill="url(#P)" transform="translate(-216.735 -351.992)"/></g></g><g transform="matrix(1 0 0 -1 -139.86 399.864)"><mask id="R" fill="#fff"><use xlink:href="#Q"/></mask><g mask="url(#R)" fill-rule="nonzero" fill="#F78F62"><path d="M211.822 340.791c.734 3.712 1.184 8.404 1.217 12.553a7.78 7.78 0 0 1 3.042 5.997 7.868 7.868 0 0 1-.602 3.236c.26.18.456.348.54.49 1.234 2.081-1.047 14.883-3.268 16.31.137.077.32.112.535.112 1.414 0 4.237-1.505 4.916-2.304.019-2.747-.052-6.453-.206-10.4-.187-4.836-.497-10.031-.919-14.269-.43-4.33-.976-7.66-1.626-8.577a4.72 4.72 0 0 0-.474-.552l-.004-.004c-.668-.683-1.789-1.602-3.15-2.592"/></g></g><g transform="matrix(1 0 0 -1 72.044 47.182)"><mask id="T" fill="#fff"><use xlink:href="#S"/></mask><g mask="url(#T)"><path d="M0 0h410.693v398.924H0z" fill-rule="nonzero" fill="url(#U)" transform="translate(-211.904 -352.682)"/></g></g><g transform="matrix(1 0 0 -1 -139.86 399.864)"><mask id="W" fill="#fff"><use xlink:href="#V"/></mask><g mask="url(#W)" fill-rule="nonzero"><path d="M193.068 345.135c-.759 0-1.515.01-2.265.04-.071.255-.236.402-.318.636l.51.242c.025.002.052.002.081.002.512 0 1.66-.098 3.1-.195 1.443-.097 3.178-.196 4.862-.196 3.554 0 6.882.435 6.742 2.223.366-.981.415-1.761-.154-2.08-.98-.547-2.397-.662-3.688-.662-.394 0-.777.01-1.131.023-.675.023-1.353.032-2.037.032-.942 0-1.893-.016-2.845-.032-.952-.016-1.906-.033-2.857-.033" fill="#E74428"/><path d="M197.775 340.852c-.77 0-1.505.332-2.106 1.195l.251.233c.455-.25 1.063-.353 1.727-.353 1.406 0 3.069.464 4.09.99-1.057-.98-2.569-2.065-3.962-2.065" fill="#F3643A"/><path d="M196.365 349.603c-.243 0-.49.011-.74.037-2.86.293-3.447 1.098-3.051 2.774l.08.333a7.735 7.735 0 0 1 1.516 1.936c-.299-1.583-.438-2.774-.247-3.235.438-1.055 2.668-1.09 4.253-1.18a3.795 3.795 0 0 1 1.87.353c-.364-.405-1.91-1.018-3.68-1.018m-.714 9.253c.46 3.253.934 6.675.975 8.288-.246-2.318-.895-5.279-1.506-8.016a7.79 7.79 0 0 1-.362 1.805c.911 3.378 1.738 6.245 1.854 6.245.007 0 .011-.011.014-.034.117-1.694-.457-5.113-.975-8.288" fill="#F57F52"/></g></g><g transform="matrix(1 0 0 -1 52.718 47.182)"><mask id="Y" fill="#fff"><use xlink:href="#X"/></mask><g mask="url(#Y)"><path d="M0 0h410.693v398.924H0z" fill-rule="nonzero" fill="url(#Z)" transform="translate(-192.577 -352.682)"/></g></g><g transform="matrix(1 0 0 -1 -139.86 399.864)"><mask id="ab" fill="#fff"><use xlink:href="#aa"/></mask><g mask="url(#ab)" fill-rule="nonzero"><path d="M194.934 352.32a1.462 1.462 0 0 0-.083.496l.06.546c-.022-.432-.018-.787.023-1.043" fill="#F57F52"/><path d="M200.046 350.62c.089.098.107.182.044.244 0 0-.073-.002-.202-.002-.91 0-4.583.076-4.92 1.302-.013.046-.024.1-.034.156.392-1.074 2.073-1.262 3.171-1.266.14-.013.277-.02.41-.02 1.771 0 3.02 1.13 3.095 2.153.26-.933-.405-2.016-1.564-2.566m-5.135 2.741c.068 1.316.393 3.35.741 5.495-.29-2.07-.577-4.071-.741-5.495" fill="#F3643A"/><path d="M198.411 350.26c-.077 0-.155.003-.235.008-1.585.09-3.815.126-4.253 1.18-.191.461-.052 1.652.247 3.235a7.864 7.864 0 0 1 .951 4.445c.611 2.738 1.26 5.699 1.506 8.016-.041-1.612-.515-5.035-.975-8.287-.348-2.145-.673-4.178-.741-5.495a52.538 52.538 0 0 1-.06-.545c0-.184.03-.349.083-.497.01-.057.021-.11.033-.156.338-1.226 4.01-1.302 4.92-1.302.13 0 .203.002.203.002.063-.062.045-.146-.044-.244a3.795 3.795 0 0 0-1.635-.36" fill="#EF522E"/></g></g><g transform="matrix(1 0 0 -1 54.098 45.802)"><mask id="ad" fill="#fff"><use xlink:href="#ac"/></mask><g mask="url(#ad)"><path d="M0 0h410.693v398.924H0z" fill-rule="nonzero" fill="url(#ae)" transform="translate(-193.957 -354.062)"/></g></g><g transform="matrix(1 0 0 -1 61 30.618)"><mask id="ag" fill="#fff"><use xlink:href="#af"/></mask><g mask="url(#ag)"><path d="M0 0h410.693v398.924H0z" fill-rule="nonzero" fill="url(#ah)" transform="translate(-200.86 -369.246)"/></g></g><g transform="matrix(1 0 0 -1 -139.86 399.864)"><mask id="aj" fill="#fff"><use xlink:href="#ai"/></mask><g mask="url(#aj)" fill-rule="nonzero"><path d="M202.998 363.67c2.098-1.4 6.894-.287 8.863.16.556 6.22-10.62 4.048-8.863-.16" fill="#F8E8C6"/><path d="M204.185 366.694c.021-1.506 1.167-2.76 2.655-2.84 1.553-.082 2.877 1.14 2.955 2.733.016.277-.02.545-.08.804-1.719.635-4.064.271-5.53-.697" fill="#B34A1F"/><path d="M208.9 366.635a2 2 0 0 1-.225 1.01c-1.17.166-2.47-.015-3.548-.457a2.067 2.067 0 0 1-.053-.35c-.054-1.083.757-2.008 1.813-2.064 1.055-.055 1.96.777 2.013 1.86" fill="#3D1D15"/><path d="M209.448 365.85a.763.763 0 0 0-.797-.737.77.77 0 0 0-.721.818c.021.43.38.76.8.737a.771.771 0 0 0 .718-.818" fill="#F8E8C6"/><path d="M210.09 367.362c-.88.393-1.822.505-2.751.485-.945-.04-1.889-.3-2.696-.798-.803-.488-1.503-1.214-1.812-2.095.66.632 1.39 1.059 2.16 1.367a7.095 7.095 0 0 0 2.386.489 8.893 8.893 0 0 0 2.453-.213c.788-.2 1.532-.572 2.11-1.297-.183.929-.98 1.696-1.85 2.062" fill="#3B1B15"/></g></g><g transform="matrix(1 0 0 -1 42.364 30.618)"><mask id="al" fill="#fff"><use xlink:href="#ak"/></mask><g mask="url(#al)"><path d="M0 0h410.693v398.924H0z" fill-rule="nonzero" fill="url(#am)" transform="translate(-182.223 -369.246)"/></g></g><g transform="matrix(1 0 0 -1 -139.86 399.864)"><mask id="ao" fill="#fff"><use xlink:href="#an"/></mask><g mask="url(#ao)" fill-rule="nonzero"><path d="M192.482 363.666c-2.034-1.444-6.821-.478-8.785-.09-.718 6.152 10.419 4.31 8.785.09" fill="#F8E8C6"/><path d="M190.939 366.63c.016-1.493-1.085-2.768-2.557-2.887-1.537-.128-2.883 1.049-3.002 2.624-.023.276.007.541.056.8 1.69.677 4.022.382 5.503-.538" fill="#B34A1F"/><path d="M186.209 366.439c-.028.362.048.705.193 1.007 1.156.198 2.45.056 3.532-.353a1.97 1.97 0 0 0 .06-.344c.085-1.073-.697-2.011-1.74-2.097-1.047-.085-1.961.714-2.045 1.787" fill="#3D1D15"/><path d="M189.19 365.572a.761.761 0 0 1 .81-.708.768.768 0 0 1 .692.832.76.76 0 0 1-.81.709.768.768 0 0 1-.692-.833" fill="#F8E8C6"/><path d="M185.36 367.127c.86.414 1.792.552 2.712.56.938-.016 1.88-.245 2.694-.719.81-.46 1.521-1.16 1.854-2.024a6.595 6.595 0 0 1-2.178 1.295 7.05 7.05 0 0 1-2.38.417 8.84 8.84 0 0 1-2.425-.28c-.775-.22-1.5-.61-2.054-1.345.155.926.923 1.707 1.778 2.096" fill="#3B1B15"/></g></g><g transform="matrix(1 0 0 -1 34.772 38.9)"><mask id="aq" fill="#fff"><use xlink:href="#ap"/></mask><g mask="url(#aq)"><g transform="translate(-174.63 -360.964)"><mask id="as" fill="#fff"><use xlink:href="#ar"/></mask><g mask="url(#as)" fill-rule="nonzero" fill="url(#at)"><path d="M0 0h410.693v398.924H0z"/></g></g></g></g><g transform="matrix(1 0 0 -1 -139.86 399.864)"><mask id="av" fill="#fff"><use xlink:href="#au"/></mask><g mask="url(#av)" fill-rule="nonzero"><path d="M228.124 315.363s-11.247 3.856-13.182 5.053c-6.427-6.78-23.026-5.408-30.811 2.064-4.064-2.172-15.37-5.174-15.37-5.174s-1.648-24.097-1.533-28.527c.126-4.888 2.576-17.25 3.648-30.485.055-8.28-.331-24.64-3.648-34.049-.252-.497.117-1.86.517-2.035-.836-.088-2.306-.282-2.038-.404-.599-6.342-3.872-7.285-1.848-8.741 11.283-4.534 59.16-3.192 61.47-1.236 1.053 2.004-6.013 18.972-5.99 22.86.087 11.682 8.516 43.102 9.055 46.142.087 1.86-.185 26.93-.27 34.532" fill="#CDCCB5"/><path d="M197.618 210.013h.003-.003m-.004 0c-13.452 0-27.905.79-33.606 2.992 5.7-2.203 20.155-2.992 33.606-2.992m-33.608 2.993l-.018.007.018-.007" fill="#161F25"/><path d="M167.228 224.245c1.511 4.288 2.414 10.022 2.944 15.776l.001.004c-.529-5.756-1.432-11.49-2.944-15.78" fill="#DBDACE"/><path d="M170.172 240.02c.044.489.086.978.126 1.466l.001.004v-.004c-.038-.486-.08-.974-.126-1.46l-.001-.005" fill="#D56C42"/><path d="M197.618 210.013h-.004c-13.451 0-27.906.79-33.606 2.992l-.002.001-.018.007a.822.822 0 0 1-.037.015l-.093.037c-.262.188-.435.369-.537.553a.914.914 0 0 0-.116.449c.002 1.18 2.042 2.866 2.502 7.74-.022.01-.032.02-.032.03.001.122 1.303.294 2.07.373-.309.135-.599.978-.6 1.584 0 .18.026.338.083.452 1.512 4.29 2.416 10.024 2.945 15.78.045.487.087.975.126 1.46.17-5.205-1.269-14.541-.74-15.966.593-1.604 4.009-3.537 7.821-6.106-2.096.663-5.294 2.641-8.752 4.327-1.317-.848 4.776-5.45 7.854-7.816-1.714.652-6.9 2.716-9.786 4.448-.414-1.72-1.665-4.433-1.25-6.255 3.205-1.883 14.703-2.969 26.07-2.969 10.134 0 20.163.864 24.115 2.796.943.192-1.542 4.848-1.917 6.043-6.063-1.347-11.813-2.626-19.252-3.211 9.24 2.02 18.395 5.81 17.424 7.062-.527.68-1.134 1.362-1.784 2.066 3.442.983 6.776 2.258 8.354 3.735.609.117 1.236.247 1.879.387.975-3.332 2.474-7.63 3.594-11.234a121.39 121.39 0 0 1-3.722-2.02c.663-1.127 1.264-2.143 1.796-3.051.309-.129.596-.294.855-.506.486-.37.957-.971 1.414-1.77-3.521-.808-14.69-1.433-26.652-1.433h-.002m21.044 28.802c-.123.073-.244.147-.364.223l-.012.007-.004.004-.008.004-.008.005-.006.004c-.003.002-.008.004-.01.007l-.002.001c-5.23 3.308-8.313 8.592-10.9 8.796h-.02c-.224 0-.638-.274-1.166-.726-1.167.335-2.519.79-3.342 1.008.458-.912 1.003-1.94 1.459-2.834a74.365 74.365 0 0 1-2.797-3.1c-1.765.75-2.77 1.53-2.978 3.472.35-.072.664-.1.94-.1.895 0 1.383.293 1.383.293-4.716 11.232-20.623 35.676-27.31 66.346 1.567 1.67 3.412 3.305 5.414 4.881 4.437-30.213 21.441-71.413 37.746-71.413.297 0 .59.013.887.04 2.988 2.903 7.641 29.634 7.778 36.21.083 3.944.407 12.647-3.492 23.672l.002-.003c2.81-6.377 5.318-14.446 6.541-24.78-.362-2.042-4.284-16.889-6.847-29.958-.76-3.4-1.796-10.032-2.09-11.746-.22-.095-.439-.182-.658-.263l-.008-.003-.004-.002a5.6 5.6 0 0 0-.124-.045" fill="#ACAB92"/><path d="M239.743 313.743s-21.48 6.197-24.353 8.737c-8.62-6.048-25.01-6.425-30.757 1.403-4.379-2.827-19.613-5.15-22.553-9.372-3.488-5.007-6.472-30.162-7.463-35.094 7.613-2.043 10.474-1.931 13.99-2.112-2.41 19.646.506 28.34.506 28.34 1.965 5.251 7.984 10.436 14.57 14.928 7.785-7.262 25.338-6.913 31.047-2.154 4.822-7.244 11.417-18.59 13.664-37.588l1.364-6.782c3.052.56 17.756 6.875 20.242 8.451-1.691 4.961-10.257 31.243-10.257 31.243" fill="#27424E"/><path d="M223.8 215.235c-.973 0-1.84-.045-2.612-.131-10.962 18.615-41.74 70.707-42.856 107.376l-6.33-2.225c7.445-52.824 38.563-96.405 43.485-108.324-.463-.992-.637-2.15-.763-3.396-.376-3.727 3.131-35.482 4.029-41.834.536-3.798 7.115-6.21 14.777-4.386 1.488 10.072-5.011 52.92-9.73 52.92" fill="#7C7F24"/><path d="M219.456 239.124c.293 1.713 1.33 8.348 2.091 11.749 1.761-4.63 2.536-5.629 3.664-8.178 2.63-5.844 9.298-20.604 10.489-22.34 7.51-7.73 12.13-36.296 11.286-50.716-1.468-2.597-9.306-8.29-14.003-9.665-.565 11.176-4.306 48.818-10.125 53.241a3.381 3.381 0 0 1-.855.506c-.532.909-1.132 1.925-1.795 3.05 2.325 1.313 4.915 2.697 7.242 3.72-1.399 3.178-7.925 18.662-7.994 18.633" fill="#59581F"/><path d="M194.196 246.522c.118-2.1 1.843-3.143 4.348-3.371-.64 1.197-1.227 2.395-1.873 3.635-.72-.124-1.568-.206-2.475-.264M247.902 281.392c-4.459-1.59-12.387-5.463-17.026-7.031 2.167-8.428 5.776-19.895 5.826-19.555 0 0-9.445-12.917-18.04-15.992-5.483 3.283-8.659 8.841-11.313 9.05-.22.017-.643-.26-1.187-.725-1.167.335-2.518.79-3.342 1.007.458-.912 1.003-1.94 1.46-2.833-2.472-2.568-5.45-6.225-5.743-6.887-.61-.257.933-2.88 2.504-2.588-1.254-1.594.568-4.613 1.832-4.613-.757-1.641 2.38-3.067 3.202-2.94-.408-1.98 2.114-2.766 2.617-2.766 3.91 1.024 7.97 2.442 9.764 4.12 13.314 2.564 32.221 14.167 33.072 18.422.869 4.35-1.607 21.303-3.626 33.331" fill="#F89C6D"/><path d="M227.664 244.783c4.992 4.543 8.87 9.793 9.032 10.015-.163-.22-4.033-5.466-9.022-10.008l-.01-.007M230.92 274.192l-.039.15.039-.15" fill="#F9D5C3"/><path d="M227.674 244.79c4.99 4.542 8.86 9.788 9.022 10.008-.161.044-3.623 11.065-5.76 19.33a.437.437 0 0 1-.017.064l-.039.15-.004.019c4.64 1.568 12.568 5.442 17.027 7.031.062-.375-11.728-7.603-11.726-7.619.953-7.192 4.994-17.997 4.994-17.997.693-.077 1.284-.11 1.789-.11 1.191 0 1.902.178 2.343.355.443.176.617.353.733.353.016 0 .03-.003.043-.01.092-.045-2.464-1.795-5.949-2.879-2.432-.756-9.965-7.086-12.455-8.695" fill="#F57F52"/></g></g><g transform="matrix(1 0 0 -1 80.327 170.034)"><mask id="ax" fill="#fff"><use xlink:href="#aw"/></mask><g mask="url(#ax)"><path d="M0 0h410.693v398.924H0z" fill-rule="nonzero" fill="url(#ay)" transform="translate(-220.186 -229.83)"/></g></g><g transform="matrix(1 0 0 -1 78.257 170.725)"><mask id="aA" fill="#fff"><use xlink:href="#az"/></mask><g mask="url(#aA)"><path d="M0 0h410.693v398.924H0z" fill-rule="nonzero" fill="url(#aB)" transform="translate(-218.116 -229.14)"/></g></g><g transform="matrix(1 0 0 -1 78.947 169.344)"><mask id="aD" fill="#fff"><use xlink:href="#aC"/></mask><g mask="url(#aD)"><path d="M0 0h410.693v398.924H0z" fill-rule="nonzero" fill="url(#aE)" transform="translate(-218.806 -230.52)"/></g></g><g transform="matrix(1 0 0 -1 67.213 172.105)"><mask id="aG" fill="#fff"><use xlink:href="#aF"/></mask><g mask="url(#aG)"><path d="M0 0h410.693v398.924H0z" fill-rule="nonzero" fill="url(#aH)" transform="translate(-207.072 -227.76)"/></g></g></g></svg>